<?xml version="1.0" standalone="no"?>
<!DOCTYPE svg PUBLIC "-//W3C//DTD SVG 1.1//EN" "http://www.w3.org/Graphics/SVG/1.1/DTD/svg11.dtd" >
<svg>
<metadata>
Created by FontForge 20120731 at Fri Mar  9 00:51:28 2018
 By www-data
Copyright 1998 Lisa D. Jenkins; silhouettes used by permission from Glenda Moore.
</metadata>
<defs>
<font id="CatSilhouettes" horiz-adv-x="2736" >
  <font-face 
    font-family="Cat Silhouettes"
    font-weight="400"
    font-stretch="normal"
    units-per-em="2048"
    panose-1="0 0 4 0 0 0 0 0 0 0"
    ascent="1638"
    descent="-410"
    x-height="1585"
    cap-height="1638"
    bbox="0 -397 4839 1675"
    underline-thickness="40"
    underline-position="-453"
    unicode-range="U+000D-25FC"
  />
<missing-glyph horiz-adv-x="748" 
d="M68 0v1365h544v-1365h-544zM136 68h408v1229h-408v-1229z" />
    <glyph glyph-name=".notdef" horiz-adv-x="748" 
d="M68 0v1365h544v-1365h-544zM136 68h408v1229h-408v-1229z" />
    <glyph glyph-name="glyph1" horiz-adv-x="0" 
 />
    <glyph glyph-name="uni000D" unicode="&#xd;" horiz-adv-x="1368" 
 />
    <glyph glyph-name="space" unicode=" " horiz-adv-x="1368" 
 />
    <glyph glyph-name="A" unicode="A" horiz-adv-x="1865" 
d="M113 176q0 66 131 109q-6 -35 -6 -56q0 -70 84 -131q78 -57 151 -57q41 0 99.5 30.5t58.5 69.5q0 37 -7.5 111t-7.5 110q0 141 43 213q88 131 175 263q133 209 133 249q0 33 -66.5 142.5t-66.5 173.5l2 53q37 -10 114 -22q49 96 49 159q23 -61 150 -96q166 -47 188 -61
q14 18 47 57q-8 -25 -34 -68q10 -10 26 -10q12 0 33 5t31 7q-23 -4 -45 -24q23 -27 55 -23q-37 -4 -72 -51q-28 -136 -28 -172q0 -33 20.5 -64.5t38.5 -62.5q39 55 129 158q29 -2 55.5 -32t26.5 -58q0 -37 -74 -113l-106 -102q39 -59 106 -74q29 -6 127 -6q82 -3 125 -23
q-6 -155 -131 -155h-2q-35 0 -101.5 22.5t-101.5 22.5q-29 0 -112.5 -220.5t-83.5 -277.5q0 -8 30 -51q-31 -147 -82 -223q102 -51 136 -117l-52 -53h-598q0 23 7.5 70.5t7.5 70.5q0 33 -10 59q-63 -45 -209 -45q-383 0 -383 293z" />
    <glyph glyph-name="B" unicode="B" horiz-adv-x="2187" 
d="M102 -215q0 104 88 160q96 41 191 84q127 57 186 149q41 68 74 203q39 156 61 207q92 211 272.5 345t407.5 157q29 4 57.5 19t57.5 30q-6 29 -49 157q-33 104 -33 150v129h68q25 0 72 -29.5t73 -29.5q57 0 123 45t98 96q14 -2 33 -19.5t33 -31.5q4 -45 31 -168
q20 -105 20 -168q0 -23 -34 -47.5t-34 -83.5q0 -39 18.5 -117t18.5 -117q0 -80 -120.5 -217t-120.5 -211q0 -20 3 -59t3 -60q0 -16 -2 -47v-49q0 -170 143 -225v-117h-135l-88 88q-55 59 -76 98q-2 6 -2 75t-25.5 97.5t-97.5 28.5q0 -10 -8 -6q-37 -43 -76 -119
q-55 -111 -65 -127h11q118 0 153 -41v-94h-641q-25 0 -58 30t-57 30q-51 0 -238 -80q-192 -82 -192 -115q0 -29 39 -68q33 -29 63 -55q-27 -31 -72 -31q-63 0 -118.5 46.5t-55.5 107.5z" />
    <glyph glyph-name="C" unicode="C" horiz-adv-x="2031" 
d="M246 -141q0 47 57 78q70 37 80 57q20 43 44 143.5t24 149.5q0 74 -17 84q-43 27 -59 51q-6 47 -6 100q0 31 14 221q31 49 31 97q0 41 -25 71q39 39 64 138q-39 18 -80 18q-8 27 -8 45t12 29.5t12 15.5q0 16 -14.5 47t-14.5 49q0 37 33 80q66 14 128.5 57.5t99.5 55.5
q23 6 114 6q72 0 103 25q68 53 80 57q0 -16 10 -72q6 -28 6 -48q0 -12 -2 -21q23 0 108 18q0 -70 2 -207v-205q70 -36 103 -36h2q39 0 88 32q45 8 102 11q37 0 101 -2q78 -2 102 -3q6 14 6 33q0 29 -13 84.5t-13 81.5q0 115 68.5 226.5t168.5 168.5l-16 -682
q82 -207 82 -299q0 -49 -41 -161q-45 -121 -49 -174q30 -38 30 -99q0 -45 -17 -128t-17 -126q0 -63 32 -102q-129 -49 -194 -49q-35 0 -172 45l90 106q51 66 51 125q0 31 -23.5 44.5t-48.5 27.5q-31 -47 -73 -221q-80 -45 -142 -45q-29 0 -82 11t-80 11v90q0 25 39 31
q51 10 64 23q20 18 35 61q23 63 24 70q-10 12 -30 12q-90 0 -252 -60q-2 -47 -19 -155q-12 -100 -12 -156q0 -41 4 -76q-59 -24 -137 -24h-6q-98 0 -160 43q-2 14 -2 24q0 41 51 67t51 89q0 135 -49 184q-39 -68 -78 -137q-47 -82 -59 -145q-37 -23 -115 -23q-113 0 -188 43
q-2 10 -2 19z" />
    <glyph glyph-name="D" unicode="D" horiz-adv-x="1419" 
d="M53 -172q0 63 43 131q31 12 65 26.5t47 44t13 167.5q0 84 12 129q12 39 105 225q86 174 86 186q0 23 -22.5 74t-26.5 76q-4 37 -4 104q0 57 4 107q-39 96 -39 170q0 25 49 139q55 125 64 160l71 -70q25 31 74 88q10 -51 123 -117q147 -88 157 -100q2 -12 3 -29
q0 -29 -25 -165q39 -43 111 -136q36 70 36 138q0 29 -10 80t-10 75q0 53 51 94h60q27 -20 49 -41.5t22 -66.5q0 -20 -13 -59t-13 -58.5t-2.5 -52.5t-2.5 -47q1 -72 52 -144q-76 -29 -119 -104q16 -70 16 -187v-26v-59q0 -110 6 -156q-2 2 -34 31q-6 -12 -7 -29
q0 -33 29 -109q-14 16 -33 19q10 -35 11 -80q0 -84 -35 -84q-14 0 -27 8q-8 6 -18 0q25 -37 67 -110q-16 16 -39 16q-18 0 -28 -12q8 -14 51 -37q37 -20 37 -47v-96q-10 0 -28.5 7t-24.5 7q-10 0 -11 -14l6 -29q4 -18 -4 -27q-14 16 -49 35q-10 -14 -30 -43q68 -10 192 -49
v-62q-41 -33 -96 -38h-107q-59 0 -100 -33q-186 -10 -205 -10q-35 0 -102.5 11t-102.5 11q-16 0 -16 -6q0 -4 3 -11.5t3 -9.5q0 -8 -16 -8q-18 0 -45 17.5t-43 17.5q-20 0 -21.5 -17.5t-23.5 -17.5q-59 0 -122 71t-63 132z" />
    <glyph glyph-name="E" unicode="E" horiz-adv-x="2426" 
d="M59 -57q0 131 160 252q151 116 285 116h2q106 0 203 -41q33 -14 182 -94q27 0 47 35q-14 141 -14 244q0 150 26 252q41 152 90 233q66 109 181 170q66 37 212 96.5t214 98.5q113 63 182 145q-3 12 -3 50q0 19 1 44q10 0 49 -20.5t70 -20.5q43 0 77.5 30t65.5 58v-96
q10 -14 18.5 -25.5t40.5 -11.5q55 0 78 17q-43 -35 -43 -68q0 -39 68 -92l-13 -51q-47 -10 -57 -45t-18 -72q-31 -16 -63 -35.5t-48 -52.5q-10 -23 -16 -77t-21 -81q-49 -74 -98 -149q-72 -106 -72 -150q0 -74 47 -167t109 -130q0 -53 -31 -84q-57 27 -133 119
q-66 82 -98 152q-31 2 -45 -17q0 -39 8 -123t8 -125q-49 -45 -108 -49q0 14 8 46t8 48q0 20 -10 39q-35 -61 -72 -82q-23 -10 -74 -18t-90 -27q12 -25 56.5 -57.5t56.5 -56.5q-127 -25 -309 -25q-55 0 -109 4l-6 31q-6 6 -37 6q-27 0 -78 -22.5t-80 -22.5q-74 0 -469 22
l-37 -36q23 -59 107 -74q127 -25 139 -31v-190l-61 -49q1 10 1 19q0 91 -72 91h-1q-25 0 -74 -11t-73 -11q-98 0 -172 36q-94 45 -95 136z" />
    <glyph glyph-name="F" unicode="F" horiz-adv-x="1333" 
d="M111 236q2 102 47 102q66 0 133 -217q35 -137 71 -273q1 2 1 7q0 30 -23 151q-29 147 -29 160q0 31 -6 73t-6 72q0 115 76 271q45 90 143 235q76 115 76 135q0 33 -24.5 97.5t-24.5 101.5q0 147 151 442q0 -27 41 -65q39 39 41 65q31 -76 115 -123q68 -33 135 -65
q66 -39 66 -94q0 -72 -62.5 -157t-62.5 -173q0 -43 32 -107q41 -82 48 -102q8 -32 8 -87v-23v-32q0 -53 5 -79q7 -33 60 -78q59 -51 86 -104q45 -90 45 -246l-102 -25q-27 53 -53 105q-40 73 -81 73h-1q-12 0 -25 -14q66 -61 66 -143t-88 -166q14 -12 39 -12q27 0 133 22
q0 -6 13 -20.5t13 -42.5q0 -70 -98 -93q-76 -12 -151 -26l-152 -74q-68 -29 -174 -29q-152 0 -180 5q-102 12 -162 67q-6 18 -47 256q-29 172 -92 230z" />
    <glyph glyph-name="G" unicode="G" horiz-adv-x="942" 
d="M41 -133q0 150 129 172v-10q0 -29 -23.5 -81t-23.5 -81q0 -92 143 -92t144 211v14q0 61 -13 84q-6 8 -61 66q-94 96 -127 210q-25 86 -25 244q0 84 35 144q49 90 62 126q2 6 6 121q4 82 41 103q-27 33 -54 86q-28 59 -28 94q0 37 37 154q45 135 51 163q27 -12 53.5 -42.5
t50.5 -57.5q27 53 35 68q25 39 53 55q10 -37 74 -176q55 -123 55 -164q0 -43 -37 -160q39 -51 50 -102q23 -102 43 -203q26 -129 26 -199q0 -139 -63 -241q-70 -102 -137 -205q-23 -39 -41 -223q-14 -156 -78 -203q-23 -18 -86.5 -33.5t-95.5 -15.5q-195 0 -195 174z" />
    <glyph glyph-name="H" unicode="H" horiz-adv-x="1251" 
d="M49 489q0 145 141 312q121 129 244 258q145 168 207 321q14 39 14 207l88 -61q55 -37 95 -37q35 0 103 22.5t103 22.5q-4 -31 -65 -113q2 -31 13.5 -93t11.5 -97q0 -160 -156 -162q16 -43 65 -235q31 -127 111 -228l-29 -213h-92q0 25 10.5 73t10.5 73q0 68 -86 151
q-39 -80 -39 -188q0 -33 51 -120t51 -134q0 -14 -4 -27q-68 -9 -188 -9q-40 0 -86.5 1t-86.5 1q-121 0 -188 -9q45 -84 92 -168q59 -117 60 -172q0 -82 -39 -137q-45 -61 -123 -62q-80 0 -213 133q14 76 88 117q23 -14 60.5 -51t62.5 -49q16 12 16 18q0 106 -78 225
q-74 100 -145 203q-80 119 -80 227zM600 389q0 -37 21 -49q43 -23 45 -25v275q-66 -129 -66 -201z" />
    <glyph glyph-name="I" unicode="I" horiz-adv-x="2154" 
d="M78 440q0 297 171 483.5t464 186.5q33 0 98.5 -8t95.5 -8q51 0 150.5 19.5t148.5 19.5q45 90 90 231q35 117 72 235q31 -39 64 -75q41 -41 88 -41q18 23 41.5 78t44.5 77q145 -219 331 -485q-117 -102 -159 -203q-12 -33 -41 -162q-20 -96 -78 -165q94 -35 221 -35
q53 0 117 6l129 -131q-12 -55 -51 -98h-80h-24q-213 0 -603 -64q-418 -70 -625 -70q-133 0 -251 19q-27 -14 -29 -55q106 -139 215 -197q115 -63 285 -64q33 0 98 2.5t98 2.5q293 0 432 49q109 39 375 219v-139q0 -166 -565 -324q-133 -37 -164 -37q-397 0 -739 170
q-420 209 -420 563z" />
    <glyph glyph-name="J" unicode="J" horiz-adv-x="4638" 
d="M37 1028q47 35 219 201q133 127 236 176v194q152 -145 284 -329q193 -119 254 -146q113 -45 291 -45t414 97q201 90 401 180q231 96 395 96q254 0 478 -182q176 -172 352 -342q207 -182 418 -183q66 0 314.5 112t319.5 112q106 0 244 -97q131 -90 182 -190l-170 -49
q-149 112 -274 112h-2q-68 0 -315.5 -111.5t-317.5 -111.5q-172 0 -272 37q-90 35 -232 150q-264 -121 -473 -314q-248 -225 -307 -463q-131 -70 -217 -153h-127l-84 92q39 39 131 97.5t133 97.5q16 51 35.5 158.5t36.5 158.5q-10 29 -47 29q-68 -134 -68 -267v-22
q-117 -78 -358 -158q-39 45 -47 98q113 113 260 187l-33 125h-94q-57 0 -168 -72q-80 -55 -158 -110q-16 -37 -16 -78q0 -100 92 -191q76 -74 182 -114q33 -51 39 -105h-231q-59 0 -258 176q-129 117 -256 232v-160q94 -55 186 -109q125 -78 152 -137h-234q-164 0 -270 248
q-86 199 -86 391q-285 244 -334 279q-222 161 -391 161h-2q-23 0 -45 -4q-74 66 -162 246z" />
    <glyph glyph-name="K" unicode="K" horiz-adv-x="2144" 
d="M143 297q0 109 242 700q72 59 330 353q41 49 129 131q33 23 149 47q107 24 156 24h4q47 0 244 -55q225 -59 274 -67q-25 -53 -96 -125q-80 -82 -105 -117q0 -143 -63 -299h-150q-41 0 -57 27.5t-26 29.5q-27 -14 -78 -49l-2 -70q0 -115 31.5 -190.5t113.5 -159.5
q0 -74 -28.5 -217t-28.5 -219q0 -6 20 -18q275 32 452 32h11q291 0 428 -61q37 -15 37 -76v-6q-74 0 -227.5 12.5t-229.5 12.5q-160 0 -455.5 -101.5t-453.5 -101.5q-84 0 -326 61q-90 121 -178 242q-117 160 -117 260z" />
    <glyph glyph-name="L" unicode="L" horiz-adv-x="2258" 
d="M41 983q0 63 102 217q0 47 -80 166q66 0 196 -38t192 -38q29 0 85 9.5t85 9.5q18 27 106 118q70 72 96 127q31 2 74 23q35 16 70 33q18 -4 41 -4q14 0 40.5 2t41.5 2q23 0 30 -2q39 -14 207 -138q109 -80 217 -159q74 80 225 184q37 -2 78 -35q33 -29 68 -57
q29 -55 61 -76q52 -112 52 -231q0 -123 -37 -178q-12 -16 -131 -123q-78 -72 -140 -170q29 -55 78 -172q-90 37 -139 86v9q0 50 -21 75q41 98 103 176q55 61 108 125q55 72 56 151q0 43 -40 116t-77 99h-76q-96 -72 -96 -166q0 -39 19.5 -111.5t19.5 -109.5
q0 -66 -78 -231.5t-78 -214.5q0 -61 18.5 -181t18.5 -182v-418q-27 -12 -219 -45q-20 16 -41 33q-27 18 -27 43q68 72 125 103q-6 61 -10 122q-8 90 -25 109q-55 -37 -82 -129l-32 -156l-242 25q225 215 225 334v75q-49 43 -86 140q-25 82 -49 162q-39 -39 -76 -41l-36 -35
q0 -137 -23 -338q-18 -170 -37 -338q-16 -16 -31 -35q-12 -10 -43 -10h-231q20 82 164 176q-6 82 -10 164q-8 123 -23 149q-84 -170 -129 -252q-78 -137 -154 -237q-119 0 -182 8q-25 6 -76 12q10 33 21 97q86 43 124 43h3q76 152 198 483q-35 68 -65 178q-47 162 -53 182
q-20 6 -37 7q-41 0 -76 -50h-84q-49 0 -94 47v144q-31 35 -60 37q0 16 -11 49t-11 51z" />
    <glyph glyph-name="M" unicode="M" horiz-adv-x="1603" 
d="M43 14q0 86 27 232q33 164 36 231q18 266 216 481q119 131 419 338q23 16 54.5 81t60.5 89q43 37 145 60q123 25 158 41h80q-10 -31 -20 -94q55 -12 161 -52q-20 -25 -114 -69q43 -20 86 -39q60 -27 78 -47q-72 47 -117 47q-27 0 -27 -23q0 -80 18.5 -108.5t18.5 -24.5
q0 -8 -8 -27q-27 -37 -105 -49q-86 -12 -129 -55q45 -90 45 -147q0 -10 -2 -19q-72 -41 -96 -149q-31 -143 -51 -176q0 39 -19 38q-8 0 -18 -10q0 -92 55 -332q51 -225 92 -325q10 -29 53.5 -65t55.5 -60q-68 -18 -109 -19q-29 0 -58.5 17.5t-49.5 17.5q-37 0 -92 -41
q-41 -31 -82 -63q20 -23 49 -23q-55 0 -167 -17.5t-169 -17.5q-51 0 -188 58q-129 53 -180 90q-106 74 -107 231zM670 -129q45 20 88 39q57 25 82 49q23 -23 26 -47q0 26 31 57q-47 86 -127 267q-4 -23 -4 -146q0 -139 -96 -219z" />
    <glyph glyph-name="N" unicode="N" horiz-adv-x="1325" 
d="M0 -119q0 80 53 151.5t53 98.5q0 8 -36 98q-16 41 -37 130.5t-21 129.5q0 190 133 334q76 82 293 224q68 43 166 231q14 27 25.5 81t21.5 77q16 39 80 110q49 51 96 105q4 -29 25 -52l39 52q43 -14 49 -109q39 -25 92 -76q66 -63 90 -82v-88q-51 -23 -145 -75
q4 -35 33 -154q20 -96 20 -156q0 -87 -60 -199q-56 -104 -59 -105v1q0 -94 15 -233q12 -117 24 -232q74 -25 119 -65v-49q-31 -41 -98 -41q-68 0 -111 61q-27 41 -56.5 138.5t-49.5 129.5q-2 -6 -41 -215q76 -23 106 -67q-4 -33 -31 -62q-266 0 -391 4q-20 2 -82 7
q-53 4 -84 4q-43 0 -70.5 -32t-27.5 -75q0 -104 137 -151q94 -33 226 -33q72 0 174 12q88 12 174 25q-25 -68 -189 -105q-115 -26 -225 -26h-8q-160 0 -277 59q-145 74 -145 219z" />
    <glyph glyph-name="O" unicode="O" horiz-adv-x="2002" 
d="M51 -137q0 92 68 137q33 23 145 59q98 31 137 70q45 49 99.5 171t54.5 183q0 27 -66 174q-43 94 -86 189q-72 180 -73 391v24q0 53 -6 142q-4 27 -37 78q-25 43 -25 121q94 -55 123 -129q20 -53 21 -179q0 -190 110 -415q131 -264 299 -265q35 0 104.5 8.5t104.5 8.5
q53 0 155.5 -25.5t155.5 -25.5q76 0 123 43l-53 51q47 74 94 147q49 80 49 135q0 11 -2 21h92q14 0 37 -25.5t60 -25.5q61 0 114 53q43 -82 43 -121q0 -31 -26.5 -84t-26.5 -82q0 -43 16.5 -128t16.5 -130q0 -129 -74 -250q-8 -10 -78 -80q-55 -55 -55 -88q0 -23 45 -94
q29 -47 59 -96v-57q-14 -23 -51 -23q-55 0 -145 115q-104 129 -139 147q-32 17 -78 17h-10h-70q-104 -2 -129 -13q-49 -37 -98 -71q-59 -41 -166 -86q2 -29 106 -97v-59q-23 -23 -78 -23q-37 0 -136 67t-99 99q0 23 37 70q25 35 51 68l-29 28q-80 -27 -180 -43
q-70 -12 -182 -22q-154 -16 -185 -21q-1 -4 -1 -9q0 -29 22 -69q-4 -25 -28.5 -44t-49.5 -19q-80 0 -80 82z" />
    <glyph glyph-name="P" unicode="P" horiz-adv-x="1437" 
d="M94 74q0 63 37 226t64 224q35 78 174 236q2 10 2 22q0 53 -41 154q8 4 22 4q39 0 90 -18q25 -35 50 -68q26 -38 26 -73q0 -28 -31 -68q-25 -31 -49 -62v-26q66 78 129 155q74 92 109 168q23 53 24 180q2 119 37 176.5t143.5 142.5t145.5 144q12 -41 123 -243
q98 -186 98 -215q0 -33 -65 -101q-47 -45 -95 -90q45 -127 46 -240q0 -98 -59.5 -280t-61.5 -279v-73q0 -61 28 -121q10 -20 66 -109q-6 -27 -78 -78q-98 -2 -342 -36q-117 -18 -145 -19q-213 0 -320 74q-127 88 -127 293zM272 -53h41v415h-41v-415zM291 371h41l30 133h-40z
M344 520l35 -14l29 92h-35z" />
    <glyph glyph-name="Q" unicode="Q" horiz-adv-x="3047" 
d="M25 956q0 78 36.5 228.5t36.5 228.5q0 90 -20 174q18 -10 121 -96q90 -74 113.5 -74t72.5 -2h72q76 0 164 150q61 -100 188 -299q37 -51 166 -86q109 -29 194 -29q61 0 146 29q72 23 143 47q166 45 371 45q473 0 829 -328q365 -336 365 -805q0 -456 -559 -456h-2
q-49 0 -144.5 3t-142.5 3q-545 0 -784 127q6 45 55 88h1212q-16 10 -57 10q-123 0 -369.5 -3t-369.5 -3q-55 45 -103 227q-33 129 -63 260q-20 -86 -21 -149q0 -102 78 -312h-348q-37 0 -140.5 47.5t-142.5 47.5q-29 0 -89 -60.5t-97 -60.5h-172q-33 20 -33 72q0 68 98 163
v62q-94 29 -112 35q-66 25 -99 61q-94 106 -114 322q-29 65 -77 65h-1q-27 0 -83 -24.5t-87 -24.5q-143 0 -195 92q-36 66 -36 217v8z" />
    <glyph glyph-name="R" unicode="R" horiz-adv-x="2162" 
d="M45 1206q0 135 96 277q105 155 232 155h2q29 0 63 -18q59 -31 60 -33q10 -25 24 -80q-29 -14 -82 -20q-61 -8 -84 -17q-59 -20 -116.5 -114t-57.5 -162q0 -53 66 -154q61 -92 113.5 -129t160.5 -41q-11 0 -11 1t185 1q92 0 267.5 -37.5t265.5 -37.5q141 0 229 75
q66 55 125 183q98 205 107 217q23 0 61 -47q47 -57 57 -64q23 31 43 62q29 41 54 51q10 -27 16 -83t17.5 -81t99.5 -149q78 -109 78 -142q0 -55 -43 -88q-25 -18 -93.5 -47t-93.5 -51q-59 -57 -131 -215t-72 -236q0 -47 95 -215q90 -158 133 -203q-23 -113 -25 -119.5
t-12 -6.5q-45 0 -100 81q-35 59 -72 119q-45 68 -98 117q-12 -10 -10 -45q2 -41 42 -107q35 -47 70 -96h-152q-61 37 -79 90q-8 29 -9.5 99.5t-17.5 109.5q-49 127 -123 191q-31 8 -70 8q-141 0 -241 -31q-150 -45 -150 -151q0 -35 119 -146q78 -70 156 -139
q-33 -33 -92 -33q-80 0 -140 43q-18 14 -104 105q-66 70 -135 131q-2 20 4 58t6 56q0 23 -8 39q-53 -51 -115 -82q-70 -33 -78 -41q-22 -19 -22 -77v-5q0 -98 47 -129q63 -29 125 -59l10 -55q-27 -31 -90 -31q-88 0 -197 168q-100 158 -100 254q0 37 106 164q2 14 2 30
q0 43 -20.5 126t-20.5 126q0 96 70 166q-342 233 -342 514z" />
    <glyph glyph-name="S" unicode="S" horiz-adv-x="2566" 
d="M43 1210v160q102 39 205 76q124 53 124 135q0 6 -1 12q20 -2 92 -77q20 10 61 53q35 37 76 47q2 -20 49 -234q31 -139 31 -235q0 -51 -6 -107q12 0 39.5 -8t44.5 -8q20 0 108 20q119 31 236 62q162 41 229 41q168 0 311 -53q2 0 93 -39q70 -31 88 -31q51 0 199.5 87
t148.5 128q0 74 -103 125q-82 37 -161 74l-21 55h170q98 0 198.5 -98.5t100.5 -196.5q0 -80 -100 -156q-63 -47 -208.5 -115.5t-182.5 -97.5q16 -61 39 -225q18 -145 47 -223q10 -23 81.5 -86.5t90.5 -95.5q49 -90 49 -271q0 -98 -25 -172h-194l-25 23v76q80 45 80 84
q0 74 -129 245q7 -216 8 -216v3q0 -143 -31 -245l-57 -113q-100 0 -246 8q-25 2 -28 21q-2 6 -4 67q92 39 120 62q61 47 62 114l-2 54q-2 84 -121 211q-127 133 -141 221h-4q-24 0 -64 -23q-51 -31 -67 -35q-47 -14 -250 -14q-150 0 -209.5 -34t-71.5 -115q-4 -35 -4 -209
q0 -113 -23 -166q-35 -82 -131 -82q-74 0 -122 26q8 23 59 76q43 47 43 72q0 53 -31 113q-133 -246 -246 -246q-25 0 -110 45q4 53 31 76q20 18 73 26q49 70 92 185q47 125 48 200q0 43 -56 107q-84 94 -104 125q-55 90 -55 196q0 53 15 161t15 161q0 51 -7 79.5t-95 63.5
q-113 47 -121 51z" />
    <glyph glyph-name="T" unicode="T" horiz-adv-x="1640" 
d="M92 1358q39 43 72 43q20 0 49 -27.5t51 -27.5q63 0 201 40q14 4 46 33t44 35h63q8 -37 33 -108q6 8 12.5 38.5t20.5 49.5q35 45 127 79.5t154 34.5q215 0 303 -47q123 -67 123 -266q0 -106 -36 -318t-36 -317q0 -33 7 -97.5t7 -96.5v-82l-157 -19v475q-61 -70 -62 -135
q0 -33 18.5 -92t18.5 -92v-156h-141q-12 34 -12 98v5q0 3 1 7q0 64 -10 93q-51 0 -69 -70q-35 -123 -41 -338q-10 -258 -23 -344h-121q-8 18 -8 51q0 84 2 252t2 254q0 115 -59 119q-57 -82 -58 -194q0 -76 30 -222.5t32 -220.5q-20 -10 -197 -39q-4 18 -4 39q0 25 9.5 72
t9.5 72q0 31 -13 77q-8 41 -18 80q-10 84 -31 252q-6 49 -78 121q-84 -16 -84 -131q0 -139 9 -182q20 -90 96 -150q8 -25 8 -45q0 -23 -45 -22q-35 0 -86 49q-41 43 -64 82q-43 78 -43 215q0 143 43 227q41 57 82 119.5t41 165.5q0 84 -7 99t-46 53t-51 59q-35 63 -66 172
q-49 174 -49 178z" />
    <glyph glyph-name="U" unicode="U" horiz-adv-x="1533" 
d="M41 532q0 39 6 138q18 20 76 139q-20 37 -21 123q0 104 62 250q100 238 102 241q-16 84 -121 117q10 25 21 76h115q88 -82 88 -193q0 -74 -45 -216q-43 -136 -43 -219v-7q29 20 57 39q36 24 61 24h2h166q123 -94 365 -286q90 88 192 286q23 -18 66 -73q37 -51 70 -70
q23 20 61 103q10 -21 10 -102v-28q143 -141 144 -186v-67l-48 -48q-135 -6 -264 -38q-45 -106 -80 -175q-29 -47 -54 -95t-25 -107l-3 -201q0 -72 43 -156q41 -72 82 -143l-137 -25q-149 260 -149 422q0 17 2 33q-6 14 -29 16q-25 -39 -99.5 -114.5t-103.5 -118.5
q-49 -70 -49 -135q0 -31 10 -60l-139 21q51 207 223 516q-27 16 -75 53h-74l-96 -96q-2 -66 -2 -291h-76q-23 45 -35 129q-16 117 -21 135q-12 -86 -12 -184q0 -127 21 -264h-95l-47 45q-12 166 -69 545q-33 225 -33 247z" />
    <glyph glyph-name="V" unicode="V" horiz-adv-x="3422" 
d="M78 1006q0 61 29.5 174.5t29.5 173.5q0 80 -57 127h166q72 0 339 -162t296 -223h139q37 0 96 41q82 55 92 59q119 55 396 55q299 0 526 -88q90 -37 229 -108q115 -61 189 -84q111 -33 268 -33q125 0 276 184q0 193 -77 310q59 47 102 51q129 -121 129 -289
q0 -209 -160 -332q-146 -112 -358 -112h-4q-70 0 -206 22.5t-206 22.5q0 -283 84 -449q-152 -453 -293 -485q-51 12 -92 51q2 49 31 137q41 121 45 135q-27 31 -129 125q-84 74 -121 131q-80 -182 -262 -538q-16 0 -54 -5.5t-59 -5.5q-47 0 -69 21q2 55 114 168v180
q-18 37 -65 105q-66 -2 -129 -66q4 -25 4 -55q0 -109 -35 -242q-39 -152 -100 -219q-57 14 -101 55q47 115 47 338q0 72 -55 76q-37 -113 -115 -426q-18 0 -57 -5t-59 -5q-45 0 -68 18q2 55 78 131v295q-39 41 -174 148q-113 90 -162 155q-29 39 -58.5 148.5t-60.5 156.5
q-37 0 -99 -19.5t-93 -21.5q-47 33 -92 66q-35 29 -35 113z" />
    <glyph glyph-name="W" unicode="W" horiz-adv-x="2381" 
d="M27 952q57 12 174 27q12 10 12 20q0 2 -27.5 56.5t-27.5 103.5q0 23 7 70t7 69q0 57 -82 140q10 -4 21 -8q16 -10 26 -11q12 0 13 13q0 20 -25 43h78q27 0 43 -14.5t33 -30.5q18 2 38 2q90 0 179 -64q51 -41 143 -142.5t141 -135.5q63 -47 224 -99q178 -55 237 -90
q94 -53 202.5 -182t133.5 -227q14 -53 14 -127q0 -51 -8 -153.5t-8 -154.5q0 -39 4 -75q41 61 51 194q6 104 12 211q31 41 70 132t66 128q47 66 114 94q47 18 193 33q121 14 184 64l98 -23q-20 -70 -88 -108q-41 -23 -137 -46.5t-135 -42.5q-162 -88 -195 -251
q-25 -150 -47 -297q-57 -178 -274 -295q-29 -16 -88 -17q-68 0 -92 -8l-277 23q20 45 107 75q-43 20 -115 31q-96 12 -117 17q2 47 70 79q-6 14 -53 68q-33 39 -33 80q0 18 27 131q-12 27 -41 82h-17q-10 -162 -51 -541q-45 -61 -125 -61q-57 0 -80 22q2 47 84 99
q23 109 23 190q0 160 -49 330q-287 -143 -361 -144q-20 0 -27.5 9.5t-25.5 9.5q-27 0 -74 -68q-43 -55 -55 -90h-66q0 8 -10 27.5t-10 40.5q0 59 61 123q53 55 236 129q156 63 178 131q-4 12 -4 24q0 14 5 42t5 40q0 35 -17.5 97.5t-17.5 93.5q0 57 33 94l-59 45
q-61 -59 -140 -84v-182q-2 72 -24 215q-63 -33 -125 -125q12 45 84 115q-20 45 -72 45q-27 0 -77 -5.5t-74 -5.5z" />
    <glyph glyph-name="X" unicode="X" horiz-adv-x="2430" 
d="M106 31q209 96 300 401q49 164 262 344q205 176 381 213q53 12 137 15l137 4q911 57 911 352q0 55 -133 194h125q88 -78 88 -182q0 -154 -198 -293q-96 -68 -334 -174q-96 -45 -109 -51q-66 -33 -100 -61q-23 -45 -23 -105q0 -45 45 -237q-94 -53 -274 -168h-92
q-6 10 -6 24q0 10 4 27.5t4 27.5q0 27 -35 27q-82 0 -367 -180q-22 -294 -22 -369v-6q0 -102 12 -188q-68 29 -94 84q-18 35 -25 110q-10 84 -22 123q-35 -106 -39 -121q-27 -66 -59 -110q-23 -8 -58 -8q-76 0 -196 141q-127 150 -220 166zM1217 410l26 -29l68 68l-29 26z
" />
    <glyph glyph-name="Y" unicode="Y" horiz-adv-x="2045" 
d="M59 1114q27 78 99 221q12 14 69.5 48t73.5 51q25 25 39 84q20 74 29 90q147 -135 184 -176q86 -92 145 -209q61 80 205 158.5t240 78.5q152 0 254 -139q41 -55 133 -256q61 -139 117 -139q31 0 87 29.5t91 29.5q53 0 108.5 -83t55.5 -140q0 -59 -83 -216t-83 -237
q0 -35 12 -61q-113 66 -113 174q0 74 119 250q-10 16 -14 20q-4 2 -15 0q-16 -4 -30 -4q-113 0 -264 -285q-12 -23 -27 -57q-2 -14 -2 -115q0 -119 10 -217q12 -112 14 -112v2q0 -45 -30 -99q-33 -61 -74 -63h-158q0 47 42 122t42 111q0 166 -71 238q-61 -131 -62 -307
q0 -68 -25.5 -96.5t-95.5 -40.5q-65 33 -65 90q0 10 24 65q33 80 33 182q0 297 0 291q-14 0 -43 12.5t-51 12.5q-154 0 -154 -121q0 -72 42 -207t42 -207q0 -94 -57 -145h-107q2 18 29 70.5t27 89.5q0 106 -115 194q-27 -51 -36 -165.5t-27 -153.5q-31 -68 -119 -68
q-78 0 -117 41q10 31 72 107q47 59 47 118q0 92 -37 338q-20 150 -63 447q-12 66 -150 160q-98 66 -195 131z" />
    <glyph glyph-name="Z" unicode="Z" horiz-adv-x="1773" 
d="M115 -125q0 80 65 139h101q-10 -31 -27 -92l51 -49q121 12 249 152.5t128 261.5q0 20 -70.5 117.5t-70.5 195.5q0 80 10 123q90 31 151 156q47 113 95 223q59 125 141 155q-78 80 -78 181q109 -55 178 -56q33 0 92.5 29t92.5 29q25 0 71.5 -14.5t71.5 -14.5q45 0 90 39
q35 37 72 74v-66v-8q0 -92 -43 -145q-3 -15 19 -59q20 -41 20 -76v-7q-5 1 -10 1q-35 0 -35 -52q0 -172 45 -252q6 -10 82 -92q45 -47 45 -139q0 -248 -228 -332q-102 -37 -436 -61q-16 -20 -110 -158q-66 -98 -127 -137q-78 -51 -218 -121q-172 -88 -219 -88
q-51 0 -124.5 48t-73.5 95z" />
    <glyph glyph-name="a" unicode="a" horiz-adv-x="2308" 
d="M31 -213q23 -2 71 -11t74 -9q195 0 195 260q0 98 -24.5 295.5t-24.5 298.5q0 270 128 395t398 125q84 0 249 -29t249 -29q109 0 167 66q31 35 91 162q53 111 106 182q53 -98 195 -188q133 -84 170 -175v-100q-92 -41 -172 -80q86 -66 86 -143q0 -8 -4 -55q-2 -33 2 -56
q83 -28 304 -28h15q15 -46 31 -138l-1180 25h-8q-30 0 -78 -12q-66 -16 -90 -19q-143 -6 -287 -12q-203 -18 -250 -92v-35q0 -68 25 -199t25 -198q0 -201 -154 -307h-248q-4 47 -61 106z" />
    <glyph glyph-name="b" unicode="b" 
d="M43 928v94q23 -6 54 -6h16q16 1 29 1q26 0 38 -3q45 -45 191.5 -120t201.5 -75q68 0 103 68q-57 35 -113 69q-54 30 -110 30q-10 0 -19 -1q-2 12 -14 45q-10 27 -10 45q0 47 120 121q131 82 152 135q111 -72 244 -211q180 -190 219 -225q133 -119 282 -174
q111 -41 308 -51q160 -8 319 -15q369 528 369 820q37 -37 47 -70q8 -25 8 -84q0 -125 -63 -270q-59 -125 -119 -252q-63 -156 -64 -307q0 -215 25 -273q18 -43 78 -84q2 0 102 -59v-68q0 -27 -33 -71q-39 -51 -45 -72q0 -43 -12 -125q-16 -53 -16 -66l-99 25q70 168 70 244
q0 18 -4 39q-33 -16 -113 -142h-31q-34 30 -34 77q0 15 4 28q-18 8 -137 32q-80 14 -117 74q-6 12 -39 103q-25 61 -64 86q-45 25 -174 28q-141 4 -194 25q-84 33 -312 170q-188 115 -321 143q-139 27 -275.5 54.5t-226.5 78.5q-109 61 -221 189z" />
    <glyph glyph-name="c" unicode="c" horiz-adv-x="1255" 
d="M78 1311q0 29 57 82q39 37 80 73q20 20 37 64q14 35 29 69q100 -172 129 -217q84 -125 165 -186q27 -18 121.5 -37.5t130.5 -50.5q106 -92 148 -221q31 -100 31 -264q0 -291 -23 -398q-18 -70 -35 -137q-20 -80 -20 -139q0 -86 20 -119q29 -47 113 -47q39 0 55 18
q-33 -94 -92 -94q-41 0 -147 62q-27 74 -27 174q0 70 22.5 207t22.5 206q0 84 -39 117q-31 8 -197 12q-131 2 -176 43q23 14 154 60q-68 37 -201 123q-16 -35 -16 -125q0 -72 8 -82q-6 -10 -47 -10t-109 8q0 23 28 50.5t50 37.5q4 51 4 94q0 111 -26 174q-10 20 -90 148
q-14 23 -20.5 83t-29.5 89q-2 2 -69 59q-41 35 -41 74z" />
    <glyph glyph-name="d" unicode="d" horiz-adv-x="3577" 
d="M76 537v110q49 12 94 12h-5q0 -1 91 -8q68 45 135 90q94 61 137 74q127 33 381 33q123 0 164 -25q82 84 166 168q117 113 174 144q51 23 152 67q213 104 243 115q129 49 265 49q27 0 151 -18l338 -56q144 -24 174 -24h2q16 0 192.5 57t211.5 72q51 23 118 65
q57 39 113 76q-27 -61 -27 -119q0 -51 34 -145.5t34 -147.5q0 -57 -33 -149q-27 -74 -53 -148q-40 -28 -85 -28h-3q-37 0 -84 18q-78 29 -82 31q-31 -31 -61 -92q-43 -84 -52 -99v-73q0 -31 184.5 -279t184.5 -282v-84q-33 -23 -65 -29q-207 211 -345 311q-186 135 -411 207
q-55 -72 -99 -231q-40 -146 -40 -247q0 -13 73 -75q-8 -35 -33 -63l-190 26q-8 88 -8 195q0 68 5 202t5 199q-25 12 -68 43q-86 -14 -208 -94q-47 -123 -195 -367q0 -74 25 -114q14 -25 59 -62q53 -41 82 -80h174q16 -20 16 -49t-18 -49h-444q-57 0 -287 232q6 33 6 69
q0 223 -160 447q-173 239 -387 239h-2q-156 0 -426 -131q6 -45 -137 -45q-23 0 -62.5 2t-58.5 2z" />
    <glyph glyph-name="e" unicode="e" horiz-adv-x="2095" 
d="M47 -199q0 195 346 195q43 0 129 -6t129 -6q29 0 33 6q12 20 31 147q10 82 22 162q16 106 47 178q84 207 281 350q20 14 133 56q82 31 113 90q59 115 80 313q12 162 26 326q6 0 42 -38t63 -48q199 -76 307 -76q25 -23 28 -31t3 -47v-84q-49 -35 -101 -69q-63 -49 -63 -86
q0 -18 57 -111q66 -104 75 -122.5t9 -121.5q0 -129 -83 -228t-83 -183q0 -45 25.5 -132.5t50.5 -132.5q35 -67 160 -118q-41 -88 -129 -88q-68 0 -129 84l-82 139q-49 84 -97 131q-135 -98 -200 -221q25 -12 57 -13q39 0 123 21q57 -53 57 -82q0 -27 -30 -57
q-115 0 -341.5 -2t-338.5 -2q-76 0 -227.5 3t-227.5 3q-59 0 -102 -21q-52 -26 -52 -73v-5v-10q55 -55 56 -67q0 -18 -66 -62q-31 8 -81 59.5t-50 79.5z" />
    <glyph glyph-name="f" unicode="f" horiz-adv-x="4265" 
d="M82 1147q0 100 145 246l291 -37q-31 -31 -108.5 -70t-108.5 -72l100 -96h265q25 0 159 41q180 59 361 117q283 90 330 90q23 0 176 -18l417 -45q184 -18 226 -19q29 0 209 21l395 47q123 14 147 14q43 0 129 -14.5t129 -14.5q125 0 287 48.5t264 115.5v-16v-6
q0 -89 53 -161q54 -75 111 -144q57 -83 92 -179q-76 -92 -129 -127q-74 -49 -172 -49q-33 0 -96.5 13.5t-93.5 13.5q-178 0 -250 -266q-104 -59 -223 -60q-88 -84 -113 -190q-16 -68 -16 -224v-32q78 -53 245 -234h-364q-43 0 -57 21q-29 45 -33 47q-53 12 -301 12
q-25 23 -51 45q-33 33 -37 55q45 31 118 50q63 16 125 30q-63 113 -184 338h-72q10 0 -333 -24q-82 0 -242 -15q-94 -18 -232.5 -109t-197.5 -171q-53 -6 -78 -29v-125q164 -111 297 -133v-102h-279q-59 0 -215 164q-131 141 -184 225q2 37 37 119q41 98 47 122
q-176 23 -180 23q-84 0 -170 -82q-25 -23 -142 -166q-86 -102 -149 -135l-152 33l7 69q78 82 173 245t156 226q104 111 267 158l-27 146q-369 10 -385 12q-229 23 -354 129q-2 18 -15.5 61t-13.5 68z" />
    <glyph glyph-name="g" unicode="g" horiz-adv-x="1630" 
d="M61 1239q12 25 23.5 77t21.5 75h146q104 104 203 104q27 0 47 -20q27 45 58.5 91t68.5 72q10 -72 78 -245q57 -154 57 -250q0 -94 -47 -170q23 -61 127 -62q16 0 49 2t49 2q37 0 112.5 -22.5t106.5 -40.5q100 -59 172 -268q66 -184 66 -324q0 -45 -6 -82q72 -68 88 -90
q35 -47 35 -119q0 -117 -117 -211q-111 -86 -232 -86q-29 0 -82 10.5t-81 10.5q-76 0 -158 -41q-23 31 -27 55q25 25 103 60q-11 11 -52 11q-12 0 -26 -1q-10 41 -41 123q-160 0 -238 39q-45 -55 -141 -164h-172q-23 14 -68 47q12 37 23 115h106q16 23 70.5 132t54.5 121
q0 14 -45 15q-53 0 -74 -15q-53 -39 -53 -38q12 -18 41 -56v-90q-47 -43 -96 -47q-33 31 -71 98.5t-38 106.5q0 61 103 215q-37 70 -72 139q-51 102 -51 137q0 43 36 125t66 115v117q0 61 -123 227z" />
    <glyph glyph-name="h" unicode="h" horiz-adv-x="2416" 
d="M76 1559h133q68 -80 154 -224.5t135 -206.5q90 -106 221 -176q162 -6 547 -53q227 -29 270 -29q74 0 184 13q162 18 185 20q66 0 194 12q84 16 283 175q4 -10 94 -172q57 -105 84 -181l-86 -84h-217q-57 -84 -117 -168q-68 -102 -92 -178q125 -127 256 -368q2 -18 2 -33
q0 -61 -55 -96q-57 129 -123 205.5t-182 150.5q-31 18 -60 47q-39 -102 -39 -170q0 -135 127 -225h-176q-10 287 -145 508h-529q-20 -49 -85.5 -126t-88.5 -120v-100q76 -63 219 -201h-172q-4 39 -98 121q-66 53 -131 106q35 102 35 182q0 68 -23 136q-145 -90 -198 -129
q-109 -78 -181 -154v-25q0 -119 72 -194h-8q-129 0 -172 37v258q0 43 106 168q125 152 138 174q33 59 51 172q23 143 35 180q-106 125 -277 373q-180 264 -270 375z" />
    <glyph glyph-name="i" unicode="i" horiz-adv-x="1236" 
d="M121 1430l123 -27l116 119h295q57 0 414 -389q2 -4 27 -105q16 -63 16 -106q0 -14 -63 -236q-84 -294 -84 -499v-9v-12q25 -25 51 -49q31 -33 33 -56h-43q-29 2 -45 2q-96 0 -97 -18q0 16 10 -39q-169 -65 -271 -65h-3q-119 0 -172 30q-18 -10 -20 -39l79 -79h400l94 88
q41 -41 41 -107l-68 -67h-555q-47 0 -94 45q-35 41 -69 79q28 79 28 180v7q0 82 -17.5 242.5t-17.5 240.5q0 84 5.5 123t99.5 147q92 102 135 123l-51 41h-74q-49 -25 -145 -80q37 37 123 97l-46 41q-70 -70 -114 -72q18 0 102 88q-43 66 -82 176q-61 182 -61 185zM516 1059
h49v78h-49v-78z" />
    <glyph glyph-name="j" unicode="j" horiz-adv-x="1329" 
d="M88 28q22 38 52 38h3h74q-86 -45 -86 -127q0 -92 105 -152q78 -45 135 -45q53 0 161 53q117 59 144 113q0 20 -55 39q-98 117 -115 139q-49 74 -49 147q0 27 35 76q39 57 45 80q18 72 32 297q12 203 47 291q74 190 244 487q25 -35 51 -86q31 -8 53 -8q19 0 31 6
q14 -27 47 -59q16 -18 35 -35q23 -66 23 -45q6 -25 6 -45q0 -47 -48 -85t-54 -91q66 -180 79 -428q-1 -10 -1 -22q0 -44 12 -109q82 -172 82 -213q0 -37 -24 -103.5t-50 -109.5q-47 -72 -195 -121q-23 -8 -51 -43q-35 -39 -55 -51q-86 -53 -226 -99q-125 -39 -172 -39
q-111 0 -219 76q-118 85 -118 195q0 39 22 79z" />
    <glyph glyph-name="k" unicode="k" horiz-adv-x="913" 
d="M119 1253q59 33 174 105q-10 25 -47 61.5t-49 59.5h12q77 0 143 46q70 50 84 132l47.5 -47.5t34.5 -48.5q25 25 117 67q-59 -29 -109 -78l31 -28q27 27 80 47q66 23 86 35q-57 -35 -88 -56q-66 -45 -70 -65l8 -4q35 0 70 24q49 37 62 41q-14 -12 -62 -47q-33 -23 -57 -63
q117 -186 131 -215q65 -129 65 -238q0 -238 -2 -266q-16 -184 -88 -244q-12 -10 -46 -19.5t-56 -37.5q-12 -31 -101 -219q-79 -168 -79 -194q0 -99 55 -151q68 -59 80 -110h-5q-106 0 -186 84q-82 86 -82 196q0 92 66 187q25 37 131 155q-14 29 -127 101q-104 63 -123 149
q-24 118 -24 220v8q0 195 178 383v49q-20 2 -39 22q-10 12 -10 2q0 -23 -50 -63q-35 -27 -69 -53q39 43 117 127q-8 -2 -175 -97q57 47 183 129q-72 -27 -211 -86z" />
    <glyph glyph-name="l" unicode="l" horiz-adv-x="1419" 
d="M39 895q0 266 231 369q-10 8 -26 8q-43 0 -64 -39q92 270 178 270q20 0 21 -6q0 -2 -2 -9t-2 -13q0 -4 2 -11q31 47 102 115q-2 -31 -29.5 -90t-27.5 -62q0 -8 12 -20l58 57q31 -16 79 -57q59 -51 60 -72q0 -8 -33 -35q31 -12 78 -61q-23 -8 -23 -25q0 -14 23 -34
q-25 0 -43.5 -19.5t-18.5 -42.5q-23 12 -70.5 19.5t-68.5 17.5l-51 -45q45 -12 78 -106q49 -135 49 -138q14 12 12 56h62q27 0 65 -37q31 -27 60 -56q164 -123 243 -256q80 -156 158 -311q27 -53 57 -334q-47 -20 -47 -37q0 -16 53 -14q-10 -55 -80.5 -103t-127.5 -48
q-68 0 -203 -8.5t-201 -8.5q2 47 35 84q-6 8 -21 8q-20 0 -64 -7t-67 -7v72q35 -2 68 -2q76 0 143 16l-157 109q2 31 10 94t8 98q0 39 -6 74q-25 -74 -39 -160q-12 -76 -27 -151q-23 -88 -79 -125q35 -35 36 -64l-161 16q25 0 35 25t18 47q29 63 61.5 239.5t32.5 250.5
q0 16 -6 16l-10 -5q-11 -5 -19 -5q-14 0 -31 12q-14 -113 -51 -281q-59 -258 -63 -278l-150 22q18 29 21 52h96q0 29 8 91t8 95q0 334 -55 477q-27 68 -66.5 122t-50.5 83q-20 55 -20 168zM518 1294l17 -26l59 47l-19 24zM657 -188h154q-39 8 -63 57q-23 43 -23 88
q-4 -43 -6 -88q-10 -43 -62 -57z" />
    <glyph glyph-name="m" unicode="m" horiz-adv-x="3082" 
d="M86 676v78q29 -2 55 -2q63 0 109 14q-31 29 -78 94q-18 41 -36.5 126t-18.5 128q0 195 168 320q-16 23 -35 82l39 38h739q31 -29 31 -53l-27 -67q74 -45 131 -156q51 -106 51 -197q0 -121 -133 -327h172q18 16 7 45q44 73 104 73h2q45 0 133 -25.5t135 -25.5q55 0 99 47
q6 37 -35 37q-12 0 -31.5 -7t-30.5 -9q-8 8 -8 20q0 18 21 39q-20 18 -67.5 47t-65.5 47q33 117 71 175q8 12 74 51q0 18 45 104l66 -67q31 63 69 100q37 -55 92.5 -99t71.5 -75q27 -51 29 -162q41 -20 98 -88t94 -88q16 -10 133 -57q387 -160 387 -387q0 -25 -5 -75t-5 -77
q0 -39 8 -76q55 14 104.5 79t49.5 122q0 35 -34 104.5t-34 104.5q0 41 34 83t75 42q42 0 108 -76q-4 -4 -59 -31q-41 -20 -41 -43q0 -41 42 -125t42 -125q0 -55 -74.5 -140t-132.5 -105q-29 -10 -97.5 -19.5t-103 -24t-77.5 -65.5q-49 -53 -49 -86q0 -25 26 -53
q20 -25 41 -47q-20 -43 -84 -97q-53 -39 -104 -77l-144 20q10 20 54 55q31 25 63 50v81q-47 27 -113 78q-6 8 -24 92q-14 55 -72 56q-31 0 -64.5 -42t-68.5 -42q-25 0 -131 61q-127 70 -143 78q29 61 90 61q43 0 88 -51h39q6 2 6 29q0 23 -11.5 68t-13.5 67q37 18 77 36.5
t40 57.5q0 80 -96 125q-82 27 -164 56q-23 8 -80 49q-38 30 -89 30h-3q-16 0 -46 -2t-44 -2q-51 0 -102.5 35t-73.5 35q-33 0 -68 -48t-35 -83h-80v78h-923q-13 -11 -13 -69v-9q-72 0 -75.5 1t-1.5 11q0 53 -68 72zM168 1260h979l-74 90q-57 68 -57 88q0 14 9 39.5t9 38.5
q0 12 -6 22h-741l-21 -41q0 -18 15.5 -44t13.5 -36q-45 -49 -127 -157zM254 1024q16 0 46 15.5t50 15.5t58 -24.5t59 -24.5q23 0 84.5 37t81.5 57q-8 2 -103 33q-65 22 -95 22h-3q-18 0 -37.5 -24.5t-36.5 -24.5q-25 0 -52 16.5t-52 32.5v-131z" />
    <glyph glyph-name="n" unicode="n" 
d="M51 -182q0 57 195 164q121 66 258 122q-25 27 -92 27q-39 0 -51.5 -8t-18.5 -45q2 35 -23 49q-25 -16 -24 -66q-4 61 -49 91t-90 61q-27 -2 -35 -2q37 12 47 41q-20 18 -68 18q61 6 76 39q4 14 4 90q0 45 80 140q55 68 113 135q18 10 61 22q0 -12 -7 -36.5t-7 -36.5
q0 -14 8 -27q47 0 90 28.5t82 55.5q-6 -29 -14 -86q27 -14 59 -14q209 0 334 55q33 14 98 90q78 88 101 106q152 117 288 117q23 0 65 -3t62 -3q57 0 93 12q47 14 92 117q57 125 75 146q57 63 166 147q119 94 185 117q12 4 55 4q51 0 212 68.5t224 68.5q29 0 60.5 -16
t31.5 -43q0 -104 -131 -193q-106 -72 -229 -96q-45 0 -133 -10q-63 -16 -137 -78q-18 -16 -117 -113q-82 -78 -260 -196q74 -6 155 -86q51 -47 136.5 -162t121.5 -150q8 2 30 18.5t42 16.5q27 0 97.5 -34t97.5 -34q12 0 36.5 8.5t38.5 8.5q43 0 101 -57q-20 -53 -43 -74
t-76 -21q-29 0 -100.5 27t-75.5 27q-12 0 -25 -39l68 -35q-27 -80 -109 -80q-100 0 -137 68q-106 -35 -227 -35q-51 0 -85 25.5t-54 25.5q-16 0 -47 -8t-46 -8q-111 0 -163 118h-46q-14 -16 -155 -184q-96 -113 -178 -164q-31 -18 -100.5 -31.5t-100.5 -29.5
q-53 -29 -135 -142q-266 -4 -371 -43q-27 -10 -102 -82q-68 -63 -101 -63q-20 0 -35.5 8t-18.5 10t-3 72q0 27 -18 27q-12 0 -32 -7.5t-30 -9.5q-14 12 -26.5 23.5t-12.5 36.5zM201 -172l8 -25l94 56l-10 22z" />
    <glyph glyph-name="o" unicode="o" horiz-adv-x="3713" 
d="M92 109q0 66 19 161q16 80 32 162q6 35 41 90q37 63 47 90l-69 78q100 -33 100 -110q0 -35 -26.5 -96.5t-30.5 -92.5q23 -8 104 -14q188 -16 279 -141q57 51 112 159l72 -67l49 43q0 -39 21 -101q14 -49 30 -100q-111 -20 -182.5 -119.5t-71.5 -214.5t72 -194h-88
q-20 76 -65 225q-133 -78 -134 -178q0 -25 9 -47h-88v71q0 41 112 209q-35 37 -76 37q-71 -48 -71 -155q0 -26 4 -52q-27 27 -43.5 65t-30.5 72q-22 -67 -22 -116q0 -86 55 -131h-86q-25 117 -47 231q-27 141 -27 236zM926 356v179q63 -117 168 -117q150 0 348 78
q59 23 317 145q164 78 232 78q18 0 52 -12.5t50 -12.5q35 0 105 35q90 45 104 49q-68 102 -207 301q61 -2 103 -39q-6 27 -11 64q18 -18 56 -19q33 0 32 11q0 4 -7 17t-7 17q25 -14 84 -67q43 -41 102 -55q137 -160 166 -189q98 -100 203 -147q8 14 8 35q0 16 -8 52t-8 50
q0 33 69 160q84 156 91 172q-16 18 -89 18q0 43 -24.5 129t-24.5 131q0 113 56 156q49 41 163 41q29 0 68 -25q49 -29 68 -32q43 -57 43 -117q0 -35 -20.5 -97.5t-20.5 -97.5q0 -12 2 -22q77 114 146 114h1q63 0 88 -6q35 -10 74 -47v-76q0 -31 -90 -184
q-117 -201 -164 -307q-90 -195 -90 -328q0 -201 41 -612h-248q4 16 4 31q0 81 -130 81h-3q-98 0 -297 -12t-297 -12q-18 -18 -18 -97v-16h-224q0 41 10.5 119t10.5 117q-137 88 -197 176q-37 -39 -153 -125q-131 -96 -183 -143q-90 -84 -100 -150q4 -2 8 -29q4 -29 0 -28
q-2 0 -6 4q-2 18 -2 53q-6 8 -22 8q-18 0 -95 -34.5t-137 -34.5q-16 0 -33 2q311 272 596 630q2 39 -14 54q-57 -14 -171 -27.5t-169 -28.5q-41 -8 -141.5 -79.5t-124.5 -71.5q-29 0 -54.5 13.5t-33.5 13.5q0 18 43 59q0 16 -37 55q-25 25 -51 49z" />
    <glyph glyph-name="p" unicode="p" horiz-adv-x="3178" 
d="M47 1077q49 39 143 123h80q37 -37 72 -110q47 -96 61 -119q72 72 72 135q0 35 -32.5 93t-32.5 89q0 33 30 72q27 31 52 63q33 35 69 35q27 0 76 -2t72 -4q23 -55 45 -113q28 -70 28 -111q0 -23 -12 -59t-12 -55q-39 -16 -76 -33q-49 -23 -61 -51q39 -33 133 -196
q78 -135 153 -162q276 145 277 305q0 29 -8 59q18 -2 55 -43q16 16 16 58v10q121 -59 150 -113q57 29 162 60q125 39 163 53v-109q-57 -20 -274 -182q0 -6 -7 -25.5t-7 -29.5q0 -12 8 -21q18 0 55 12.5t55 12.5q72 0 625 -369q55 9 168 19q-29 -88 -166 -273h-117
q-33 0 -87 36t-62 36q-12 0 -27 -14q47 -80 162 -226q-2 -25 -24.5 -67.5t-22.5 -69.5q84 -41 115 -104h-316q-14 27 -246 432q-14 -39 -14 -111q0 -76 23 -346h-226v94q-104 8 -229 8q-86 0 -258 -6t-258 -6q-43 -43 -43 -112l-225 24q27 127 90 580zM2394 193v73
q0 27 25.5 66t25.5 63l52 -45l71 68q47 -96 113 -160q121 127 203 152q14 4 178 4q-39 106 -70 276l113 23l-68 -78q25 -43 47 -86q29 -53 37 -94q53 -265 53 -324q0 -92 -26 -235q-41 -209 -45 -234h-86q2 18 45 59l-15 191q-14 -37 -26 -76q-16 -49 -43 -61q-12 14 -12 55
q0 14 2 45t2 45q-59 61 -82 62q-25 0 -58 -35q25 -35 58 -101q39 -76 55 -102v-80h-88q-2 31 20 53q-49 76 -63 95q-39 49 -82 77q-10 -63 -20 -129q-20 -96 -56 -96h-76q70 80 70 191q0 115 -71.5 209t-182.5 129z" />
    <glyph glyph-name="q" unicode="q" horiz-adv-x="4159" 
d="M102 563q61 76 183 158q182 125 198 137q109 86 277 297t270 295q59 49 224 101.5t247 52.5q98 0 484 -103q350 -96 495 -149q41 -16 279 -150q193 -110 261 -110h1q33 0 94 17t94 17q47 0 152.5 -51t154.5 -51q70 0 197 66q-2 -106 -131 -226l25 -354q33 29 96 88
q-18 -20 -43 -68.5t-41 -68.5q63 -63 119 -68q-25 -1 -47 -1q-84 0 -121 18l-56 -56q33 -57 224.5 -171.5t255.5 -114.5h82q57 -2 81 -2l39 -158q-139 -78 -270 -78q-61 0 -540.5 256t-538.5 256h-297q-8 -6 -45 -16q-12 -4 -13 -54q0 -100 74 -196q117 -150 127 -172h-364
q-18 47 -37 182t-41 197q-39 96 -121 127h-299q-20 -20 -22.5 -26.5t-2.5 -92.5q63 -59 183 -98q168 -57 196 -72q-125 -113 -166 -141q-109 -82 -192 -82q-76 0 -301 116q-170 88 -297 170q74 88 74 185q0 111 -138 313q-174 258 -194 307q-119 -160 -375 -321
q-268 -172 -451 -189q-8 45 -43 84z" />
    <glyph glyph-name="r" unicode="r" horiz-adv-x="2183" 
d="M137 150q0 84 41 311q45 240 76 295q18 33 137 96q25 14 78 61.5t88 59.5q59 20 223 43q148 22 224 22h6q23 0 59.5 -14t54.5 -16q16 96 31 274q16 193 29 274q72 -68 202 -213q41 -2 160 -18q100 -14 160 -14q91 0 281 190q-27 -133 -78 -401q-10 -80 -35 -242
q-12 -55 -176 -170q-8 -59 -8 -133q0 -229 84 -231v-95q0 -63 -181 -198q-152 -115 -245 -160q-59 -23 -119 -47q-76 -31 -109 -62q-381 -90 -532 -90q-76 0 -228 80q-158 84 -178 150q-45 133 -45 248z" />
    <glyph glyph-name="s" unicode="s" horiz-adv-x="1728" 
d="M20 -113q0 61 46 111q27 29 97 79t95 79q-35 248 -35 344q0 68 8 106q29 168 212.5 313.5t355.5 145.5q53 0 90 -21q47 82 47 136q0 39 -37 85t-37 78v89q27 -2 80 -20.5t82 -18.5q59 0 186 73q145 82 195 172q66 -129 74 -252q47 -59 51 -71q8 -18 8 -92q0 -94 -12 -125
q-18 -45 -92 -86q39 -27 77 -56q25 -25 25 -96q0 -35 -31 -100q-23 -49 -47 -98q-26 -59 -26 -260v-15q0 -88 22 -133q27 -53 100 -94v-94q-74 -45 -151 -46q-23 0 -100 41q-10 -20 -39 -55q-20 0 -58.5 -13t-58.5 -13q-31 0 -45.5 20t-28.5 41q-215 -57 -401 -57
q-111 0 -209 22q-41 -25 -240 -125v-51q45 -29 187 -51q111 -18 182 -113q-31 6 -70 6q-41 0 -123 -10t-123 -10q-84 0 -170 75.5t-86 159.5zM1243 262l43 -145h31l-43 145h-31z" />
    <glyph glyph-name="t" unicode="t" horiz-adv-x="2105" 
d="M100 1569q0 31 19 30q-14 -1 -14 -2q0 -2 73 -2q35 -25 88 -88v-536q0 -29 18.5 -56.5t34.5 -54.5l142 105q109 78 153 90q37 12 181 12q166 0 243 -31q35 -14 189 -118q143 -98 166 -99q47 0 204 121q125 98 195 166q74 -66 76 -148q68 -23 137 -116q53 -78 104 -156
q-37 -74 -110 -113q-12 2 -68 64h-71q-20 -51 -21 -68q0 -18 25 -47q-62 -71 -112 -71h-1q-14 0 -41 10t-41 10q-31 0 -35 -8q-10 -14 -18 -29q-39 -123 -125 -180q-16 -12 -74.5 -17.5t-87.5 -35.5q-43 -43 -102 -168q-59 -131 -60 -187q0 -23 45 -69q47 -53 56 -80
l-238 -25l-49 25q-2 18 -2 43q0 53 22.5 155.5t22.5 155.5q0 90 -59.5 173t-145.5 83q-184 0 -184 -297q0 -109 57 -211q39 -12 121 -32q25 -17 25 -63v-7q-51 -25 -172 -25q-33 0 -150 6q-63 156 -131 439q-12 59 -45 178q-2 10 -31.5 41t-36.5 61q-10 96 -53 285
q-6 14 -57 106q-39 74 -39 105v569q0 18 -11.5 53t-11.5 54z" />
    <glyph glyph-name="u" unicode="u" horiz-adv-x="1466" 
d="M55 1276q33 0 101.5 -5t103.5 -5q98 0 98 88q0 20 -17 64t-17 71q0 57 57 113q6 -6 47 -76q33 -55 55 -56h150q37 0 65 33q4 4 47 62q55 -74 56 -113q0 -27 -37 -80t-37 -78q0 -12 7 -35.5t7 -35.5l215 -11q-6 -1 -33.5 -1t-76.5 1h-23q-64 0 -78 -10q43 -33 191 -119
q-25 2 -86.5 37t-95.5 35q-33 0 -58.5 -39t-25.5 -74q0 -49 44 -141t44 -141q0 -14 -5 -40t-5 -38q0 -27 24 -76q37 -66 39 -71q12 -33 66.5 -246t54.5 -242q0 -63 -72 -121l-115 -92q25 -18 72 -18q59 0 177 26.5t180 26.5q92 0 198 -41q123 -47 154 -117q-8 -23 -29 -43
h-4q-27 0 -93 26q-70 28 -120 27q-111 0 -329 -28.5t-328 -28.5q-80 0 -128.5 28.5t-99.5 96.5q-199 43 -258 141q-8 12 -20 86q-8 45 -60 64q29 86 136 344q90 213 124 348q20 29 -10 29q-23 0 -32 -8.5t-13 -6.5q10 37 51 93.5t54 83.5q8 20 8 143q0 70 -47 98
q-27 -8 -80 -8q-35 0 -101.5 2t-80.5 2q86 0 251 39q-88 10 -262 37z" />
    <glyph glyph-name="v" unicode="v" horiz-adv-x="927" 
d="M70 1430q0 20 4 58t4 56q12 -6 61 -43q39 -31 66 -31q72 0 153 41q25 12 62 53.5t57 55.5q16 -39 31 -98q18 -88 21 -98.5t24 -59.5q12 -35 12 -59q0 -25 -10 -72t-10 -72q0 -86 117 -129q-2 -12 -3 -24q0 -70 62 -215q45 -106 92 -213q73 -183 98 -347q-18 -6 -100 -86
q-104 -104 -160 -147q-102 -78 -173.5 -78t-125.5 -65q0 -18 33 -39q41 -2 123 -31t125 -29q23 0 64.5 16.5t64.5 16.5q-33 -127 -129 -127q-23 0 -76 28.5t-82 28.5q-18 0 -52 -9t-50 -9q-59 0 -129 39q-76 45 -76 100q0 57 106 111q76 37 154 74q-37 6 -109 36
q-61 43 -169 189q16 16 34.5 57t32.5 56q-18 80 -18 139q0 66 40 145.5t40 104.5t-29 72.5t-29 80.5q0 23 8 72q8 43 9 70l-2 18q-23 29 -70 68q-57 51 -74 65q35 57 35 90q0 10 -2 19q-55 47 -55 121z" />
    <glyph glyph-name="w" unicode="w" 
d="M43 1411v137q23 12 51 13q39 0 114 -21.5t114 -21.5q115 0 350 157q-2 -23 -2 -45q0 -109 77.5 -211t77.5 -182q0 -59 -22 -137q86 -55 256 -132t246 -128q125 -84 202 -215q27 -43 56 -201q33 -170 61 -238q51 -114 141 -114h2q117 0 350.5 41t352.5 41q84 0 235 -52
q126 -41 226 -90q-264 -111 -621 -131q-367 -20 -901 -59q-434 -31 -498 -31q-70 0 -100 12q-45 16 -72 68q-66 -70 -92 -88q-49 -33 -125 -33q-147 0 -198 53v9q0 40 32 94q35 53 76 80q12 25 12 59q0 121 -149 358q-74 115 -133 250q-74 172 -74 271q0 45 14.5 134
t14.5 136q0 133 -74 217z" />
    <glyph glyph-name="x" unicode="x" horiz-adv-x="2443" 
d="M53 61q8 4 19 5q33 0 71 -23q49 -115 72 -147q53 -76 133 -76q180 0 240 4q174 14 207 70q45 385 61 464q45 236 145 390q121 184 355 309q29 16 114 24q76 6 115 41q47 43 121 176q70 121 139 172q29 20 113 54q74 29 108 61q0 -35 13 -82q66 -51 110.5 -150.5
t44.5 -187.5q0 -18 41 -61q27 -28 56 -57q-125 84 -140 84q-1 0 -2 -1q10 -29 39 -71q23 -33 45 -68l-88 78h-65q-41 0 -76 -111q-18 -74 -38.5 -148.5t-47.5 -119.5q-12 4 -25 4q-47 0 -121 -100q-49 -72 -98 -143q-57 -80 -57 -220q0 -14 4 -145q2 -35 2 -65q0 -45 -4 -78
q24 -19 93 -19h7q-12 -41 -26 -123h-199q0 45 10 139.5t10 143.5q0 35 -12 57q-12 -53 -20.5 -168.5t-22.5 -171.5q-209 -18 -608 -39q-324 -16 -418 -16q-303 0 -387 86q-10 147 -33 229zM1225 365h198v45h-198v-45zM1479 264q4 -35 31.5 -72.5t27.5 -44.5l8 41q4 20 4 46
q0 18 -2 38q-6 72 -6 82q-27 -33 -63 -90z" />
    <glyph glyph-name="y" unicode="y" horiz-adv-x="1343" 
d="M133 1159q47 41 76 139q24 83 24 156v6q0 29 -4 53q41 -29 127 -79q37 37 37 161q123 -43 250 -335q10 -33 37 -97q6 -16 73.5 -57t82 -62.5t30.5 -76.5q14 -47 37 -68q233 -229 258 -260q129 -160 129 -332q0 -162 -76 -256q-66 -82 -225 -151q-84 -33 -254 -101
q0 -18 37 -37.5t47 -37.5q-25 -51 -82 -52q-63 0 -143 90q39 90 160 154q104 47 209 94q-51 25 -142 51q-115 35 -143 45q6 55 22 68q10 10 60 10q23 0 39 13q-14 23 -33 90q-16 59 -39 82q-2 -4 -47 -133q-31 -92 -86 -93q-55 0 -102 47q6 23 64 88.5t58 90.5q0 27 -51 133
q-66 137 -65 139q-16 41 -19 102q-2 53 -2 107q-2 41 -35 104q-35 72 -67 84q-25 4 -76 21q-82 29 -166 100z" />
    <glyph glyph-name="z" unicode="z" horiz-adv-x="1769" 
d="M186 1382q98 92 115 127q8 45 33 129q72 -35 143 -69q82 -41 134.5 -85t123.5 -155q88 -133 121 -172q76 -86 160 -108q53 -4 147 -35q219 -131 387 -414q170 -289 170 -539q0 -57 -24.5 -170.5t-46.5 -175.5q-272 -84 -738 -84q-80 0 -174 15q-121 18 -162 51v115
q86 86 132 86q27 0 36 -11q2 -2 23 -30q16 51 16 174q0 326 -30 405q-20 47 -123 129q-143 113 -150 119q-135 131 -135 266q0 47 25 84q-37 45 -103 51q-149 14 -149 120q0 107 69 177zM918 -170q0 -31 8 -53q24 10 75 22q-35 74 -69 191q0 -27 -7 -80t-7 -80z" />
    <glyph glyph-name="uni00A0" unicode="&#xa0;" horiz-adv-x="1368" 
 />
    <glyph glyph-name="uni2000" unicode="&#x2000;" horiz-adv-x="837" 
 />
    <glyph glyph-name="uni2001" unicode="&#x2001;" horiz-adv-x="1675" 
 />
    <glyph glyph-name="uni2002" unicode="&#x2002;" horiz-adv-x="837" 
 />
    <glyph glyph-name="uni2003" unicode="&#x2003;" horiz-adv-x="1675" 
 />
    <glyph glyph-name="uni2004" unicode="&#x2004;" horiz-adv-x="558" 
 />
    <glyph glyph-name="uni2005" unicode="&#x2005;" horiz-adv-x="418" 
 />
    <glyph glyph-name="uni2006" unicode="&#x2006;" horiz-adv-x="279" 
 />
    <glyph glyph-name="uni2007" unicode="&#x2007;" horiz-adv-x="279" 
 />
    <glyph glyph-name="uni2008" unicode="&#x2008;" horiz-adv-x="209" 
 />
    <glyph glyph-name="uni2009" unicode="&#x2009;" horiz-adv-x="335" 
 />
    <glyph glyph-name="uni200A" unicode="&#x200a;" horiz-adv-x="93" 
 />
    <glyph glyph-name="uni202F" unicode="&#x202f;" horiz-adv-x="335" 
 />
    <glyph glyph-name="uni205F" unicode="&#x205f;" horiz-adv-x="418" 
 />
    <glyph glyph-name="uni25FC" unicode="&#x25fc;" horiz-adv-x="1587" 
d="M0 0v1587h1587v-1587h-1587z" />
  </font>
</defs>
</svg>
