<?xml version="1.0" standalone="no"?>
<!DOCTYPE svg PUBLIC "-//W3C//DTD SVG 1.1//EN" "http://www.w3.org/Graphics/SVG/1.1/DTD/svg11.dtd" >
<svg>
<metadata>
Created by FontForge 20120731 at Fri Mar  9 02:34:07 2018
 By www-data
COPYRIGHT ESSELTE LETRASET LTD., 1990. Portions copyright Microsoft Corporation 1999. All Rights reserved.
</metadata>
<defs>
<font id="BickleyScript" horiz-adv-x="500" >
  <font-face 
    font-family="Bickley Script"
    font-weight="400"
    font-stretch="normal"
    units-per-em="2048"
    panose-1="3 2 2 2 4 6 7 10 9 3"
    ascent="1638"
    descent="-410"
    x-height="439"
    cap-height="1253"
    bbox="-516 -673 2432 1536"
    underline-thickness="102"
    underline-position="-289"
    unicode-range="U+0020-F002"
  />
<missing-glyph horiz-adv-x="1024" 
d="M128 0v1090h768v-1090h-768zM256 128h512v834h-512v-834z" />
    <glyph glyph-name=".notdef" horiz-adv-x="1024" 
d="M128 0v1090h768v-1090h-768zM256 128h512v834h-512v-834z" />
    <glyph glyph-name="glyph1" horiz-adv-x="0" 
 />
    <glyph glyph-name="glyph2" horiz-adv-x="403" 
 />
    <glyph glyph-name="space" unicode=" " horiz-adv-x="403" 
 />
    <glyph glyph-name="space" unicode="&#xa0;" horiz-adv-x="403" 
 />
    <glyph glyph-name="exclam" unicode="!" horiz-adv-x="460" 
d="M650 1073q0 -11 -23 -36q-125 -137 -220 -330q-124 -254 -126 -417q0 -10 -10 -10q-12 0 -12 17q0 76 43 230q47 167 125 327q55 112 98 187q79 49 107 49q18 0 18 -17zM285 193q0 -12 -17 -86q-17 -77 -19 -107q-38 -26 -51 -26q-21 0 -21 32q0 60 36 163q43 40 57 40
q15 0 15 -16z" />
    <glyph glyph-name="quotedbl" unicode="&#x22;" horiz-adv-x="324" 
d="M455 774q0 -28 -85 -136l-44 -56q-3 -3 -12 -15l-15 7q24 74 88 211q14 22 37 22q31 0 31 -33zM322 773q0 -30 -84 -135l-45 -56l-11 -15l-16 7q9 19 41 104q15 41 47 107q15 22 38 22q30 0 30 -34z" />
    <glyph glyph-name="numbersign" unicode="#" horiz-adv-x="677" 
d="M657 479l-7 -37h-131l-28 -191h131l-4 -37h-134l-37 -259h-40l39 259h-191l-38 -259h-38l38 259h-137l6 37h136l29 191h-137l6 37h136l36 244h40l-37 -244h191l36 244h39l-37 -244h133zM480 442h-191l-28 -191h191z" />
    <glyph glyph-name="dollar" unicode="$" horiz-adv-x="624" 
d="M719 809q-40 -81 -118 -81q-13 0 -32 4l-104 -226q130 -72 130 -192q0 -153 -150 -233q-69 -37 -146 -37h-15l-44 -150l-35 -13l53 165q-17 0 -40 5l-32 -102l-33 -9l38 119q-155 48 -155 101q0 18 15 52q58 -82 152 -117l11 32q58 168 124 326l13 31q-91 58 -91 138
q0 108 102 155q48 22 109 22h27q3 7 7 14l14 27q7 13 27 53l30 7l-53 -104q8 0 10 -2q6 -2 11 -3l16 -5l7 -1l57 112l32 5q-11 -19 -31 -58l-32 -65q24 -3 32 -3q43 0 70 24q12 11 18 11q3 0 6 -2zM544 738q-19 11 -42 15q-46 -95 -74 -159l-23 -53l38 -23zM479 761
q-34 8 -51 8q-50 0 -86 -26q-39 -29 -39 -78q0 -53 79 -110zM558 274q0 96 -122 164l-9 -24q-4 -9 -7 -15q-6 -14 -17 -40q-46 -114 -101 -268l-5 -14h18q93 0 164 51q79 56 79 146zM413 451l-39 19l-4 -12q-10 -24 -26 -65q-66 -162 -111 -297l-3 -9q19 -6 41 -7l10 28
q22 60 58 154q18 45 60 151q8 21 14 38z" />
    <glyph glyph-name="percent" unicode="%" horiz-adv-x="793" 
d="M876 825q0 -72 -205 -173q-217 -217 -393 -494q-80 -127 -113 -211q-7 -5 -8 -5l-8 -4q-19 -12 -31 -12q-11 0 -11 13q0 40 158 260q50 69 109 145q103 131 166 198l72 76q6 7 18 20q-45 -13 -88 -13q-13 0 -35 2q-36 -84 -102 -150q-79 -79 -157 -79q-40 0 -68 33
t-28 77q0 60 39 129q89 156 210 156h12q23 14 38 14q71 0 71 -98q0 -29 -10 -62q18 -2 27 -2q70 0 122 24l16 15l20 20q131 131 169 131q10 0 10 -10zM749 308q0 -76 -46 -156q-42 -74 -107 -123q-68 -52 -128 -52q-46 0 -75 34q-27 31 -27 78q0 123 105 215q47 41 106 59
q35 53 83 53q89 0 89 -108zM493 681q0 95 -54 95q-23 0 -23 -32q0 -67 74 -91q3 20 3 28zM485 633q-89 34 -89 108q0 13 4 28q-4 1 -13 1q-93 0 -161 -124q-30 -54 -30 -106q0 -38 24.5 -65.5t61.5 -27.5q63 0 126 63q56 56 77 123zM714 283q0 89 -64 89q-20 0 -36.5 -15
t-16.5 -35q0 -16 25 -29l-2 -12q-52 0 -52 51q-67 -13 -110.5 -69.5t-43.5 -125.5q0 -45 27.5 -79t71.5 -34q98 0 170 141q31 60 31 118z" />
    <glyph glyph-name="ampersand" unicode="&#x26;" horiz-adv-x="1543" 
d="M1472 205q0 -112 -96 -190q-100 -81 -232 -81q-122 0 -257 81q-151 -92 -327 -92q-153 0 -256 79q-114 87 -114 235q0 153 137 265q39 32 140 87q26 15 88 47l39 19q1 1 4 3l11 5q2 9 2.5 11t1.5 4l7 28q53 212 209 320q71 49 143 49q103 0 103 -89q0 -129 -256 -248
l-158 -74q-2 -24 -2 -38q0 -229 121 -412q60 -91 138 -151q80 51 127.5 139.5t47.5 184.5q0 65 -22 124q-137 50 -137 112q0 23 25 23q46 0 93 -59q24 -30 37 -61q33 -9 69 -9q70 0 130 25l7 -19q-64 -26 -136 -26q-24 0 -60 6q17 -66 17 -112q0 -200 -180 -343
q107 -83 236 -83q154 0 232 112q36 52 36 110q0 53 -46 87l8 8q15 15 22 15q48 0 48 -92zM1027 966q0 76 -82 76q-135 0 -227 -178q-43 -83 -55 -176l17 7q177 73 271 147q76 60 76 124zM869 27q-266 200 -266 533q0 34 4 78l-15 -7q-134 -63 -210 -124q-125 -101 -125 -239
q0 -186 174 -274q81 -41 179 -41q136 0 259 74z" />
    <glyph glyph-name="quotesingle" unicode="'" horiz-adv-x="192" 
d="M322 773q0 -30 -84 -135l-45 -56l-11 -15l-16 7q9 19 41 104q15 41 47 107q15 22 38 22q30 0 30 -34z" />
    <glyph glyph-name="parenleft" unicode="(" horiz-adv-x="782" 
d="M1352 1404q-611 -283 -871 -853q-131 -287 -131 -521q0 -189 82 -319l-15 -13q-132 143 -132 383q0 309 187 618q90 149 215 283q199 214 476 359q110 58 184 82z" />
    <glyph glyph-name="parenright" unicode=")" horiz-adv-x="793" 
d="M770 1018q0 -250 -143 -516q-67 -125 -168 -252t-223 -233q-68 -59 -168 -126q-193 -129 -371 -193l-6 19l18 9q29 15 87 43q16 8 54 28q15 8 54 31q20 12 49 31q53 35 103 72q34 25 86 70q37 32 77 72l44 44q88 88 178 221q161 238 231 510q33 128 33 242q0 186 -79 313
l16 14q128 -165 128 -399z" />
    <glyph glyph-name="asterisk" unicode="*" horiz-adv-x="461" 
d="M580 1156l-16 -6q-2 -1 -124 -51l-17 -7q125 -9 152 -12l-10 -22q-102 8 -146 8h-27l62 -115l-34 -22l-54 110l-6 -18q-9 -28 -20 -63l-16 -62v-2q0 -2 -1 -4q-2 -6 -4 -14l-30 -13q4 10 5 14t2 6v2l19 68q1 4 23 74l5 16l-144 -131l-9 31l143 121l-132 -20l28 34
q43 7 116 10q-6 24 -26 79l30 31l27 -89l11 19q51 89 67 110l40 7l-16 -24q-57 -82 -76 -116q24 11 26 12l142 64z" />
    <glyph glyph-name="plus" unicode="+" horiz-adv-x="768" 
d="M762 334h-314v-284h-38v284h-315v37h315v285h38v-285h314v-37z" />
    <glyph glyph-name="comma" unicode="," horiz-adv-x="390" 
d="M271 85q0 -67 -110 -146q-56 -40 -110 -62l-11 18q95 49 131 87q18 19 18 33t-15 14h-6l-12 -3q-7 -2 -11 -2q-27 0 -27 32q0 34 33 57q30 22 65 22q55 0 55 -50z" />
    <glyph glyph-name="hyphen" unicode="-" horiz-adv-x="521" 
d="M414 250q-32 -59 -83 -59q-4 0 -5 1l-60 2q-42 1 -88 -13q41 65 96 65h9l90 -4q7 0 41 8z" />
    <glyph glyph-name="hyphen" unicode="&#x2010;" horiz-adv-x="521" 
d="M414 250q-32 -59 -83 -59q-4 0 -5 1l-60 2q-42 1 -88 -13q41 65 96 65h9l90 -4q7 0 41 8z" />
    <glyph glyph-name="period" unicode="." horiz-adv-x="394" 
d="M228 103q0 -47 -50 -96q-35 -34 -63 -34q-13 0 -22.5 10.5t-9.5 24.5q0 52 61 103q29 24 53 24q31 0 31 -32z" />
    <glyph glyph-name="slash" unicode="/" horiz-adv-x="1003" 
d="M1140 1268q-261 -276 -430 -505q-186 -250 -311 -475q-73 -131 -164 -336l-16 -36l-47 25l14 31q60 133 144 284q158 284 341 533q102 139 206 264l37 45q50 60 100 115q38 42 53.5 54.5t32.5 12.5q18 0 40 -12z" />
    <glyph glyph-name="zero" unicode="0" horiz-adv-x="675" 
d="M705 565q0 -213 -154 -414q-157 -205 -319 -205q-81 0 -124 59q-39 53 -39 137q0 220 232 434l10 -16q-201 -183 -201 -379q0 -71 41 -124q44 -58 113 -58q102 0 205 96q85 78 139 187q61 122 61 240q0 70 -28 118q-35 58 -100 58q-139 0 -185 -258l-19 4q21 178 128 265
q49 40 106 40q134 0 134 -184z" />
    <glyph glyph-name="one" unicode="1" horiz-adv-x="426" 
d="M569 807q-195 -245 -295 -526q-63 -177 -63 -315q-58 -52 -79 -52q-19 0 -19 23q0 48 50 190q62 176 144 326q80 146 150 244l43 60q4 4 11 15l-17 -11l-66 -42q-41 -26 -188 -108q-38 -21 -53 -21q-17 0 -17 15l2 16q196 81 376 197z" />
    <glyph glyph-name="two" unicode="2" horiz-adv-x="698" 
d="M698 621q0 -180 -174 -384q-58 -68 -142 -146q87 -113 157 -113q46 0 73.5 32.5t27.5 79.5q0 50 -34 99l15 10q36 -52 36 -108q0 -65 -43.5 -109.5t-107.5 -44.5q-86 0 -176 113l-16 -11q-127 -87 -207 -87q-95 0 -95 108q0 74 44 131q48 63 119 63q83 0 193 -145
q97 75 198 220q84 121 84 234q0 122 -86 178q-41 27 -92 27q-113 0 -175 -119q-28 -54 -31 -126l-4 4q-15 15 -15 30q0 36 28 93q35 72 96 118q68 51 142 51q114 0 162 -98q23 -46 23 -100zM318 68q-103 143 -172 143q-60 0 -94 -64q-15 -28 -15 -66q0 -99 93 -99
q72 0 188 86z" />
    <glyph glyph-name="three" unicode="3" horiz-adv-x="644" 
d="M655 675q0 -129 -130 -222q72 -78 72 -165q0 -196 -189 -306q-86 -50 -180 -50q-90 0 -151 53q-65 56 -65 144q0 110 103 165l8 -12q-72 -43 -72 -118q0 -84 78 -137q69 -47 157 -47q151 0 242 146q40 65 40 137q0 95 -83 166q-103 -45 -170 -45q-39 0 -70.5 17.5
t-31.5 40.5q0 39 53 60q39 15 85 15q87 0 157 -50q106 69 106 178q0 66 -40.5 109t-105.5 43q-95 0 -180 -99l-19 8q104 126 222 126q73 0 118.5 -42.5t45.5 -114.5zM465 443q-67 42 -151 42q-77 0 -77 -40q0 -20 21.5 -31t58.5 -11q72 0 148 40z" />
    <glyph glyph-name="four" unicode="4" horiz-adv-x="669" 
d="M716 750q0 -24 -31 -71q-86 -130 -170 -287q-22 -41 -39 -81q98 8 136 8q35 0 80 -7l-40 -67q-49 15 -116 15q-44 0 -83 -4q-69 -138 -69 -236q0 -19 4 -44q-38 -21 -52 -35l-13 -13q-2 -3 -6 -3q-16 0 -16 33q0 96 88 287q-16 -1 -19 -3l-107 -20q-48 -9 -82 -9
q-98 0 -98 83q0 123 219 312q134 116 255 163q56 22 99 22q60 0 60 -43zM675 734q0 31 -44 31q-45 0 -129 -43q-38 -19 -76 -45q-64 -43 -120 -92q-183 -161 -183 -255q0 -73 75 -73q36 0 108 17l94 22q6 1 15 4q6 8 6 9l32 58q5 9 16 26q8 16 10 18.5t10 15.5
q70 113 104 159q82 109 82 148z" />
    <glyph glyph-name="five" unicode="5" horiz-adv-x="695" 
d="M766 805q-111 -85 -261 -85q-48 0 -110 14q-70 -88 -123 -223q104 100 222 100q81 0 129.5 -55.5t48.5 -150.5q0 -142 -109 -286q-64 -84 -152 -129q-92 -47 -186 -47q-90 0 -151.5 53.5t-61.5 133.5q0 73 65 138l13 -10q-35 -43 -35 -82q0 -78 74 -131q67 -48 147 -48
q192 0 307 191q55 91 55 185q0 86 -49 142t-134 56q-104 0 -191 -101l-30 10q76 194 177 310q83 -23 151 -23q110 0 171 33q20 11 24 11l2 1z" />
    <glyph glyph-name="six" unicode="6" horiz-adv-x="645" 
d="M746 750q0 -16 -36 -48q-42 68 -108 68q-78 0 -174.5 -58.5t-165.5 -145.5q-134 -169 -134 -344q0 -94 55 -159t132 -65q71 0 143 55q63 49 103 118q44 77 44 147q0 64 -35 110q-38 49 -101 49q-157 0 -226 -227l-20 5q28 101 96 177q80 87 175 87q89 0 123 -73
q17 -37 17 -81q0 -102 -52 -200.5t-135.5 -161t-168.5 -62.5q-95 0 -146 72q-45 63 -45 161q0 131 70 266q102 197 275 301q108 65 195 65q119 0 119 -56z" />
    <glyph glyph-name="seven" unicode="7" horiz-adv-x="518" 
d="M732 772l-17 -13q-58 -44 -117 -99q-157 -146 -285 -341q-76 -116 -115 -217q-23 -60 -30 -121q-44 -31 -67 -51q-7 -6 -12 -6q-18 0 -18 24q0 65 92 222q102 173 229 311q101 110 160 163l76 69q6 6 16 15q-60 -25 -117 -25q-53 0 -93 13l-83 27q-28 9 -51 9
q-48 0 -81 -38q-18 -20 -48 -81l-9 -18l-19 4l11 23q77 162 185 162q36 0 56 -6l116 -34q38 -11 74 -11q65 0 132 44z" />
    <glyph glyph-name="eight" unicode="8" horiz-adv-x="546" 
d="M748 711q-155 -50 -360 -182l-17 -11l10 -16l55 -83q65 -98 65 -190q0 -112 -81.5 -196t-192.5 -84q-76 0 -133.5 53t-57.5 129q0 114 121 242q59 62 142 121q-23 51 -23 93q0 120 108 187q48 30 103 30q35 0 70 -14q45 -19 45 -49q0 -14 -33 -29q-35 68 -105 68
q-55 0 -97 -42t-42 -97q0 -45 35 -106l21 13l57 36q61 38 148 82q68 34 153 68zM452 176q0 44 -11 73q-17 47 -69 130q-30 49 -54 82l-4 8q-4 4 -6 7q-225 -163 -225 -330q0 -69 48.5 -119t116.5 -50q118 0 177 100q27 46 27 99z" />
    <glyph glyph-name="nine" unicode="9" horiz-adv-x="473" 
d="M597 768q0 -30 -37 -52q-6 101 -101 101q-50 0 -111 -37q-164 -99 -164 -240q0 -108 97 -108q127 0 275 232q22 8 31 8q7 0 7 -8q0 -7 -13 -20q-3 -3 -4 -5l-9 -12q-2 -3 -7 -9q-113 -144 -205 -357q-41 -96 -57 -160q-12 -50 -12 -105q0 -10 2 -32q1 -2 1 -5l-22 -19
q-36 -31 -53 -31q-23 0 -23 37q0 119 143 358l100 167q3 3 10 18q-112 -109 -199 -109q-51 0 -83.5 31.5t-32.5 82.5q0 84 62 170q54 77 134 126q86 53 166 53q105 0 105 -75z" />
    <glyph glyph-name="colon" unicode=":" horiz-adv-x="466" 
d="M347 388q0 -45 -51 -96q-34 -34 -62 -34q-13 0 -22.5 10.5t-9.5 24.5q0 57 60 103q31 24 54 24q31 0 31 -32zM276 103q0 -46 -51 -96q-34 -34 -62 -34q-33 0 -33 35q0 54 61 103q30 24 53 24q32 0 32 -32z" />
    <glyph glyph-name="semicolon" unicode=";" horiz-adv-x="466" 
d="M347 388q0 -45 -51 -96q-34 -34 -62 -34q-13 0 -22.5 10.5t-9.5 24.5q0 57 60 103q31 24 54 24q31 0 31 -32zM271 85q0 -67 -110 -146q-56 -40 -110 -62l-11 18q95 49 131 87q18 19 18 33t-15 14h-6l-12 -3q-7 -2 -11 -2q-27 0 -27 32q0 33 32 56t66 23q55 0 55 -50z" />
    <glyph glyph-name="less" unicode="&#x3c;" horiz-adv-x="768" 
d="M748 45l-667 289v38l667 287v-39l-622 -268l622 -267v-40z" />
    <glyph glyph-name="equal" unicode="=" horiz-adv-x="768" 
d="M762 463h-667v37h667v-37zM762 256h-667v35h667v-35z" />
    <glyph glyph-name="greater" unicode="&#x3e;" horiz-adv-x="768" 
d="M777 332l-667 -287v40l622 267l-622 268v39l667 -288v-39z" />
    <glyph glyph-name="question" unicode="?" horiz-adv-x="585" 
d="M802 946q0 -111 -144 -221l-172 -131q-189 -144 -189 -224q0 -52 47 -52q28 0 69 29q-12 -94 -82 -94q-33 0 -55.5 23.5t-22.5 56.5q0 67 72 144q28 30 71 67q31 26 90 74l64 52q3 2 34 27q84 68 116.5 115.5t32.5 104.5t-40.5 92t-98.5 35q-123 0 -201 -102
q-35 -46 -35 -92q0 -20 14 -45q-34 -37 -45 -37q-22 0 -22 34q0 62 63 141q110 137 272 137t162 -134zM306 179q0 -5 -8 -21q-37 -73 -39 -138q-58 -53 -64 -53q-17 0 -17 24q0 76 56 176q41 26 61 26q11 0 11 -14z" />
    <glyph glyph-name="at" unicode="@" horiz-adv-x="783" 
d="M735 337q-50 -226 -207 -234q-71 -4 -97 34q-15 24 -15 49q0 23 4 57q-103 -110 -176 -110q-59 0 -59 63q0 62 68 139q49 56 121 96q81 46 148 46q91 0 91 -61q0 -56 -83 -90l-6 17q49 29 49 62q0 44 -67 44q-111 0 -206 -108q-62 -71 -62 -118q0 -43 44 -43
q88 0 188 171q12 6 20 6q9 0 21 -14q-48 -79 -48 -148q0 -33 9 -45q15 -17 61 -17q125 0 171 205q6 31 6 59q0 88 -60.5 141t-162.5 51q-127 -2 -232.5 -90t-133.5 -215q-8 -35 -8 -69q0 -152 127 -206q53 -22 129 -20q91 1 185 41q12 5 49 22l8 -29q-74 -35 -131 -49
t-115 -15q-131 -3 -208 65.5t-77 184.5q0 38 9 79q31 138 147 234t256 99q114 2 182.5 -59t68.5 -160q0 -31 -8 -65z" />
    <glyph glyph-name="A" unicode="A" horiz-adv-x="1330" 
d="M1460 329q-49 -68 -133 -157q-80 -85 -144 -141q-158 -138 -254 -138q-60 0 -94 61q-28 51 -28 116q0 165 153 454l9 17h-23q-198 0 -334 -41q-3 -4 -10 -11l-29 -35l-34 -39q-19 -23 -57 -68q-8 -9 -18 -22q-8 -9 -20 -23q-214 -258 -325 -330q-59 -38 -105 -38
q-31 0 -48 20t-17 53q0 119 181 270q175 147 413 224q19 6 57 19q4 4 13 14l76 88q14 16 79 86q128 137 192 200q110 109 208 183q170 128 239 128q38 0 38 -33q0 -20 -21 -56q-12 -21 -57 -84l-38 -54q-109 -151 -172 -248q-48 -75 -94 -156l-9 -16q103 -4 213 -24
q31 -6 38 -9q10 -6 10 -16t-10 -24q-2 -4 -9 -15q-135 50 -262 52q-3 -5 -15 -29l-15 -30q-52 -104 -85 -210q-30 -96 -30 -163q0 -148 99 -148q69 0 188 99q124 104 258 271l12 15zM1400 1172q0 18 -23 18q-36 0 -137 -71q-133 -94 -281 -241q-35 -35 -171 -177
q-80 -84 -138 -155l-13 -16q144 32 334 43l18 1l6 11l37 62q86 145 264 372l68 87q36 46 36 66zM580 493q-153 -41 -323 -148q-254 -160 -254 -304q0 -52 52 -52q93 0 262 197z" />
    <glyph glyph-name="B" unicode="B" horiz-adv-x="1139" 
d="M1180 1173q0 -103 -110 -247q-83 -108 -192 -199q177 -118 177 -337q0 -145 -86 -278q-81 -124 -213 -200q-136 -78 -286 -78q-191 0 -283 120q-43 56 -43 126q0 91 69 141l8 -14q-52 -52 -52 -109q0 -114 104 -182q90 -60 210 -60q159 0 280 89q105 77 163 182.5
t58 211.5q0 211 -167 339l-15 -10q-179 -120 -307 -166q-121 -44 -193 -44q-41 0 -63 7q-18 -23 -46 -71l-57 -96q-113 -191 -122 -304q-27 -27 -40 -27q-10 0 -10 13q0 10 14 43l39 92q23 54 70 138l117 195l15 25q-46 30 -46 77q0 79 101 148q75 52 171 80q32 44 89 108
q117 133 203 213q133 124 236 163q53 20 94 20q113 0 113 -109zM1124 1133q0 99 -97 99q-118 0 -295 -165q-130 -121 -254 -279q68 12 125 12q128 0 257 -62q66 52 127 121q137 157 137 274zM797 691q-86 71 -235 71q-67 0 -118 -13q-33 -39 -71 -90l-40 -54
q-29 -40 -83 -121q20 -7 50 -7q124 0 326 106q95 50 171 108zM414 743q-74 -22 -139 -68q-82 -60 -82 -122q0 -42 38 -62q2 3 4 5l1 1l29 45q3 5 32 45l37 50q8 12 48 64z" />
    <glyph glyph-name="C" unicode="C" horiz-adv-x="1140" 
d="M1295 1033q0 -137 -100 -261q-107 -132 -241 -132q-49 0 -89 34t-40 82q0 98 108 171q52 35 109 48l7 -12q-180 -66 -180 -183q0 -44 33 -73.5t77 -29.5q71 0 141 52q61 47 100 115q41 73 41 148q0 155 -136 219q-63 30 -150 30q-153 0 -329 -99q-203 -114 -334 -306
q-148 -217 -148 -470q0 -249 169 -383q115 -91 255 -91q173 0 320 136q71 66 117.5 147t66.5 180l18 -1q-48 -222 -211 -370q-54 -48 -117 -83q-123 -67 -262 -67q-191 0 -310 131q-115 127 -115 320q0 233 130.5 461t349.5 377q224 153 435 153q176 0 250 -116
q35 -55 35 -127z" />
    <glyph glyph-name="D" unicode="D" horiz-adv-x="1376" 
d="M1483 993q0 -288 -188 -595q-59 -96 -130 -181q-135 -159 -290 -259q-189 -121 -364 -121q-166 0 -277 114q-66 68 -66 127q0 41 73 106q3 -102 47 -163q57 -80 164 -113q51 -16 109 -16q305 0 589.5 340.5t284.5 701.5q0 131 -61 209q-67 86 -194 86q-209 0 -462 -208
q-183 -150 -309 -294l-7 -19l-28 -73q-46 -120 -124 -262t-163 -263q-53 -76 -76.5 -105.5t-34.5 -29.5q-12 0 -12 15q0 16 35 100q73 175 160 320q93 156 157 232l20 24l27 35q9 10 30 36q62 202 62 350q0 44 -6 87q23 18 31 18q14 0 14 -33q0 -75 -17 -169
q-10 -53 -48 -199l-5 -19l15 16q31 33 82 83q40 39 81 76q370 332 637 332q244 0 244 -286z" />
    <glyph glyph-name="E" unicode="E" horiz-adv-x="1244" 
d="M1497 1115q0 -44 -56 -67q-43 -17 -94 -17h-16l2 17h20q103 0 103 54q0 81 -255 81q-357 0 -615 -106q-56 -23 -105 -57q-21 -15 -21 -27q0 -11 13 -11q3 0 4 1h6q8 2 11 3q-20 -47 -45 -47q-29 0 -29 32q0 55 151 120q165 71 403 99q111 13 230 13q293 0 293 -88z
M1375 330q-290 -327 -559 -437q-137 -56 -263 -56q-166 0 -269 104t-103 270q0 148 84 307l-170 -54l5 19q4 2 23 8q8 3 50 16l87 28l18 6l7 10q30 45 90 129q55 71 94 115q120 135 257 237l70 52q3 2 9 5l1 1l13 -12l-15 -12q-64 -51 -160 -128q-104 -90 -199 -201
q-74 -87 -121 -182l19 6q415 131 725 131h51q38 0 38 -18q0 -12 -10 -31q-108 12 -179 12q-225 0 -554 -92q-16 -5 -99 -30q-61 -112 -61 -250q0 -229 173 -324q83 -46 191 -46q237 0 485 188q103 78 245 232l12 13z" />
    <glyph glyph-name="F" unicode="F" horiz-adv-x="1012" 
d="M1389 1147q0 -70 -138 -101l-1 19q95 24 95 67q0 66 -156 66q-187 0 -462 -90q-152 -50 -291 -113q-57 -26 -96 -52q4 35 45 58q37 14 74 29q458 191 768 191q162 0 162 -74zM1050 671q0 -5 -16 -31l-5 -9q-83 20 -174 20q-121 0 -304 -39q-74 -16 -139 -34
q-49 -82 -103 -214q-129 -315 -129 -560q0 -78 20 -147l-10 -11q-2 -1 -4 -3l-53 -49q-10 -9 -18 -9q-22 0 -22 64q0 178 69 415q68 233 179 433l30 54l6 8q2 4 4 10q-178 -48 -336 -123l-21 -10l5 28l17 7q53 22 169 66q81 29 120 40l44 13q3 1 16 5l12 20l34 55q4 6 56 86
q4 6 14 22l9 13q7 11 19 28q17 26 28 41l81 114q77 109 103 109q5 0 14 -3l-15 -17q-101 -115 -229 -307q-41 -62 -95 -153l21 5l120 29q186 45 389 49l51 1q43 1 43 -16z" />
    <glyph glyph-name="G" unicode="G" horiz-adv-x="1252" 
d="M1418 1099q0 -87 -59 -171q-52 -74 -133 -124q-85 -52 -169 -52q-53 0 -93 28q-45 32 -45 83q0 126 179 192l16 -13q-158 -57 -158 -160q0 -47 38 -77q35 -27 84 -27q149 0 251 154q44 67 44 134q0 96 -84 143q-68 38 -172 38q-150 0 -313.5 -79.5t-312.5 -222.5
q-240 -232 -240 -485q0 -205 155 -295q74 -43 169 -43q179 0 363 132q85 61 149 143q44 56 44 114q20 10 24 11q14 8 26 8q16 0 16 -23q0 -57 -30 -162q-59 -206 -220 -394q-324 -378 -705 -378q-257 0 -367 159q-53 77 -53 170q0 113 64 197.5t173 112.5l6 -14
q-194 -75 -194 -242q0 -195 207 -286q98 -43 220 -43q257 0 487 193q115 97 204 226q145 211 145 361q0 9 -1 12q-136 -203 -395 -297q-124 -45 -237 -45q-200 0 -284 153q-40 72 -40 169q0 156 105 327q87 142 226 266q328 292 661 292q104 0 169 -40q80 -48 80 -145z" />
    <glyph glyph-name="H" unicode="H" horiz-adv-x="1351" 
d="M1535 1274l-98 -114q-20 -23 -76 -95q-47 -60 -68 -89q-73 -100 -126 -184q-35 -54 -102 -172l-8 -16q118 -3 147 -10q25 -6 25 -20q0 -9 -7 -19q-73 18 -180 24l-10 -19q-75 -143 -98 -192q-53 -110 -79 -200q-21 -73 -21 -124q0 -104 87 -104q90 0 238 109
q116 85 302 287l12 13l13 -14q-62 -79 -176 -187q-201 -190 -343 -252q-67 -29 -112 -29q-55 0 -87 40q-29 37 -29 94q0 170 188 494l40 69q0 1 1.5 2.5t7.5 13.5h-25q-121 0 -284 -33l-5 -6q-4 -5 -11 -14q-2 -2 -4 -5t-4 -5l-40 -53q-3 -3 -9 -11t-19 -24q-9 -12 -56 -70
q-20 -25 -39 -46l-72 -81l-21 -26q-69 -85 -176 -177q-175 -150 -279 -150q-87 0 -87 92q0 77 76.5 173t209.5 188q143 99 319 166q97 37 173 55l17 4q3 2 5.5 2t9.5 2q13 16 39 53q93 137 109 160q60 92 97 166q26 52 32 94q18 8 23 8q11 0 11 -11q0 -18 -32 -75l-28 -50
q-29 -52 -69 -115q-32 -51 -141 -205l-12 -17q64 15 147 24q73 8 159 10q67 111 149 226q113 158 183 240l94 110q50 58 66 70q21 15 53 25zM636 537q-178 -38 -384 -153q-129 -71 -225 -159q-136 -125 -136 -227q0 -75 73 -75q48 0 116.5 38t143.5 107q47 43 105 105
q40 43 78 86q129 148 229 278z" />
    <glyph glyph-name="I" unicode="I" horiz-adv-x="604" 
d="M836 1232q0 -64 -180 -210q-72 -59 -174 -118q-37 -49 -107 -160q-91 -145 -151 -277q-38 -83 -57 -131q-70 -177 -70 -272q0 -121 95 -121q116 0 347 206q110 100 196 204l14 -15l-17 -19q-179 -200 -318 -306q-192 -146 -295 -146q-56 0 -89 41q-30 38 -30 96
q0 96 71 262q128 300 350 602l11 15q-135 -42 -209 -42q-12 0 -12 8q0 10 16 29q24 -2 42 -2q100 0 184 36l39 49q66 83 150 167q123 125 172 125q22 0 22 -21z" />
    <glyph glyph-name="J" unicode="J" horiz-adv-x="1122" 
d="M1335 1059q0 -160 -149 -429q-94 -170 -211 -311q-121 -146 -250 -246q-135 -105 -261 -158q-130 -55 -248 -55q-100 0 -167 41q-79 50 -79 144q0 114 103 208q82 75 208 121q144 53 298 53q162 0 279 -30q30 -8 30 -16q0 -5 -18 -22q-146 47 -305 47q-301 0 -470 -165
q-77 -75 -77 -158q0 -89 78 -137q66 -42 160 -42q178 0 377 129q193 125 379 365q145 186 232 402q52 128 52 223q0 159 -151 159q-79 0 -176 -44q-47 -21 -89 -51l4 20q9 43 27 56q108 78 248 78q176 0 176 -182z" />
    <glyph glyph-name="K" unicode="K" horiz-adv-x="1157" 
d="M1500 1207q0 -10 -10 -31l-21 -45q-99 -212 -342 -437q-232 -214 -448 -308l12 -19q228 -362 382 -478q111 -84 205 -84q51 0 102 24l7 -17q-61 -31 -136 -31q-143 0 -299 142q-122 112 -324 408l-17 25q-90 -26 -165 -37q-91 -157 -221 -277q-99 -91 -128 -91
q-15 0 -38 38q192 92 355 330q-117 8 -203 78q-95 77 -95 189q0 74 47 119.5t121 45.5q98 0 190 -89q3 -3 76 -88l12 -14l9 18q39 78 109 197q62 104 120 191q61 92 110 150l25 30q14 17 24 17q11 0 21 -30q-74 -62 -139 -145q-48 -61 -115 -173q-58 -97 -77 -132l-75 -140
l95 -140q304 139 543 408q182 205 237 402q24 8 34 8q17 0 17 -14zM600 375l-65 101l-76 -135q80 13 141 34zM523 492q-52 75 -84 114q-58 70 -103 95q-38 21 -80 21q-55 0 -87.5 -40.5t-32.5 -96.5q0 -137 145 -211q65 -33 148 -35q28 43 60 96z" />
    <glyph glyph-name="L" unicode="L" horiz-adv-x="1513" 
d="M1513 -41q-97 -147 -279 -147q-190 0 -365 156l-37 33l-6 4q-47 42 -150 151q-203 -207 -377 -207q-100 0 -166 74q-62 71 -62 172q0 157 128 229q59 33 137 33q130 0 267 -118q7 -6 94 -93l19 -19q230 250 388 587q-28 -6 -55 -6q-41 0 -92 20q-62 25 -62 60q0 11 32 48
q50 -98 156 -98q10 0 34 3l35 76q78 170 140 247q70 87 124 87q50 0 50 -58q0 -96 -101.5 -212t-236.5 -160q-56 -119 -99 -195q-38 -66 -106 -167q-71 -104 -141 -185l-41 -47q-5 -6 -12 -15q107 -121 237 -232q166 -142 294 -142q145 0 238 130zM1431 1159q0 43 -40 43
q-28 0 -61 -34q-83 -86 -180 -300l-10 -22q152 50 248 196q43 65 43 117zM662 173q-220 249 -369 249q-83 0 -140 -62.5t-57 -146.5q0 -98 70 -163.5t167 -65.5q153 0 329 189z" />
    <glyph glyph-name="M" unicode="M" horiz-adv-x="1686" 
d="M1876 1112q0 -75 -99 -222l-165 -245q-213 -316 -213 -548q0 -124 101 -205q-48 -42 -65 -42q-39 0 -68 78q-23 64 -23 112q0 126 86 315q63 139 149 269l174 264q67 102 67 162q0 82 -83 82q-100 0 -249 -104q-144 -100 -322 -297l-19 -21q-50 -97 -144 -247t-211 -304
q-56 -74 -94 -117l-14 -16q-30 -34 -48 -34q-11 0 -11 9q0 13 16 43q72 133 225 344q41 56 81 105l182 222q51 65 51 158q0 51 -27.5 79.5t-76.5 28.5q-144 0 -386 -215q-9 -144 -104 -320q-84 -155 -223 -303t-202 -148q-26 0 -26 36q0 105 162 331q165 230 357 395
q-5 91 -61.5 148t-146.5 57q-120 0 -234 -100q-54 -48 -95 -112q-48 -76 -55 -116q-16 -10 -24 -10q-9 0 -9 9q0 34 68 130q106 149 259 209q74 29 141 29q49 0 90 -20q90 -45 103 -191l15 13q87 75 168 129q27 18 67 39q127 67 198 67q43 0 67.5 -30t24.5 -73
q0 -58 -40 -142l-9 -19l14 15q138 148 272 247q57 42 132 83q125 68 195 68q82 0 82 -75zM655 731l-2 1q-138 -123 -278 -297q-185 -231 -185 -344q0 -29 26 -29q52 0 168 131t187 267q75 143 84 271z" />
    <glyph glyph-name="N" unicode="N" horiz-adv-x="1214" 
d="M1380 1068q0 -115 -161 -391l-137 -235q-83 -143 -114 -263q-15 -58 -15 -105q0 -129 104 -191q-9 -11 -16 -18q-26 -35 -41 -35q-33 0 -65.5 61.5t-32.5 122.5q0 112 89 299q40 84 145 260q100 167 142.5 263t42.5 163q0 114 -96 114q-156 0 -457 -291
q-64 -61 -185 -188l-59 -69q-10 -15 -21 -37q-13 -25 -37 -67l-21 -37q-80 -140 -165 -266q-122 -180 -159 -180q-12 0 -12 14q0 49 95 193q58 89 123 172q61 79 166 200l26 30q65 138 65 244q0 76 -46.5 129t-121.5 53q-149 0 -268 -174q-54 -79 -70 -164q-16 -5 -21 -5
q-9 0 -9 9q0 32 45 108q37 63 68 101q140 169 295 169q79 0 123 -57q41 -52 41 -133q0 -50 -11 -96q-3 -12 -43 -121l-7 -19l15 17q131 148 285 282q135 117 244 180t182 63q95 0 95 -105z" />
    <glyph glyph-name="O" unicode="O" horiz-adv-x="1274" 
d="M1357 982q0 -325 -279 -677q-156 -197 -325 -301q-174 -107 -336 -107q-107 0 -203 56q-143 84 -143 307q0 186 114 373q41 68 93 130q121 146 258 225l5 -19q-185 -114 -303 -292q-115 -174 -115 -347q0 -99 45 -186q48 -92 131 -137q72 -39 173 -39q352 0 654 431
q189 269 189 513q0 189 -118 270q-57 39 -131 39q-141 0 -268 -98q-112 -86 -186 -223q-79 -146 -88 -310q-18 -9 -24 -9q-11 0 -11 15q0 45 33 143q28 84 56 138q127 247 332 349q96 48 197 48q114 0 182 -80t68 -212z" />
    <glyph glyph-name="P" unicode="P" horiz-adv-x="1101" 
d="M1323 1047q0 -159 -127.5 -337t-316.5 -246q-91 -33 -182 -33q-136 0 -257 70l-7 -18q-33 -84 -95 -204q-46 -89 -92 -158q-113 -170 -184 -170q-51 0 -51 69q0 103 141 347q90 155 154 241l12 16q-54 93 -54 188q0 35 35 67v-18q0 -105 55 -191l12 16q99 132 136 175
l43 50q1 1 1.5 2t2.5 3t9 11q13 40 26 133q12 85 12 149v27q13 5 17 5t5 1h3q14 0 14 -16q-1 -2 -2 -14l-2 -19q-5 -45 -41 -217l-4 -19q305 311 532 311q93 0 149 -60t56 -161zM1261 1004q0 92 -54 151t-145 59q-139 0 -315 -135q-82 -63 -169 -157q-8 -30 -8 -25l-29 -104
q-8 -29 -26 -86l-56 -157q128 -91 270 -91q137 0 263 82q119 76 194 201.5t75 261.5zM546 882q-57 -63 -130 -159q-32 -42 -52 -70q28 -49 80 -90l12 35q22 62 53 151q19 58 37 133zM423 511q-52 35 -94 96q-124 -177 -200 -321q-78 -148 -78 -213q0 -56 45 -56
q58 0 144 128q45 68 87 152q40 80 88 195z" />
    <glyph glyph-name="Q" unicode="Q" horiz-adv-x="1461" 
d="M1900 -215q-107 -94 -241 -94q-123 0 -268 97q-36 22 -85 59q-13 10 -30 22l-46 33l-184 143q-6 5 -10 6q-176 -121 -344 -161q-80 -19 -171 -19q-268 0 -400 158q-62 74 -62 157q0 157 160 226q77 33 172 33q29 0 67 -5q10 175 108 368q136 267 359 401q137 82 272 82
q198 0 278 -179q38 -85 38 -199q0 -135 -51 -279q-108 -305 -373 -541q13 -11 15 -12l116 -92q113 -89 173 -133q118 -83 187 -109q57 -21 118 -21q103 0 191 72zM1470 836q0 183 -91 291t-248 108q-177 0 -339 -154q-128 -122 -214 -294q-90 -181 -99 -350
q82 -15 170 -54.5t190 -104.5l19 -12q121 148 121 323q0 41 -13 81q3 3 4 3.5t2 1.5q13 13 20 13q19 0 19 -71q0 -188 -134 -364l16 -12q50 -36 118 -85l44 -33q8 -4 20 -15q109 105 164 174q149 187 204 376q27 93 27 178zM809 217q-189 130 -330 169q9 -89 51 -151
q51 -74 133 -74q78 0 146 56zM1019 63q-11 7 -28 21q-62 48 -132 97l-30 21q-94 -73 -174 -73q-87 0 -141 72t-57 190q-58 16 -110 16q-157 0 -227 -98q-33 -46 -33 -106q0 -121 141 -212.5t331 -91.5q230 0 460 164z" />
    <glyph glyph-name="R" unicode="R" horiz-adv-x="1227" 
d="M1466 1150q0 -123 -124 -288q-60 -80 -141 -154q-173 -159 -417 -276l6 -19q83 -264 138 -373q116 -231 299 -231q83 0 191 70l10 -16q-127 -83 -237 -83q-151 0 -265 131q-67 77 -120 212q-21 65 -85 258l-7 21l-17 -7q-54 -22 -126 -37l-39 -8q-4 -2 -13 -3
q-15 -24 -31 -52q-96 -166 -182 -257q-75 -80 -122 -80q-51 0 -51 71q0 108 127 316l11 18q-164 60 -164 221t149 250q67 40 144 40q108 0 205 -83l18 20q15 16 24 26q4 4 11 13l25 26l14 14q9 44 9 94q0 64 -11 103l18 12q7 5 11 5q14 0 14 -30q0 -68 -15 -157l17 16
q135 127 276 221q197 130 320 130q63 0 96.5 -34.5t33.5 -99.5zM1401 1099q0 124 -120 124q-134 0 -367 -172q-114 -84 -197 -172l-4 -18q-21 -94 -32 -132l-7 -24q4 -4 4 -6l2 -6q42 -73 92 -224l6 -18q141 63 266 159q173 132 266 258q91 123 91 231zM686 848l-65 -72
q23 -23 37 -45l4 17q10 38 24 100zM709 420q-30 118 -65 205q-29 -76 -104 -236l-8 -17q86 17 177 48zM632 655q-16 37 -20 45q-9 17 -27 36q-98 -111 -193 -239q-36 -50 -78 -108q63 -24 142 -24q15 0 49 3l11 21q74 141 116 266zM571 752q-82 94 -187 94q-134 0 -210 -121
q-35 -56 -35 -115q0 -139 153 -213l20 28l47 64q63 86 138 175zM491 343q-37 -3 -54 -3q-70 0 -144 16q-121 -202 -121 -283q0 -57 43 -57t111 81q94 112 165 246z" />
    <glyph glyph-name="S" unicode="S" horiz-adv-x="1339" 
d="M1481 1026q0 -47 -33.5 -74.5t-81.5 -27.5q-43 0 -76 19q-12 7 -12 13q0 3 15 18l5 -4q31 -25 79 -25q66 0 66 63q0 113 -185 181q-82 30 -169 30q-156 0 -253.5 -64.5t-97.5 -169.5q0 -119 172 -260l168 -138q168 -138 168 -289q0 -122 -89 -226q-78 -89 -201 -143
q-134 -58 -287 -58q-240 0 -410 125q-164 121 -164 312q0 177 128 258q60 38 132 38q37 0 82 -14q59 -18 59 -47q-1 -5 -5 -20q-73 61 -147 61q-93 0 -155 -73q-59 -69 -59 -164q0 -213 230 -345q178 -102 355 -102q155 0 271 67q25 14 27 15q6 3 11 8q31 21 98 85
q77 90 77 186q0 73 -48 141q-46 65 -161 155l-73 57q-120 94 -178 174q-54 75 -54 156q0 182 204 261q98 38 222 38q151 0 263 -63q107 -60 107 -154z" />
    <glyph glyph-name="T" unicode="T" horiz-adv-x="1194" 
d="M1561 1207q0 -93 -155 -150q-68 -25 -147 -25q-32 0 -76 4q-114 -182 -169 -286q-7 -13 -32 -62l-22 -44q-12 -21 -19 -36l-56 -113q-2 -3 -3 -4l-2 -4q-1 -4 -5 -11l-3 -5q-43 -88 -136 -261q-217 -368 -520 -368q-104 0 -199 52q-76 42 -76 67q0 12 45 62
q113 -119 275 -119q148 0 288 111q60 47 103 108q59 83 119 196q10 19 72 142l48 95q80 159 123 238q76 139 138 229l11 16q-83 14 -170 53l-115 51q-106 47 -208 47q-105 0 -206 -68q-94 -61 -154 -158t-60 -203q0 -97 48 -168q55 -81 148 -81q87 0 149 69q60 66 60 154v13
q17 14 22 14q8 0 8 -15q0 -18 -14 -64q-26 -86 -95 -145q-73 -62 -160 -62q-94 0 -153 72q-54 67 -54 163q0 199 165 361q162 159 372 159q109 0 238 -51l134 -53q47 -18 88 -31q67 79 143.5 123.5t139.5 44.5q72 0 72 -57zM1536 1199q0 44 -56 44q-121 0 -254 -154
q51 -12 96 -12q66 0 132 28q82 36 82 94z" />
    <glyph glyph-name="U" unicode="U" horiz-adv-x="1226" 
d="M1363 335q-192 -232 -325 -320q-59 -39 -99 -39q-99 0 -99 159q0 105 54 244l7 18l-17 -17q-100 -100 -184 -173q-167 -145 -253 -199q-101 -63 -179 -63q-92 0 -92 102q0 69 54 182q38 79 132.5 207t173.5 220l237 278q118 138 118 226q0 55 -46 85q-39 26 -97 26
q-153 0 -376 -167q-29 -22 -59 -47q-66 -55 -113 -111l-35 -42l-2 -2l-2 -2l-3 -3l-4 -4l-47 -12q122 147 244 235q272 195 461 195q55 0 93 -26q44 -29 44 -82q0 -92 -126 -240l-271 -319q-116 -136 -204 -281q-101 -166 -101 -259q0 -37 22.5 -65.5t59.5 -28.5
q99 0 303 166q137 112 268 250l18 19q102 227 219 394q102 146 136 146q13 0 13 -15q0 -45 -63 -157q-41 -74 -105 -161q-26 -35 -130 -157l-42 -49q-61 -153 -61 -270q0 -51 18 -92q23 -53 68 -53q84 0 234 158l79 83q18 21 53 62l12 14z" />
    <glyph glyph-name="V" unicode="V" horiz-adv-x="1043" 
d="M1683 1285q0 -13 -10 -38q-1 -4 -6 -15q-118 -13 -276 -89q-150 -72 -305 -197q-255 -205 -459 -527q-98 -154 -152 -294l-12 -31q-9 -23 -20 -54q-26 -84 -62 -84q-13 0 -36 6q113 240 113 529q0 202 -44 363q-47 170 -122 170q-71 0 -213 -154l-8 19q159 176 270 176
q86 0 133 -129q26 -71 41 -172t15 -225q0 -133 -23 -288q48 85 151 253q211 310 435 491q131 106 235 169q114 69 225 114q74 30 98 30q32 0 32 -23z" />
    <glyph glyph-name="W" unicode="W" horiz-adv-x="1870" 
d="M1905 879q0 -139 -37 -279q-20 -71 -49 -142q-87 -209 -243 -371q-188 -195 -368 -195q-121 0 -191 90q-64 82 -64 206q0 197 126 433q92 172 172 259v2q-49 -23 -115 -68q-97 -67 -160 -116t-139 -115q-156 -136 -260 -245q-94 -98 -198 -220q-43 -50 -90 -113l-12 -16
h-50l14 14l54 56q144 149 325 414q150 219 195 385q23 85 23 160q0 134 -114 197q-52 29 -117 29q-210 0 -402 -255q-88 -117 -132 -251q-14 30 -14 38q0 35 63 133q51 78 91 125q131 154 298 221q77 31 146 31q110 0 177 -63t67 -172q0 -132 -105 -330q-77 -145 -171 -274
l-79 -109q-4 -6 -7 -9l14 14q154 154 243 232q198 174 385 293q68 44 139 75l13 -21q-84 -57 -169 -192q-155 -247 -155 -453q0 -194 116 -275q56 -39 128 -39q192 0 367 209q83 99 151 237q112 227 112 452q0 136 -47 216t-107 80l-22 -2q-19 51 -19 59q0 15 22 15
q51 0 105 -55q90 -92 90 -295z" />
    <glyph glyph-name="X" unicode="X" horiz-adv-x="1472" 
d="M1531 -66q-110 -152 -288 -152q-194 0 -319 163q-86 113 -122 295q-19 98 -32 237l-16 177l-14 -14q-396 -396 -462 -721q-25 -14 -46 -30.5t-27 -16.5q-8 0 -8 10q0 64 102 241q47 81 112 170q63 85 148 182q91 103 193 205l-2 22q-15 169 -27 228q-30 153 -103 200
q-37 24 -90 24q-145 0 -270 -156t-125 -340v-15q-28 23 -28 47q0 86 56 194q49 94 118 167q140 147 311 147q137 0 188 -142q34 -94 48 -302l14 14q2 1 20 17l61 54q218 193 406 305q65 39 134 72q33 16 48 16q12 0 12 -12q0 -10 -11 -35q0 -1 -7 -17q-133 -25 -337 -163
q-179 -123 -337 -277q2 -25 5 -66l6 -69q27 -309 73 -454q44 -137 128 -224q100 -103 230 -103q142 0 246 131z" />
    <glyph glyph-name="Y" unicode="Y" horiz-adv-x="953" 
d="M1190 1061q0 -42 -152 -212q-77 -86 -146 -154q-192 -343 -192 -621q0 -83 35 -182q-17 -27 -54 -87l-10 -16q-23 141 -23 214q0 195 76 389q53 135 109 237l11 20l-14 -12q-111 -95 -209 -165q-150 -107 -241 -107q-46 0 -74.5 31t-28.5 77q0 80 68 187q48 75 187 245
q88 107 109 136q41 56 58 87q35 65 35 118q0 45 -31.5 69.5t-92.5 24.5q-99 0 -217 -71q-101 -60 -179 -146q-90 -99 -127 -198l-39 -8q56 123 161 229q228 230 452 230q131 0 131 -93q0 -81 -138 -255l-179 -226q-134 -168 -134 -275q0 -100 91 -100q96 0 272 136
q109 84 172 144q2 3 9 13q2 3 3.5 6t3.5 5l43 68q84 133 180 232q43 44 62 44q13 0 13 -14z" />
    <glyph glyph-name="Z" unicode="Z" horiz-adv-x="1225" 
d="M1451 1142q0 -76 -198 -94q-16 -15 -61 -65q-87 -97 -147 -171q-40 -48 -108 -140l-13 -20q83 -24 141 -24q100 0 107 87l13 3q1 -5 1 -17q0 -56 -56 -92q-49 -31 -108 -31q-50 0 -134 22l-144 -187q163 -48 247.5 -137.5t84.5 -206.5q0 -152 -138 -272l-13 15
q105 94 105 202q0 153 -150 260q-76 54 -178 89q-3 -3 -7 -8t-7 -8q-13 -13 -42 -47q-6 -6 -28 -32q-184 -213 -330 -296q-83 -47 -161 -47q-60 0 -101 34q-44 37 -44 95q0 137 149 250q170 129 445 129q76 0 142 -13q6 8 12 14q3 4 10 13q18 22 53 65l49 66q8 10 23 29
q-96 32 -149 32q-90 0 -122 -79l-12 3q44 119 165 119q60 0 154 -23q14 18 46 61q59 79 163 203q41 48 112 125q-53 3 -95 9q-81 12 -155 31l-111 28q-59 15 -118 15q-172 0 -254 -121q-40 -59 -41 -128q-15 -18 -22 -18t-7 10q0 34 31 102q44 97 127 160q90 67 191 67
q67 0 159 -38l102 -42q126 -52 206 -52h11q8 5 12 9l20 16q92 74 137 74q36 0 36 -28zM1418 1130q0 14 -19 14q-35 -1 -119 -73q138 10 138 59zM677 370q-88 24 -179 24q-270 0 -418 -159q-68 -73 -68 -154q0 -53 40 -87t94 -34q87 0 174 59q148 101 342 333z" />
    <glyph glyph-name="bracketleft" unicode="[" horiz-adv-x="758" 
d="M1232 1406l-12 -24q-82 11 -178 11h-20q-89 -100 -216 -301q-67 -106 -119 -194q-64 -109 -124 -222q-71 -134 -124 -247q-26 -55 -75 -165q-54 -121 -84 -227q-8 -30 -28 -106q-21 -87 -21 -151q179 17 342 79l-26 -70q-184 -75 -404 -95q-1 8 -1 26q0 176 98 423
q102 257 256 527q78 137 184 304q168 266 328 443h36q98 0 188 -11z" />
    <glyph glyph-name="backslash" unicode="\" horiz-adv-x="824" 
d="M682 -73l-52 -10q-51 455 -176 825q-28 85 -93 232q-83 189 -143 304q17 3 22 3q30 0 47 -25q20 -29 64 -131q127 -293 175 -446q37 -119 96 -401q25 -120 55 -318z" />
    <glyph glyph-name="bracketright" unicode="]" horiz-adv-x="592" 
d="M829 1392q0 -179 -97 -423q-109 -274 -295 -595q-44 -76 -145 -236q-170 -270 -329 -444h-36q-95 0 -188 11l13 24q8 -1 178 -10l19 -1q91 104 216 301q131 208 253 437q60 114 114 227q146 305 188 497q20 91 21 151q-188 -17 -342 -79l26 71q187 74 404 94v-25z" />
    <glyph glyph-name="asciicircum" unicode="^" horiz-adv-x="768" 
d="M763 449h-50l-271 395l-268 -395h-48l292 426h52z" />
    <glyph glyph-name="underscore" unicode="_" horiz-adv-x="890" 
d="M890 -303h-890v66h890v-66z" />
    <glyph glyph-name="grave" unicode="`" 
d="M324 568l-17 -1q-2 2 -2 3v1h-1l-13 22q-37 63 -115 115q27 10 47 10q64 0 101 -150z" />
    <glyph glyph-name="a" unicode="a" horiz-adv-x="691" 
d="M821 336q0 -8 -55 -67q-84 -90 -131 -134q-80 -75 -146 -115q-55 -33 -90 -33q-81 0 -81 100q0 28 11 89l-14 -15q-161 -172 -272 -172q-38 0 -61.5 25.5t-23.5 65.5q0 93 104 211q111 125 266 186q85 33 149 33q134 0 134 -87q0 -82 -118 -130l-4 12q75 44 75 101
q0 76 -112 76q-82 0 -180 -54q-88 -49 -148 -117q-99 -113 -99 -190q0 -34 22.5 -54.5t53.5 -20.5q75 0 173 102q73 76 126 167q16 8 26 8q11 0 24 -15q-73 -121 -73 -208q0 -28 15 -46.5t39 -18.5q56 0 175 105q98 87 150 147l24 28q26 30 33 30q8 0 8 -9z" />
    <glyph glyph-name="b" unicode="b" horiz-adv-x="584" 
d="M727 344q0 -6 -19 -23q-86 -78 -190 -78q-54 0 -106 28q1 -9 1 -32q0 -94 -38 -168q-47 -93 -133 -93q-80 0 -119 85q-29 64 -29 155q0 217 130 494q118 250 228 343q45 38 67 38q23 0 23 -35q0 -53 -44 -154q-89 -204 -286 -457l-46 -59q-1 0 -9 -12q-5 -47 -5 -84
q0 -264 119 -264q72 0 105 105q15 47 15 108q0 13 -2 39q-95 74 -95 143q0 26 19 26q42 0 91 -136l5 -14q47 -36 112 -36q47 0 97 21.5t79 52.5l13 14q5 3 7 3q10 0 10 -10zM514 1033q0 22 -12 22q-36 0 -113 -103q-159 -211 -226 -530q140 174 245.5 356.5t105.5 254.5z
" />
    <glyph glyph-name="c" unicode="c" horiz-adv-x="495" 
d="M625 336q0 -7 -13 -21l-39 -43q-270 -298 -424 -298q-121 0 -121 138q0 61 36.5 136t93 133.5t123.5 94t124 35.5q83 0 83 -64q0 -54 -51.5 -102t-106.5 -48q-13 0 -13 8q0 9 31 31h9q38 0 70 28t32 65q0 53 -74 53q-71 0 -155 -65.5t-127 -166.5q-22 -51 -22 -95
q0 -52 31 -88q32 -39 83 -39q86 0 225 120q90 78 170 172l11 13q10 12 16 12q8 0 8 -9z" />
    <glyph glyph-name="d" unicode="d" horiz-adv-x="757" 
d="M899 342q0 -6 -9 -15q-2 -2 -12 -14q-73 -87 -192 -193q-137 -122 -214 -122q-101 0 -101 161q0 31 3 61.5t3 21.5l-16 -18q-99 -112 -176 -166q-69 -49 -130 -49q-79 0 -79 85q0 72 58 156q49 72 117 121q95 68 162 68q34 0 64 -18l-28 -27q-28 18 -47 18
q-63 0 -140 -63q-38 -31 -65 -67q-62 -82 -62 -145q0 -72 61 -72q57 0 158 89q69 61 132 136l4 15l14 60q54 232 206 491q41 70 95 136q79 97 123 97q23 0 23 -30q0 -103 -148 -353q-35 -60 -101 -159q-51 -77 -100 -144l-54 -73q-14 -92 -14 -134q0 -146 75 -146
q104 0 329 248q5 5 11 13l8 8q11 11 17 19q11 12 16 13q9 0 9 -9zM822 1028q0 22 -16 22q-41 0 -143 -157q-88 -135 -158 -345q-34 -101 -46 -162q83 104 185 268q178 285 178 374z" />
    <glyph glyph-name="e" unicode="e" horiz-adv-x="486" 
d="M622 343q0 -6 -35 -45q-150 -168 -254 -247q-118 -89 -199 -89q-57 0 -93 38.5t-36 95.5q0 81 59 174q52 81 124 139q81 65 144 65q65 0 65 -55q0 -103 -149 -175q-66 -32 -127 -32q-10 0 -42 3q-13 -45 -13 -78q0 -50 30.5 -83t80.5 -33q94 0 231 122q74 66 153 155
l24 27q4 5 13.5 15.5t15.5 10.5q8 0 8 -8zM353 400q0 41 -45 41q-66 0 -153 -96q-36 -40 -67 -109q15 -4 38 -4q113 0 192 91q35 40 35 77z" />
    <glyph glyph-name="f" unicode="f" horiz-adv-x="563" 
d="M694 337q0 -9 -48 -60q-158 -168 -320 -168q-28 0 -76 9l-1 -19q-3 -65 -17 -189q-17 -83 -55 -170q-73 -166 -154 -166q-76 0 -76 149q0 60 13 129q16 83 45 180q15 49 47 140q63 179 134 325q79 164 165 300q44 70 94 136q88 117 134 117q26 0 26 -32q0 -106 -210 -386
q-104 -139 -179 -220l-47 -51q-11 -13 -34 -38q-30 -72 -64 -184q-73 -244 -73 -371q0 -122 59 -122q77 0 131 189q42 147 42 253q0 18 -2 36q-2 2 -2 3h-2l-20 10q-29 15 -52 44q-19 24 -19 50q0 39 33 39q58 0 80 -115q51 -14 91 -14q156 0 284 140l33 36l4 4l6 6l2 2
q14 17 19 17q9 0 9 -9zM570 988q0 16 -15 16q-49 0 -212 -265q-82 -133 -136 -251q-35 -75 -47 -106q44 42 117 133q204 254 271 400q22 48 22 73zM223 164q-10 37 -25 59t-29 22q-12 0 -12 -14q0 -34 66 -67z" />
    <glyph glyph-name="g" unicode="g" horiz-adv-x="555" 
d="M692 340q0 -8 -60 -72q-92 -99 -149 -149q-72 -64 -151 -118q-14 -9 -39 -28q-98 -179 -218 -310q-206 -225 -337 -225q-71 0 -71 66q0 63 69.5 137.5t282.5 195.5l133 76l54 32q11 7 34 20l16 10q61 117 108 271l-10 -16q-60 -97 -151 -166q-77 -59 -139 -59
q-87 0 -87 91q0 123 137 243q111 97 204 97q38 0 80 -19q9 43 9 76v10q8 5 18 5q14 0 30 -13q-3 -101 -33 -207q-24 -85 -96 -247l-12 -27q83 48 243 206q69 68 107 114q12 15 18 15q10 0 10 -9zM388 368q-35 38 -87 38q-62 0 -128 -46q-59 -41 -96 -99q-41 -63 -41 -120
q0 -31 20.5 -53.5t50.5 -22.5q49 0 109 45q135 101 172 258zM237 -64q-22 -11 -78 -42l-57 -33q-125 -72 -174 -104q-113 -74 -155 -128q-34 -43 -34 -83q0 -58 59 -58q82 0 241 171q108 116 198 277z" />
    <glyph glyph-name="h" unicode="h" horiz-adv-x="825" 
d="M955 333q0 -6 -13 -20l-42 -45q-23 -24 -67 -68q-188 -185 -289 -185q-32 0 -54 24t-22 56q0 22 11 67l16 66q14 58 14 74q0 28 -26 28q-49 0 -188 -101q-121 -88 -192 -181q-27 -35 -35 -35q-21 0 -21 44q0 111 50 277q52 173 143 359q93 191 173 300q68 93 106 93
q20 0 20 -24q0 -99 -148 -358q-45 -78 -85 -134q-48 -66 -113 -144l-37 -44l-4 -16q-14 -55 -34 -164q-9 -48 -9 -76q0 -16 9 -16q6 0 17 11q76 76 178 147q155 108 221 108q41 0 41 -43q0 -18 -8 -50q-32 -130 -32 -166q0 -62 48 -62q40 0 119 58t168 152l34 36
q39 41 42 41q9 0 9 -9zM505 1019q0 24 -13 23q-31 -1 -122 -152q-131 -217 -201 -463q34 36 85 108q140 198 210 356q41 92 41 128z" />
    <glyph glyph-name="i" unicode="i" horiz-adv-x="402" 
d="M387 646q-6 -4 -9 -7l-32 -24q-44 -33 -97 -86l-4 -4q-17 6 -17 16q0 18 43 63q49 51 85 51q15 0 31 -9zM532 334q-8 -13 -52 -59q-172 -179 -294 -247q-61 -34 -101 -34q-73 0 -73 79q0 89 83 234q29 50 56 89q43 13 69 14l-10 -15q-66 -98 -101 -180q-30 -69 -30 -121
q0 -53 43 -53q77 0 229 135q78 69 140 138q26 29 32 29q9 0 9 -9z" />
    <glyph glyph-name="j" unicode="j" horiz-adv-x="331" 
d="M296 683l-12 -11q-36 -34 -105 -94q-15 -12 -24 -12q-10 0 -10 13q0 3 1 4v5l2 16q0 4 3 12q85 75 134 98zM467 342q0 -6 -90 -103q-72 -77 -121 -122q-86 -79 -149 -123l-55 -39q-9 -7 -28 -21q-4 -6 -11 -18l-32 -55q-129 -222 -318 -359q-85 -62 -137 -62
q-17 0 -29.5 11t-12.5 28q0 74 166 213q119 100 293 213q8 5 56 38q10 18 32 80q84 230 84 348v9q-1 4 -1 9q37 49 66 49q13 0 13 -29q0 -54 -42 -178.5t-100 -241.5l-8 -16q71 45 176 138q67 60 194 195l15 16q5 5 11 13q13 16 19 16q9 0 9 -9zM-21 -94q-130 -82 -259 -186
q-198 -158 -198 -214q0 -25 29 -25q52 0 148 79q70 58 124 121q91 107 156 225z" />
    <glyph glyph-name="k" unicode="k" horiz-adv-x="853" 
d="M989 339q0 -6 -25 -33l-35 -38q-72 -78 -150 -143q-87 -72 -145 -107q-75 -45 -141 -45q-70 0 -119.5 44.5t-49.5 112.5q0 83 46 83q5 0 7 -1l86 -6q8 -1 41 19q51 30 51 75q0 69 -81 69q-144 0 -274 -165q-59 -75 -84 -157q-35 -32 -50 -32q-19 0 -19 27q0 41 31 184
q37 173 123 370q35 81 92 188q162 304 239 304q19 0 19 -25q0 -44 -45 -152q-29 -69 -73.5 -151.5t-87.5 -147.5q-49 -73 -88 -121l-76 -93q-8 -10 -13 -16q-42 -128 -47 -257q105 178 253 250q70 34 139 34q37 0 65.5 -22.5t28.5 -59.5q0 -75 -88 -120q-41 -21 -80 -21h-29
q-30 0 -30 -44q0 -53 37.5 -92.5t90.5 -39.5q94 0 225 103q101 80 185 172l29 32l6 6l5 5l4 6q12 14 19 14q8 0 8 -9zM515 1023q0 7 -4.5 12t-9.5 5q-36 0 -113 -134q-95 -165 -155 -325q-32 -86 -51 -152q47 49 125 166q72 107 116 196q60 120 71 153l14 42q7 21 7 37z" />
    <glyph glyph-name="l" unicode="l" horiz-adv-x="554" 
d="M691 338q0 -5 -37 -46q-123 -136 -188 -194q-138 -120 -233 -120q-145 0 -145 241q0 184 85 401q112 285 222 417q51 61 92 61q44 0 44 -58q0 -111 -174 -390q-42 -67 -95 -139l-50 -67l-57 -73q-7 -38 -7 -91q0 -253 120 -253q102 0 283 185q76 78 110 119q14 17 21 17
q9 0 9 -10zM502 1024q0 38 -30 38q-79 0 -208 -309q-10 -24 -29 -78l-15 -42q-41 -118 -59 -222q36 40 84 108q106 151 156 243q23 43 47 95q54 118 54 167z" />
    <glyph glyph-name="m" unicode="m" horiz-adv-x="1177" 
d="M1313 339q0 -6 -26 -34l-42 -46q-80 -87 -170 -159q-103 -82 -170 -82q-77 0 -77 88q0 42 19 116q15 58 15 71q0 29 -26 29q-36 0 -142 -72q-84 -57 -156 -128q-106 -104 -110 -104q-26 0 -26 38q0 52 37 163l17 51q9 27 9 41q0 23 -21 23q-29 0 -141 -72
q-187 -121 -286 -232q-13 -15 -21 -15q-14 0 -14 18q0 54 79 216q41 84 82 148q31 15 70 27l-10 -16q-31 -49 -77 -146q-38 -80 -62 -146l8 6q62 49 193 141q168 107 224 107q38 0 38 -42q0 -35 -24 -114q-28 -91 -32 -120l15 14l53 48q65 59 135 107q141 97 212 97
q43 0 43 -39q0 -19 -7 -48q-31 -126 -31 -155q0 -61 49 -61q62 0 207 135q72 67 131 132q22 24 26 24q9 0 9 -9z" />
    <glyph glyph-name="n" unicode="n" horiz-adv-x="809" 
d="M945 339q0 -5 -31 -39l-62 -67q-200 -216 -315 -216q-72 0 -72 84q0 29 4 50q9 47 25 115q5 21 5 34q0 29 -25 29q-29 0 -109 -50q-205 -128 -304 -232q-35 -37 -45 -37q-16 0 -16 31q0 58 60 186q51 107 98 175q25 13 73 24q-74 -120 -122 -221q-32 -68 -32 -80
q0 -10 9 -10q6 0 42 27q155 117 254 174q49 28 86 43.5t58 15.5q37 0 37 -42q0 -20 -14 -86q-21 -98 -21 -130q0 -60 50 -60q73 0 250 179q50 50 90 96q14 16 19 16q8 0 8 -9z" />
    <glyph glyph-name="o" unicode="o" horiz-adv-x="498" 
d="M640 343q0 -10 -26 -33q-68 -59 -157 -59q-29 0 -75 11q3 -36 3 -48q0 -132 -123 -217q-55 -38 -109 -38q-63 0 -102 46t-39 110q0 166 163 279q71 49 142 49t71 -23q0 -8 -11.5 -20t-19.5 -12q-4 2 -10 4q-32 19 -57 19q-91 0 -157 -81q-63 -76 -63 -169q0 -58 32 -98
q35 -43 91 -43q73 0 124 62q48 59 48 134q0 26 -7 53q-1 1 -3 2l-4 2q-6 3 -9 3q-49 19 -49 42q0 16 20 16q32 0 59 -49q44 -16 85 -16q95 0 161 73q9 10 14 10q8 0 8 -9z" />
    <glyph glyph-name="p" unicode="p" horiz-adv-x="598" 
d="M735 342q-2 -6 -12 -18l-21 -24q-28 -32 -80 -71q-58 -44 -99 -68q-52 -31 -144 -64q-116 -114 -198 -114q-75 0 -75 69q0 64 35 64h5q1 -1 3 -1l23 -6q38 -10 87 -10q65 0 105 14q90 104 90 189q0 73 -71 73q-105 0 -261 -172q-122 -135 -206 -385q-72 -215 -84 -359
l-57 -15l3 19q85 541 432 1019q40 55 47 62q11 9 35 9h1l24 -1l-12 -15q-96 -119 -176 -252q-45 -74 -73 -129l7 7q0 1 5 6l47 55q50 58 133 125q93 75 167 75q78 0 78 -85q0 -92 -88 -213q97 32 192 107q80 63 115 106q10 12 13 12q10 0 10 -9zM334 84q-52 -4 -86 -4
q-45 0 -90 9q-6 -16 -6 -27q0 -42 52 -42q65 0 130 64z" />
    <glyph glyph-name="q" unicode="q" horiz-adv-x="505" 
d="M505 405l-11 -15q-39 -53 -103 -166q-40 -70 -86 -166q-169 -351 -169 -599q58 138 125 217q62 73 121 111q23 15 34 15q8 0 8 -9q0 -13 -18 -41q-87 -30 -156 -125q-107 -148 -127 -299h-6q-4 -1 -12 -1q-32 0 -32 80q0 197 102 437q28 65 62 130l122 232l-16 -16
q-183 -183 -279 -183q-88 0 -88 91q0 108 126 228q116 111 222 111q40 0 66 -16q12 -7 12 -14q0 -8 -18 -26q-42 31 -78 31q-86 0 -177.5 -91.5t-91.5 -176.5q0 -79 70 -79q56 0 135 61t152 159q55 73 80 126z" />
    <glyph glyph-name="r" unicode="r" horiz-adv-x="596" 
d="M733 342q0 -5 -20 -28q-286 -325 -430 -325q-51 0 -83 32t-32 83q0 99 113 242q9 12 10 17q0 6 -8 6q-6 0 -27 -7q-34 -11 -56 -11q-21 0 -45 8q0 -1 -1 -2v0l-1 -1l-17 -20q-20 -23 -27 -23q-8 0 -8 7q1 5 4 8l6 6q1 1 1.5 2t1.5 2l15 19q7 8 12 14q-11 19 -11 36
q0 31 23 66.5t52 35.5q25 0 25 -27q0 -28 -50 -93q-4 -4 -12 -15q13 -4 25 -4q49 0 109 30q44 22 54 22q24 0 24 -22q0 -12 -9 -21l-35 -44q-103 -129 -103 -216q0 -37 24.5 -63.5t61.5 -26.5q82 0 236 147q71 68 123 127l29 33l9 9q5 5 8 5q9 0 9 -8z" />
    <glyph glyph-name="s" unicode="s" horiz-adv-x="517" 
d="M653 344q0 -5 -24 -33q-49 -54 -152 -158q-111 -102 -213 -136q-52 -17 -108 -20q-7 0 -20 -4q-49 -10 -74 -10q-103 0 -103 45q0 23 26 23q12 0 43 -10q65 -21 101 -26q57 15 92 69q33 50 33 112q0 40 -11 73q-12 37 -49 91l-15 22q-2 -2 -7 -7.5t-7 -7.5l-10 -12
l-27 -32q-10 -12 -18 -12t-8 8q0 7 40 50q7 9 22 25l6 6q-11 30 -11 49q0 25 15 49q18 28 41 28q25 0 25 -30q0 -34 -30 -71l-9 -11q-3 -3 -3 -6q1 -5 4 -8l5 -7q35 -37 91 -116q18 -36 18 -84q0 -95 -111 -173q120 21 269 157q76 69 153 161q12 14 17 14q9 0 9 -8z" />
    <glyph glyph-name="t" unicode="t" horiz-adv-x="458" 
d="M594 342q0 -7 -28 -38q-278 -311 -417 -311q-50 0 -80 33.5t-30 84.5q0 48 17 100q23 70 63 146l9 17l-128 -7l23 25l115 -1l9 17q23 44 68 118l61 101l72 12l-25 -40q-56 -89 -102 -174l-18 -33l252 11l-16 -26l-25 1q-25 1 -92 1q-71 0 -109 -2l-19 -1
q-92 -173 -92 -257t74 -84q73 0 182 92q91 77 193 190l18 20q12 13 16 13q9 0 9 -8z" />
    <glyph glyph-name="u" unicode="u" horiz-adv-x="750" 
d="M887 337q0 -9 -68 -78q-63 -65 -198 -182q-104 -76 -164 -76q-66 0 -66 85q0 67 42 158q-3 -2 -8 -7l-3 -3q-2 -2 -4 -3l-61 -61q-166 -166 -279 -166q-66 0 -66 78q0 135 155 341q33 13 71 16q-39 -49 -82 -123q-86 -148 -86 -224q0 -53 44 -53q59 0 161 87
q134 113 228 232l43 -8q-97 -185 -97 -261q0 -53 39 -53q90 0 334 256q51 53 56 53q9 0 9 -8z" />
    <glyph glyph-name="v" unicode="v" horiz-adv-x="538" 
d="M680 346q0 -8 -17 -26q-57 -62 -119 -62q-49 0 -93 44q-147 -297 -311 -297q-48 0 -77 37q-27 33 -27 83q0 111 116 258q34 17 75 20q-135 -167 -135 -275q0 -34 22 -59.5t55 -25.5q80 0 174 118q45 56 74 117l13 27q7 14 7 18q0 3 -11 38t-11 60q0 83 34 83q29 0 29 -72
q0 -54 -19 -111q34 -43 86 -43q59 0 111 64q10 13 16 13q8 0 8 -9z" />
    <glyph glyph-name="w" unicode="w" horiz-adv-x="755" 
d="M892 338q0 -12 -37 -41q-47 -37 -95 -37q-46 0 -84 31q-65 -172 -177 -253q-51 -37 -102 -37q-91 0 -103 129q-119 -130 -202 -130q-80 0 -80 88q0 70 48 161q41 77 131 179l8 9q28 10 75 13q-203 -217 -203 -354q0 -57 54 -57q42 0 96 45q47 39 73 82l1 9q4 37 21 83
q12 32 32 62q26 39 49 39q20 0 20 -21q0 -31 -63 -128l-11 -17q-1 -7 -1 -30q0 -125 81 -125q90 0 175 135q40 64 62 136q-25 54 -25 99q0 65 28 65q30 0 30 -74q0 -37 -10 -84q35 -35 78 -35q55 0 108 58q7 8 13 8q10 0 10 -8z" />
    <glyph glyph-name="x" unicode="x" horiz-adv-x="684" 
d="M821 343q0 -6 -42 -52q-175 -193 -302 -262q-61 -33 -110 -33q-100 0 -186 137q-89 -104 -158 -234q-23 20 -23 35q0 11 35 57q41 54 123 150l12 14q-26 49 -46 135q-19 80 -19 156q0 36 14 52q9 11 47 29q-1 -15 -1 -55q0 -156 48 -272l18 18q114 114 219 192
q48 36 56 36t8 -10l-2 -14q0 -2 -2 -6q-158 -100 -287 -236q67 -144 169 -144q85 0 216 114q27 24 132 130q31 31 51 54l8 9q7 8 13 8q9 0 9 -8z" />
    <glyph glyph-name="y" unicode="y" horiz-adv-x="579" 
d="M716 340q0 -5 -7 -13l-19 -21l-50 -54q-79 -85 -180 -169q-43 -36 -143 -106l-4 -8t-6 -9l-29 -50q-37 -63 -95 -139q-114 -148 -247 -251q-100 -77 -176 -77q-69 0 -69 69q0 75 99 162q47 41 119 87q6 4 140 80q112 64 159 92q16 9 68 41q13 21 40 87l23 57q16 40 30 91
q-125 -182 -237 -182q-44 0 -71.5 31t-27.5 75q0 116 130 267q27 11 72 12q-147 -187 -147 -283q0 -69 64 -69q69 0 140 82q53 62 90 144q43 97 43 186v13l44 28q3 -21 3 -49q0 -75 -30 -178q-38 -130 -73 -204l-20 -42q-1 -1 -1 -2t-1 -2t-1.5 -3.5t-2.5 -6.5q0 1 -4 -7
q177 109 353 320q8 10 14 10q10 0 10 -9zM260 -58l-18 -11l-71 -41l-86 -51q-113 -67 -158 -97q-101 -68 -138 -119q-32 -44 -32 -81q0 -51 52 -51q114 0 317 245q87 105 134 206z" />
    <glyph glyph-name="z" unicode="z" horiz-adv-x="634" 
d="M777 348q-1 -5 -6 -12l-15 -15q-170 -170 -303 -246q-164 -94 -296 -94q-86 0 -86 55q0 64 135 179q74 63 162 124l52 36q8 6 23 15q-63 10 -120 10q-117 0 -170 -57q-10 -11 -16 -11q-9 0 -9 10q0 7 19 26l20 20q73 73 195 73q81 0 169 -27l-4 -26
q-148 -73 -271.5 -173.5t-123.5 -152.5q0 -43 80 -43q124 0 267 80q69 38 138 94q76 61 127 120l13 15q6 7 11 8q9 0 9 -8z" />
    <glyph glyph-name="braceleft" unicode="{" horiz-adv-x="758" 
d="M1232 1406l-12 -24q-82 11 -178 11h-20q-89 -100 -216 -301q-67 -106 -119 -194q-21 -40 -77 -146q-61 -26 -159 -77q-59 -41 -59 -66q0 -9 23 -45q29 -45 42 -88q-39 -89 -93 -211t-84 -228q-8 -30 -28 -106q-21 -87 -21 -151q179 17 342 79l-26 -70q-184 -75 -404 -95
q-1 8 -1 26q0 176 98 423q67 170 160 351q-13 43 -42 88q-23 36 -23 45q0 25 59 66q74 52 169 92q54 89 117 189q168 266 328 443h36q98 0 188 -11z" />
    <glyph glyph-name="bar" unicode="|" horiz-adv-x="1024" 
d="M539 -512h-52l-2 2048h54v-2048z" />
    <glyph glyph-name="braceright" unicode="}" horiz-adv-x="592" 
d="M829 1392q0 -179 -97 -423q-44 -110 -81 -190l-3 -6q9 -7 18 -18q53 -61 53 -107q0 -31 -44 -71q-40 -36 -192 -123q-22 -38 -46 -80q-44 -76 -145 -236q-170 -270 -329 -444h-36q-95 0 -188 11l13 24q8 -1 178 -10l19 -1q91 104 216 301q78 123 132 216q43 75 133 237
q68 39 173 112q44 39 44 71q0 46 -53 107q-9 10 -18 18q20 32 74 173q89 233 91 378q-188 -17 -342 -79l26 71q187 74 404 94v-25z" />
    <glyph glyph-name="asciitilde" unicode="~" horiz-adv-x="1025" 
d="M921 436q-83 -146 -195 -146q-57 0 -210 80q-83 43 -132 43q-87 0 -163 -126l-31 18q84 146 194 146q61 0 181 -63q111 -58 163 -58q88 0 164 124z" />
    <glyph glyph-name="exclamdown" unicode="&#xa1;" horiz-adv-x="564" 
d="M778 1027q-6 -6 -64 -90q-54 -77 -58 -77q-20 0 -23 73q30 63 80 129q19 25 34 25q21 0 31 -60zM599 806q0 -3 -3 -7q-147 -149 -235 -482q-42 -160 -48 -291q-1 -28 -5.5 -37t-15.5 -9q-26 0 -55 116l10 32q87 279 156 413q86 167 151 245q26 31 33 31q12 0 12 -11z" />
    <glyph glyph-name="cent" unicode="&#xa2;" horiz-adv-x="550" 
d="M521 537q0 -44 -39.5 -83.5t-62.5 -39.5q-8 0 -8 9q0 8 16 32l2 3q67 7 67 66q0 19 -17.5 32t-44.5 13q-8 0 -32 -3q-70 -152 -154 -421h15q87 0 230 127l9 8q4 4 8 4q9 0 9 -10q0 -17 -113 -97q-87 -62 -171 -83q-13 -35 -34 -127l-46 -16l45 142q-117 15 -117 122
q0 147 154 281q71 62 151 93l8 18l49 110q1 3 2.5 4.5t2.5 4.5t2 4t1 3l30 7l-66 -143q17 4 32 4q72 0 72 -64zM375 559q-85 -30 -159 -121q-78 -95 -78 -181q0 -85 80 -107q5 10 7 18l31 85q59 161 76 203z" />
    <glyph glyph-name="sterling" unicode="&#xa3;" horiz-adv-x="1050" 
d="M1029 114q-99 -190 -241 -190q-84 0 -175 60q-57 38 -140 104l-15 12q-145 -151 -283 -151q-67 0 -118 42q-54 45 -54 111q0 78 69 128q62 44 143 44q117 0 242 -91q44 68 79 134q-39 -1 -90 -7l22 25q4 0 13 1l46 4l23 2q3 4 17 32h-9q-14 0 -43 -2l-48 -4q-5 0 -14 -1
l20 24q27 0 95 5l10 1q2 4 20 37q25 48 31 59l16 33l5 9q-114 -30 -196 -30q-28 0 -28 16q0 10 11 23q38 -11 64 -11q77 0 164 28l9 17q166 314 283 314q40 0 40 -44q0 -86 -110 -180q-86 -72 -188 -115l-7 -18q-21 -56 -55 -137q5 0 28 -1l86 -2q60 -1 101 -6q61 -7 84 -14
l-29 -28q-117 27 -280 28l-15 -33l15 -1q179 -12 237 -28l-27 -29q-48 16 -101.5 24t-135.5 11l-10 -20q-7 -12 -25 -46q-9 -17 -13 -21l-53 -83l13 -12l99 -81q128 -105 196 -105q112 0 206 171zM958 825q0 31 -33 31q-51 0 -129 -116q-59 -89 -87 -163q147 73 216 167
q33 45 33 81zM422 130q-16 11 -15 11q-123 94 -219 94q-67 0 -113 -33q-53 -37 -53 -101q0 -59 48 -97q45 -35 105 -35q130 0 247 161z" />
    <glyph glyph-name="currency" unicode="&#xa4;" horiz-adv-x="1025" 
d="M931 -20l-26 -26l-137 139q-99 -88 -226 -88q-124 0 -223 85l-133 -136l-25 26l134 134q-89 100 -89 226q0 120 83 221l-134 135l26 26l134 -135q100 89 227 89q128 0 227 -87l136 133l24 -26l-133 -133q84 -103 84 -223q0 -123 -86 -223zM842 340q0 124 -88 212.5
t-212 88.5q-123 0 -211 -88.5t-88 -212.5t88 -212t211 -88q124 0 212 88t88 212z" />
    <glyph glyph-name="yen" unicode="&#xa5;" horiz-adv-x="582" 
d="M671 706q0 -13 -33 -56q-57 -74 -148 -146q-9 -7 -11 -9t-6.5 -5.5l-13.5 -10.5q-33 -46 -71 -124q152 -4 246 -24l-29 -28q-95 21 -172 26q-29 2 -56 3q-8 -12 -16 -33q18 -1 63 -5q79 -7 138 -24l-27 -29q-86 28 -184 34q-53 -130 -53 -238q0 -57 14 -97q2 -8 3 -11
l-47 -72q-12 58 -12 109q0 148 70 310q-9 1 -41 1q-86 0 -142 -7l23 25q66 6 137 6h34q1 1 8 16q3 7 8 16q-17 0 -24 1h-28q-45 0 -135 -6l-15 -1l20 24q108 5 151 5q34 0 43 -1q11 20 30 51l35 57q-109 -64 -187 -64q-81 0 -81 69q0 31 23 69q17 28 109 150q79 105 79 150
q0 50 -55 50q-66 0 -128 -80q-28 -36 -48 -85l-23 -8q104 206 227 206q63 0 63 -59q0 -51 -108 -189q-96 -123 -96 -172q0 -31 24 -50t61 -19q28 0 80.5 19.5t78.5 38.5q5 9 7 9l15 21q32 44 91 110q77 85 101 85q8 0 8 -8z" />
    <glyph glyph-name="brokenbar" unicode="&#xa6;" horiz-adv-x="1024" 
d="M539 618l-53 -1l-1 919h54v-918zM539 -512h-52l-1 926l53 -1v-925z" />
    <glyph glyph-name="section" unicode="&#xa7;" horiz-adv-x="979" 
d="M1078 884q-1 -6 -7 -5q-3 0 -23 16q-68 65 -151 65q-72 0 -123.5 -44t-60.5 -113q-5 -41 12 -170l9 -64q15 -115 2 -223q-20 -166 -128.5 -276.5t-247.5 -110.5q-19 0 -38 3q-62 7 -135.5 47.5t-70.5 65.5q1 8 9 7q5 -1 41 -33q73 -66 160 -66q74 0 135.5 50.5
t70.5 120.5q5 45 -4 112q-30 231 -17 336q21 170 119 277t231 107q18 0 37 -3q51 -6 116.5 -42t63.5 -57zM834 965q-220 -47 -250 -296q-11 -93 3 -277q10 -123 2 -188q-18 -141 -169 -216q214 54 245 306q13 107 0 252q-14 153 -8 204q20 162 177 215z" />
    <glyph glyph-name="dieresis" unicode="&#xa8;" 
d="M351 710q-1 -2 -4 -11q-22 -59 -27 -100l-18 -5q-8 -4 -18 -4q-16 0 -16 24q0 38 22.5 67t60.5 29zM234 710l-4 -11q-24 -65 -27 -100l-18 -5q-8 -4 -19 -4q-16 0 -16 24q0 37 23.5 66.5t60.5 29.5z" />
    <glyph glyph-name="copyright" unicode="&#xa9;" horiz-adv-x="927" 
d="M877 356q0 -171 -121.5 -292t-291.5 -121q-171 0 -292.5 121t-121.5 292t121.5 292.5t292.5 121.5t292 -121.5t121 -292.5zM832 356q0 153 -107.5 261.5t-260.5 108.5t-261 -108.5t-108 -261.5t108 -261.5t261 -108.5t260.5 108.5t107.5 261.5zM697 473h-50l-3 6
q-63 88 -172 88q-90 0 -152 -61.5t-62 -149.5q0 -87 63 -149t152 -62q110 0 171 87l3 6h49l-11 -18q-69 -115 -212 -115q-106 0 -181.5 74t-75.5 178t75 176.5t182 72.5q144 0 214 -116z" />
    <glyph glyph-name="ordfeminine" unicode="&#xaa;" horiz-adv-x="691" 
d="M1116 998q0 -8 -55 -67q-84 -90 -131 -134q-80 -75 -146 -115q-55 -33 -90 -33q-81 0 -81 100q0 28 11 89l-14 -15q-161 -172 -272 -172q-38 0 -61.5 25.5t-23.5 65.5q0 93 104 211q111 125 266 186q85 33 149 33q134 0 134 -87q0 -82 -118 -130l-4 12q75 44 75 101
q0 76 -112 76q-82 0 -179 -54q-89 -49 -149 -117q-99 -113 -99 -190q0 -34 22.5 -54.5t53.5 -20.5q75 0 173 102q73 76 126 167q16 8 26 8q11 0 24 -15q-73 -121 -73 -208q0 -28 15 -46.5t39 -18.5q56 0 175 105q98 87 150 147l24 28q26 30 33 30q8 0 8 -9z" />
    <glyph glyph-name="guillemotleft" unicode="&#xab;" horiz-adv-x="572" 
d="M548 354q-148 -73 -148 -117q0 -7 15 -39q23 -48 23 -99q0 -26 -8 -60h-19q-9 73 -66 159q-9 17 -9 24q0 31 85 84q61 39 114 61zM427 357q-150 -69 -150 -116q0 -4 2 -11l22 -46q15 -31 15 -91q0 -26 -6 -52l-20 -1q-7 69 -53 141q-23 36 -23 45q0 56 201 143z" />
    <glyph glyph-name="logicalnot" unicode="&#xac;" horiz-adv-x="768" 
d="M762 -40h-39v375h-628v35h667v-410z" />
    <glyph glyph-name="minus" unicode="&#xad;" horiz-adv-x="768" 
d="M762 334h-667v37h667v-37z" />
    <glyph glyph-name="minus" unicode="&#x2212;" horiz-adv-x="768" 
d="M762 334h-667v37h667v-37z" />
    <glyph glyph-name="registered" unicode="&#xae;" horiz-adv-x="725" 
d="M675 860q0 -130 -91.5 -221.5t-220.5 -91.5q-130 0 -221.5 91.5t-91.5 221.5t91.5 221t221.5 91q129 0 220.5 -91t91.5 -221zM637 860q0 113 -80.5 193.5t-193.5 80.5t-193 -80t-80 -194t79.5 -193.5t193.5 -79.5t194 80t80 193zM509 920q0 -93 -100 -110h-4l95 -118h-49
l-126 153h48q98 0 98 75q0 73 -120 73h-55v-301h-39v337h94q158 0 158 -109z" />
    <glyph glyph-name="macron" unicode="&#xaf;" 
d="M407 632h-313v25h313v-25z" />
    <glyph glyph-name="macron" unicode="&#x2c9;" 
d="M407 632h-313v25h313v-25z" />
    <glyph glyph-name="degree" unicode="&#xb0;" horiz-adv-x="621" 
d="M519 854q0 -82 -59 -139.5t-142 -57.5q-84 0 -142.5 57.5t-58.5 139.5q0 81 58.5 138t142.5 57q83 0 142 -57.5t59 -137.5zM472 854q0 61 -45 105t-109 44q-63 0 -108.5 -44t-45.5 -105q0 -63 45 -107t109 -44t109 44t45 107z" />
    <glyph glyph-name="plusminus" unicode="&#xb1;" horiz-adv-x="768" 
d="M765 366h-317v-286h-37v286h-316v37h316v287h39v-287h315v-37zM765 -29h-670v37h670v-37z" />
    <glyph glyph-name="twosuperior" unicode="&#xb2;" horiz-adv-x="650" 
d="M602 666q0 -89 -61 -190q-55 -95 -172 -204q61 -79 109 -79q71 0 71 79q0 35 -28 74l20 13q30 -44 30 -87q0 -50 -33.5 -84.5t-83.5 -34.5q-65 0 -132 82q-103 -71 -164 -71q-76 0 -76 85q0 57 34 101q37 48 92 48q64 0 144 -105q70 55 142 159q62 89 62 171
q0 88 -62 128q-29 19 -65 19q-82 0 -126 -85q-20 -40 -23 -103q-23 23 -23 36q0 28 21 72q63 128 181 128q88 0 125 -76q18 -35 18 -76zM307 256q-73 101 -120 101q-42 0 -66 -45q-11 -20 -11 -47q0 -69 65 -69q50 0 132 60z" />
    <glyph glyph-name="threesuperior" unicode="&#xb3;" horiz-adv-x="606" 
d="M563 694q0 -94 -89 -163q48 -55 48 -118q0 -108 -84 -189t-192 -81q-68 0 -115 42q-50 43 -50 112q0 86 87 133l17 -25q-56 -34 -56 -83q0 -56 53 -92q47 -32 106 -32q75 0 134 60.5t59 135.5q0 63 -52 110q-72 -31 -120 -31q-27 0 -52 12q-31 15 -31 40q0 29 34 48
q29 16 75 16q62 0 113 -34q66 46 66 117q0 44 -26 72.5t-69 28.5q-64 0 -127 -74l-32 14q86 105 175 105q57 0 92.5 -33.5t35.5 -90.5zM396 526q-40 20 -88 20q-45 0 -45 -19q0 -8 10 -13q13 -8 37 -8q42 0 86 20z" />
    <glyph glyph-name="acute" unicode="&#xb4;" 
d="M324 708q-75 -52 -115 -115l-14 -22v-1l-1 -1l-2 -2l-16 1q35 150 100 150q19 0 48 -10z" />
    <glyph glyph-name="mu" unicode="&#xb5;" horiz-adv-x="653" 
d="M566 -5v125q-24 -52 -57 -83q-64 -62 -160 -62q-121 0 -191 99v-292h-42v847h42v-377q0 -156 84 -209q47 -29 108 -29q95 0 155 71t60 185v359h42v-634h-41z" />
    <glyph glyph-name="mu" unicode="&#x3bc;" horiz-adv-x="653" 
d="M566 -5v125q-24 -52 -57 -83q-64 -62 -160 -62q-121 0 -191 99v-292h-42v847h42v-377q0 -156 84 -209q47 -29 108 -29q95 0 155 71t60 185v359h42v-634h-41z" />
    <glyph glyph-name="paragraph" unicode="&#xb6;" horiz-adv-x="1694" 
d="M1752 792q0 -43 -11 -83.5t-20 -40.5q-12 0 -12 14q0 9 2 15q12 31 12 92q0 88 -54.5 142t-143.5 54q-145 0 -283 -121q-78 -68 -134.5 -158t-166 -317t-325.5 -333q-152 -75 -276 -75q-119 0 -190 61t-71 164q0 45 28.5 115t45.5 70q12 0 12 -13q0 -5 -7 -16
q-51 -82 -51 -156q0 -90 62.5 -144t167.5 -54q137 0 246.5 82t231.5 278q240 384 419 530q-77 34 -148 34q-138 0 -233.5 -95.5t-95.5 -234.5q0 -134 66 -134q15 0 27 8q2 4 8 4q11 0 11 -10t-33 -22.5t-63 -12.5q-101 0 -175.5 68t-74.5 161q0 129 145.5 218t352.5 89
q129 0 238 -53q138 95 267 95q99 0 162.5 -61.5t63.5 -159.5z" />
    <glyph glyph-name="periodcentered" unicode="&#xb7;" horiz-adv-x="287" 
d="M287 431q0 -46 -50 -96q-33 -33 -62 -33q-14 0 -23.5 10.5t-9.5 23.5q0 57 61 103q32 24 53 24q31 0 31 -32z" />
    <glyph glyph-name="periodcentered" unicode="&#x2219;" horiz-adv-x="287" 
d="M287 431q0 -46 -50 -96q-33 -33 -62 -33q-14 0 -23.5 10.5t-9.5 23.5q0 57 61 103q32 24 53 24q31 0 31 -32z" />
    <glyph glyph-name="cedilla" unicode="&#xb8;" 
d="M348 4q-70 -55 -70 -75q0 -5 3 -12l16 -26q8 -13 8 -22q0 -76 -138 -118l-14 12q107 41 107 89q0 8 -20 36q-10 11 -10 22q0 17 95 100z" />
    <glyph glyph-name="onesuperior" unicode="&#xb9;" horiz-adv-x="471" 
d="M506 810q-65 -81 -126 -191q-142 -252 -142 -437q-46 -41 -64 -41q-19 0 -19 22q0 36 37 142q83 234 220 425l24 35l-39 -26q-31 -19 -140 -80q-29 -16 -42 -16q-18 0 -18 16l2 15q148 61 284 149z" />
    <glyph glyph-name="ordmasculine" unicode="&#xba;" horiz-adv-x="498" 
d="M889 1072q0 -10 -26 -33q-68 -59 -157 -59q-29 0 -75 11q3 -36 3 -48q0 -132 -123 -217q-55 -38 -109 -38q-63 0 -102 46t-39 110q0 166 163 279q71 49 142 49t71 -23q0 -8 -11.5 -20t-19.5 -12q-4 2 -10 4q-32 19 -57 19q-91 0 -157 -81q-63 -76 -63 -169q0 -58 32 -98
q35 -43 91 -43q73 0 124 62q48 59 48 134q0 26 -7 53q-1 1 -3 2l-4 2q-6 3 -9 3q-49 19 -49 42q0 16 20 16q32 0 59 -49q44 -16 85 -16q95 0 161 73q9 10 14 10q8 0 8 -9z" />
    <glyph glyph-name="guillemotright" unicode="&#xbb;" horiz-adv-x="541" 
d="M470 215q0 -54 -177 -162l-18 -11l-16 14l20 13q140 91 140 135q0 40 -89 129l-3 3l19 12q14 9 22 9q30 0 66 -54.5t36 -87.5zM353 219q0 -31 -44 -71q-60 -53 -152 -106l-15 15q162 98 162 150q0 44 -93 132q32 21 41 21q18 0 48 -34q53 -61 53 -107z" />
    <glyph glyph-name="onequarter" unicode="&#xbc;" horiz-adv-x="1188" 
d="M1155 535q0 -21 -24 -57q-61 -95 -121 -208q-12 -22 -22 -43q58 4 83 4q24 0 73 -7l-40 -68q-41 12 -88 12q-28 0 -53 -2q-46 -97 -46 -162q0 -13 3 -37q-32 -19 -49 -36q-4 -6 -12 -6q-22 0 -22 34q0 67 57 196q-108 -21 -133 -21q-81 0 -81 71q0 85 129 206
q115 107 219 148q42 17 74 17q53 0 53 -41zM863 890q-58 -81 -94 -134q-145 -217 -244 -420q-68 -139 -109 -247q-40 -104 -96 -297l-46 17l8 29q31 104 77 224q87 225 196 428q62 114 124 215l23 37q34 55 62 95q24 35 34.5 47t25.5 14q14 2 39 -8zM506 810
q-65 -81 -126 -191q-142 -252 -142 -437q-46 -41 -64 -41q-19 0 -19 22q0 36 37 142q83 234 220 425l24 35l-39 -26q-31 -19 -140 -80q-29 -16 -42 -16q-18 0 -18 16l2 15q148 61 284 149zM1106 523q0 13 -22 13q-49 0 -142 -63q-70 -47 -130 -107q-83 -84 -83 -137
q0 -43 44 -43q24 0 112 21l32 7q6 1 6 3l33 57l3 6q5 8 8 13t7 12q50 83 75 116q57 77 57 102z" />
    <glyph glyph-name="onehalf" unicode="&#xbd;" horiz-adv-x="1143" 
d="M1060 416q0 -89 -60 -190q-56 -95 -173 -204q62 -79 110 -79q70 0 70 79q0 35 -27 74l19 13q31 -44 31 -87q0 -50 -33.5 -84.5t-83.5 -34.5q-65 0 -132 82q-103 -71 -165 -71q-75 0 -75 85q0 57 34 101q37 48 92 48q63 0 144 -105q70 55 142 159q62 89 62 171
q0 88 -62 128q-29 19 -66 19q-81 0 -125 -86q-21 -39 -23 -102q-24 23 -24 36q0 28 22 72q62 128 181 128q87 0 125 -76q17 -35 17 -76zM863 890q-58 -81 -94 -134q-145 -217 -244 -420q-68 -139 -109 -247q-40 -104 -96 -297l-46 17l8 29q31 103 77 224q128 333 320 643
l23 37q34 55 62 95q24 35 34.5 47t25.5 14q14 2 39 -8zM506 810q-65 -81 -126 -191q-142 -252 -142 -437q-46 -41 -64 -41q-19 0 -19 22q0 36 37 142q83 234 220 425l24 35l-39 -26q-31 -19 -140 -80q-29 -16 -42 -16q-18 0 -18 16l2 15q148 61 284 149zM766 6
q-73 100 -121 100q-42 0 -65 -44q-11 -21 -11 -47q0 -69 64 -69q51 0 133 60z" />
    <glyph glyph-name="threequarters" unicode="&#xbe;" horiz-adv-x="1382" 
d="M1350 535q0 -21 -24 -57q-62 -95 -122 -208q-12 -22 -21 -43q58 4 82 4t73 -7l-40 -68q-41 12 -88 12q-28 0 -53 -2q-46 -97 -46 -162q0 -13 4 -37q-33 -19 -50 -36q-3 -6 -12 -6q-21 0 -21 34q0 67 56 196q-108 -21 -133 -21q-80 0 -80 71q0 85 128 206q115 107 219 148
q42 17 75 17q53 0 53 -41zM1057 890q-58 -81 -93 -134q-145 -217 -244 -420q-68 -139 -110 -247q-40 -104 -95 -297l-47 17l9 29q30 103 76 224q87 225 196 428q62 114 125 215l22 37q34 55 62 95q24 35 35 47t25 14t39 -8zM563 694q0 -94 -89 -163q48 -55 48 -118
q0 -108 -84 -189t-192 -81q-68 0 -115 42q-50 44 -50 112q0 86 87 133l17 -25q-56 -34 -56 -83q0 -56 53 -92q47 -32 106 -32q75 0 134 60.5t59 135.5q0 63 -52 110q-72 -31 -120 -31q-27 0 -52 12q-31 15 -31 40q0 29 34 48q29 16 75 16q62 0 113 -34q66 46 66 117
q0 44 -26 72.5t-69 28.5q-64 0 -127 -74l-32 14q86 105 175 105q57 0 92.5 -33.5t35.5 -90.5zM1300 523q0 13 -21 13q-50 0 -142 -63q-70 -47 -131 -107q-83 -84 -83 -137q0 -43 44 -43q24 0 112 21l32 7q7 1 7 3l33 57l3 6q4 8 7 13t7 12q51 83 75 116q57 77 57 102z
M396 526q-40 20 -88 20q-45 0 -45 -19q0 -8 10 -13q13 -8 37 -8q42 0 86 20z" />
    <glyph glyph-name="questiondown" unicode="&#xbf;" horiz-adv-x="740" 
d="M756 1056q0 -76 -55 -177q-41 -25 -61 -25q-11 0 -11 13q0 7 7 21q38 74 39 138q59 54 66 54q15 0 15 -24zM682 714q0 -67 -72 -144q-30 -32 -76 -71q-49 -41 -183 -150q-150 -121 -150 -219q0 -55 43 -92q40 -35 96 -35q123 0 202 102q34 44 34 92q0 23 -13 45
q33 37 45 37q22 0 22 -34q0 -59 -63 -141q-46 -60 -122 -98.5t-151 -38.5q-105 0 -146 71q-16 28 -16 63q0 111 145 221l172 131q188 143 188 224q0 51 -47 51q-28 0 -68 -28q10 94 82 94q78 0 78 -80z" />
    <glyph glyph-name="Agrave" unicode="&#xc0;" horiz-adv-x="1330" 
d="M1453 1321l-17 -1q-2 2 -2 3v1h-1l-13 22q-37 63 -115 115q27 10 47 10q64 0 101 -150zM1460 329q-49 -68 -133 -157q-80 -85 -144 -141q-158 -138 -254 -138q-60 0 -94 61q-28 51 -28 116q0 165 153 454l9 17h-23q-198 0 -334 -41q-3 -4 -10 -11l-29 -35l-34 -39
q-19 -23 -57 -68q-8 -9 -18 -22q-8 -9 -20 -23q-214 -258 -325 -330q-59 -38 -105 -38q-31 0 -48 20t-17 53q0 119 181 270q175 147 413 224q19 6 57 19q4 4 13 14l76 88q14 16 79 86q128 137 192 200q110 109 208 183q170 128 239 128q38 0 38 -33q0 -20 -21 -56
q-12 -21 -57 -84l-38 -54q-109 -151 -172 -248q-48 -75 -94 -156l-9 -16q103 -4 213 -24q31 -6 38 -9q10 -6 10 -16t-10 -24q-2 -4 -9 -15q-135 50 -262 52q-3 -5 -15 -29l-15 -30q-52 -104 -85 -210q-30 -96 -30 -163q0 -148 99 -148q69 0 188 99q124 104 258 271l12 15z
M1400 1172q0 18 -23 18q-36 0 -137 -71q-133 -94 -281 -241q-35 -35 -171 -177q-80 -84 -138 -155l-13 -16q144 32 334 43l18 1l6 11l37 62q86 145 264 372l68 87q36 46 36 66zM580 493q-153 -41 -323 -148q-254 -160 -254 -304q0 -52 52 -52q93 0 262 197z" />
    <glyph glyph-name="Aacute" unicode="&#xc1;" horiz-adv-x="1330" 
d="M1580 1416q-86 -31 -141 -82l-19 -17v-1l-1 -0.5l-3 -1.5l-15 5q72 136 135 119q19 -5 44 -22zM1460 329q-49 -68 -133 -157q-80 -85 -144 -141q-158 -138 -254 -138q-60 0 -94 61q-28 51 -28 116q0 165 153 454l9 17h-23q-198 0 -334 -41q-3 -4 -10 -11l-29 -35l-34 -39
q-19 -23 -57 -68q-8 -9 -18 -22q-8 -9 -20 -23q-214 -258 -325 -330q-59 -38 -105 -38q-31 0 -48 20t-17 53q0 119 181 270q175 147 413 224q19 6 57 19q4 4 13 14l76 88q14 16 79 86q128 137 192 200q110 109 208 183q170 128 239 128q38 0 38 -33q0 -20 -21 -56
q-12 -21 -57 -84l-38 -54q-109 -151 -172 -248q-48 -75 -94 -156l-9 -16q103 -4 213 -24q31 -6 38 -9q10 -6 10 -16t-10 -24q-2 -4 -9 -15q-135 50 -262 52q-3 -5 -15 -29l-15 -30q-52 -104 -85 -210q-30 -96 -30 -163q0 -148 99 -148q69 0 188 99q124 104 258 271l12 15z
M1400 1172q0 18 -23 18q-36 0 -137 -71q-133 -94 -281 -241q-35 -35 -171 -177q-80 -84 -138 -155l-13 -16q144 32 334 43l18 1l6 11l37 62q86 145 264 372l68 87q36 46 36 66zM580 493q-153 -41 -323 -148q-254 -160 -254 -304q0 -52 52 -52q93 0 262 197z" />
    <glyph glyph-name="Acircumflex" unicode="&#xc2;" horiz-adv-x="1330" 
d="M1606 1329l-14 -12q-85 12 -153 87q-77 -37 -131 -76l-23 19l27 17q38 24 89 49q25 12 80 34h1q1 -1 2 -2.5t1 -2.5l14 -18q39 -50 107 -95zM1460 329q-49 -68 -133 -157q-80 -85 -144 -141q-158 -138 -254 -138q-60 0 -94 61q-28 51 -28 116q0 165 153 454l9 17h-23
q-198 0 -334 -41q-3 -4 -10 -11l-29 -35l-34 -39q-19 -23 -57 -68q-8 -9 -18 -22q-8 -9 -20 -23q-214 -258 -325 -330q-59 -38 -105 -38q-31 0 -48 20t-17 53q0 119 181 270q175 147 413 224q19 6 57 19q4 4 13 14l76 88q14 16 79 86q128 137 192 200q110 109 208 183
q170 128 239 128q38 0 38 -33q0 -20 -21 -56q-12 -21 -57 -84l-38 -54q-109 -151 -172 -248q-48 -75 -94 -156l-9 -16q103 -4 213 -24q31 -6 38 -9q10 -6 10 -16t-10 -24q-2 -4 -9 -15q-135 50 -262 52q-3 -5 -15 -29l-15 -30q-52 -104 -85 -210q-30 -96 -30 -163
q0 -148 99 -148q69 0 188 99q124 104 258 271l12 15zM1400 1172q0 18 -23 18q-36 0 -137 -71q-133 -94 -281 -241q-35 -35 -171 -177q-80 -84 -138 -155l-13 -16q144 32 334 43l18 1l6 11l37 62q86 145 264 372l68 87q36 46 36 66zM580 493q-153 -41 -323 -148
q-254 -160 -254 -304q0 -52 52 -52q93 0 262 197z" />
    <glyph glyph-name="Atilde" unicode="&#xc3;" horiz-adv-x="1330" 
d="M1612 1397q-71 -82 -118 -82q-22 0 -50 13l-52 24q-17 8 -36 8q-28 0 -69 -41l-15 12q65 75 111 75q29 0 56 -13l33 -16q33 -16 57 -16q28 0 69 47zM1460 329q-49 -68 -133 -157q-80 -85 -144 -141q-158 -138 -254 -138q-60 0 -94 61q-28 51 -28 116q0 165 153 454l9 17
h-23q-198 0 -334 -41q-3 -4 -10 -11l-29 -35l-34 -39q-19 -23 -57 -68q-8 -9 -18 -22q-8 -9 -20 -23q-214 -258 -325 -330q-59 -38 -105 -38q-31 0 -48 20t-17 53q0 119 181 270q175 147 413 224q19 6 57 19q4 4 13 14l76 88q14 16 79 86q128 137 192 200q110 109 208 183
q170 128 239 128q38 0 38 -33q0 -20 -21 -56q-12 -21 -57 -84l-38 -54q-109 -151 -172 -248q-48 -75 -94 -156l-9 -16q103 -4 213 -24q31 -6 38 -9q10 -6 10 -16t-10 -24q-2 -4 -9 -15q-135 50 -262 52q-3 -5 -15 -29l-15 -30q-52 -104 -85 -210q-30 -96 -30 -163
q0 -148 99 -148q69 0 188 99q124 104 258 271l12 15zM1400 1172q0 18 -23 18q-36 0 -137 -71q-133 -94 -281 -241q-35 -35 -171 -177q-80 -84 -138 -155l-13 -16q144 32 334 43l18 1l6 11l37 62q86 145 264 372l68 87q36 46 36 66zM580 493q-153 -41 -323 -148
q-254 -160 -254 -304q0 -52 52 -52q93 0 262 197z" />
    <glyph glyph-name="Adieresis" unicode="&#xc4;" horiz-adv-x="1330" 
d="M1569 1440q-1 -2 -4 -11q-22 -60 -27 -100l-18 -5q-8 -4 -18 -4q-16 0 -16 24q0 38 22 65q23 31 61 31zM1452 1440l-4 -11q-24 -65 -27 -100l-18 -5q-8 -4 -19 -4q-16 0 -16 24q0 37 23.5 66.5t60.5 29.5zM1460 329q-49 -68 -133 -157q-80 -85 -144 -141
q-158 -138 -254 -138q-60 0 -94 61q-28 51 -28 116q0 165 153 454l9 17h-23q-198 0 -334 -41q-3 -4 -10 -11l-29 -35l-34 -39q-19 -23 -57 -68q-8 -9 -18 -22q-8 -9 -20 -23q-214 -258 -325 -330q-59 -38 -105 -38q-31 0 -48 20t-17 53q0 119 181 270q175 147 413 224
q19 6 57 19q4 4 13 14l76 88q14 16 79 86q128 137 192 200q110 109 208 183q170 128 239 128q38 0 38 -33q0 -20 -21 -56q-12 -21 -57 -84l-38 -54q-109 -151 -172 -248q-48 -75 -94 -156l-9 -16q103 -4 213 -24q31 -6 38 -9q10 -6 10 -16t-10 -24q-2 -4 -9 -15
q-135 50 -262 52q-3 -5 -15 -29l-15 -30q-52 -104 -85 -210q-30 -96 -30 -163q0 -148 99 -148q69 0 188 99q124 104 258 271l12 15zM1400 1172q0 18 -23 18q-36 0 -137 -71q-133 -94 -281 -241q-35 -35 -171 -177q-80 -84 -138 -155l-13 -16q144 32 334 43l18 1l6 11l37 62
q86 145 264 372l68 87q36 46 36 66zM580 493q-153 -41 -323 -148q-254 -160 -254 -304q0 -52 52 -52q93 0 262 197z" />
    <glyph glyph-name="Aring" unicode="&#xc5;" horiz-adv-x="1330" 
d="M1539 1410q0 -36 -23 -64q-24 -31 -59 -31q-44 0 -44 45q0 33 35 66q31 30 58 30q33 0 33 -46zM1460 329q-49 -68 -133 -157q-80 -85 -144 -141q-158 -138 -254 -138q-60 0 -94 61q-28 51 -28 116q0 165 153 454l9 17h-23q-198 0 -334 -41q-3 -4 -10 -11l-29 -35l-34 -39
q-19 -23 -57 -68q-8 -9 -18 -22q-8 -9 -20 -23q-214 -258 -325 -330q-59 -38 -105 -38q-31 0 -48 20t-17 53q0 119 181 270q175 147 413 224q19 6 57 19q4 4 13 14l76 88q14 16 79 86q128 137 192 200q110 109 208 183q170 128 239 128q38 0 38 -33q0 -20 -21 -56
q-12 -21 -57 -84l-38 -54q-109 -151 -172 -248q-48 -75 -94 -156l-9 -16q103 -4 213 -24q31 -6 38 -9q10 -6 10 -16t-10 -24q-2 -4 -9 -15q-135 50 -262 52q-3 -5 -15 -29l-15 -30q-52 -104 -85 -210q-30 -96 -30 -163q0 -148 99 -148q69 0 188 99q124 104 258 271l12 15z
M1498 1380q0 19 -12 52l-7 -6q-34 -29 -34 -52q0 -34 27 -34q26 0 26 40zM1400 1172q0 18 -23 18q-36 0 -137 -71q-133 -94 -281 -241q-35 -35 -171 -177q-80 -84 -138 -155l-13 -16q144 32 334 43l18 1l6 11l37 62q86 145 264 372l68 87q36 46 36 66zM580 493
q-153 -41 -323 -148q-254 -160 -254 -304q0 -52 52 -52q93 0 262 197z" />
    <glyph glyph-name="AE" unicode="&#xc6;" horiz-adv-x="1945" 
d="M2198 1115q0 -44 -56 -67q-43 -17 -94 -17h-16l2 17h20q103 0 103 54q0 81 -255 81q-157 0 -329 -29q-83 -14 -155 -33q-13 -22 -51 -75l-48 -68q-6 -8 -17 -23q-85 -119 -145 -211q-51 -79 -94 -156l-12 -22q405 126 708 126h51q38 0 38 -18q0 -12 -10 -31
q-108 12 -179 12q-225 0 -554 -92q-33 -9 -67 -20l-4 -7q-5 -9 -15 -29q-75 -149 -75 -249q0 -85 46 -170q94 -175 319 -175q237 0 485 188q103 78 245 232l12 13l15 -16q-290 -327 -559 -437q-137 -56 -263 -56q-166 0 -269 104t-103 270q0 147 88 313l9 17h-23
q-198 0 -334 -41q-3 -4 -10 -11l-29 -35l-34 -39q-19 -23 -57 -68q-8 -9 -18 -22q-8 -9 -20 -23q-214 -258 -325 -330q-59 -38 -105 -38q-31 0 -48 20t-17 53q0 119 181 270q175 147 413 224q8 3 20 7l11 4l13 4q8 2 12.5 5t13.5 13l76 88q14 16 79 86q128 137 192 200
q110 109 208 183q170 128 239 128q38 0 38 -33q0 -14 -11 -37q15 1 20 2q213 52 451 52q293 0 293 -88zM1400 1172q0 18 -23 18q-36 0 -137 -71q-133 -94 -281 -241q-35 -35 -171 -177q-80 -84 -138 -155l-13 -16q144 32 334 43l18 1l6 11l37 62q86 145 264 372l68 87
q36 46 36 66zM580 493q-153 -41 -323 -148q-254 -160 -254 -304q0 -52 52 -52q93 0 262 197z" />
    <glyph glyph-name="Ccedilla" unicode="&#xc7;" horiz-adv-x="1140" 
d="M1295 1033q0 -137 -100 -261q-107 -132 -241 -132q-49 0 -89 34t-40 82q0 98 108 171q52 35 109 48l7 -12q-180 -66 -180 -183q0 -44 33 -73.5t77 -29.5q71 0 141 52q61 47 100 115q41 73 41 148q0 155 -136 219q-63 30 -150 30q-153 0 -329 -99q-203 -114 -334 -306
q-148 -217 -148 -470q0 -249 169 -383q115 -91 255 -91q173 0 320 136q71 66 117.5 147t66.5 180l18 -1q-43 -209 -193 -353q-174 -167 -409 -167l-15 -16q-45 -44 -45 -52q0 -7 1 -8l18 -32q4 -7 4 -18q0 -55 -91 -100q-31 -15 -72 -27l-14 15q123 36 123 90q0 11 -6 18
l-15 17q-6 7 -6 16q0 18 80 87l14 12q-75 9 -125 28q-54 21 -100 56q-164 125 -164 365q0 233 130.5 461t349.5 377q224 153 435 153q176 0 250 -116q35 -55 35 -127z" />
    <glyph glyph-name="Egrave" unicode="&#xc8;" horiz-adv-x="1244" 
d="M1208 1320l-17 -1q-1 2 -2 3v1h-1l-13 22q-37 62 -115 115q27 10 47 10q65 0 101 -150zM1497 1115q0 -44 -56 -67q-43 -17 -94 -17h-16l2 17h20q103 0 103 54q0 81 -255 81q-357 0 -615 -106q-56 -23 -105 -57q-21 -15 -21 -27q0 -11 13 -11q3 0 4 1h6q8 2 11 3
q-20 -47 -45 -47q-29 0 -29 32q0 55 151 120q165 71 403 99q111 13 230 13q293 0 293 -88zM1375 330q-290 -327 -559 -437q-137 -56 -263 -56q-166 0 -269 104t-103 270q0 148 84 307l-170 -54l5 19q4 2 23 8q8 3 50 16l87 28l18 6l7 10q30 45 90 129q55 71 94 115
q120 135 257 237l70 52q3 2 9 5l1 1l13 -12l-15 -12q-64 -51 -160 -128q-104 -90 -199 -201q-74 -87 -121 -182l19 6q415 131 725 131h51q38 0 38 -18q0 -12 -10 -31q-108 12 -179 12q-225 0 -554 -92q-16 -5 -99 -30q-61 -112 -61 -250q0 -229 173 -324q83 -46 191 -46
q237 0 485 188q103 78 245 232l12 13z" />
    <glyph glyph-name="Eacute" unicode="&#xc9;" horiz-adv-x="1244" 
d="M1255 1459q-75 -52 -115 -115l-14 -22v-1l-1 -1l-2 -2l-16 1q35 150 100 150q19 0 48 -10zM1497 1115q0 -44 -56 -67q-43 -17 -94 -17h-16l2 17h20q103 0 103 54q0 81 -255 81q-357 0 -615 -106q-56 -23 -105 -57q-21 -15 -21 -27q0 -11 13 -11q3 0 4 1h6q8 2 11 3
q-20 -47 -45 -47q-29 0 -29 32q0 55 151 120q165 71 403 99q111 13 230 13q293 0 293 -88zM1375 330q-290 -327 -559 -437q-137 -56 -263 -56q-166 0 -269 104t-103 270q0 148 84 307l-170 -54l5 19q4 2 23 8q8 3 50 16l87 28l18 6l7 10q30 45 90 129q55 71 94 115
q120 135 257 237l70 52q3 2 9 5l1 1l13 -12l-15 -12q-64 -51 -160 -128q-104 -90 -199 -201q-74 -87 -121 -182l19 6q415 131 725 131h51q38 0 38 -18q0 -12 -10 -31q-108 12 -179 12q-225 0 -554 -92q-16 -5 -99 -30q-61 -112 -61 -250q0 -229 173 -324q83 -46 191 -46
q237 0 485 188q103 78 245 232l12 13z" />
    <glyph glyph-name="Ecircumflex" unicode="&#xca;" horiz-adv-x="1244" 
d="M1354 1340l-13 -13q-85 6 -158 76q-75 -43 -126 -85l-24 17l26 19q36 27 85 55q24 14 77 40h1l2.5 -2.5t1.5 -2.5l15 -17q42 -48 113 -87zM1497 1115q0 -44 -56 -67q-43 -17 -94 -17h-16l2 17h20q103 0 103 54q0 81 -255 81q-357 0 -615 -106q-56 -23 -105 -57
q-21 -15 -21 -27q0 -11 13 -11q3 0 4 1h6q8 2 11 3q-20 -47 -45 -47q-29 0 -29 32q0 55 151 120q165 71 403 99q111 13 230 13q293 0 293 -88zM1375 330q-290 -327 -559 -437q-137 -56 -263 -56q-166 0 -269 104t-103 270q0 148 84 307l-170 -54l5 19q4 2 23 8q8 3 50 16
l87 28l18 6l7 10q30 45 90 129q55 71 94 115q120 135 257 237l70 52q3 2 9 5l1 1l13 -12l-15 -12q-64 -51 -160 -128q-104 -90 -199 -201q-74 -87 -121 -182l19 6q415 131 725 131h51q38 0 38 -18q0 -12 -10 -31q-108 12 -179 12q-225 0 -554 -92q-16 -5 -99 -30
q-61 -112 -61 -250q0 -229 173 -324q83 -46 191 -46q237 0 485 188q103 78 245 232l12 13z" />
    <glyph glyph-name="Edieresis" unicode="&#xcb;" horiz-adv-x="1244" 
d="M1258 1440q0 -2 -4 -11q-21 -59 -27 -100l-18 -5q-8 -4 -18 -4q-16 0 -16 24q0 38 23 67t60 29zM1141 1440l-4 -11q-24 -65 -27 -100l-18 -5q-8 -4 -19 -4q-16 0 -16 24q0 37 23.5 66.5t60.5 29.5zM1497 1115q0 -44 -56 -67q-43 -17 -94 -17h-16l2 17h20q103 0 103 54
q0 81 -255 81q-357 0 -615 -106q-56 -23 -105 -57q-21 -15 -21 -27q0 -11 13 -11q3 0 4 1h6q8 2 11 3q-20 -47 -45 -47q-29 0 -29 32q0 55 151 120q165 71 403 99q111 13 230 13q293 0 293 -88zM1375 330q-290 -327 -559 -437q-137 -56 -263 -56q-166 0 -269 104t-103 270
q0 148 84 307l-170 -54l5 19q4 2 23 8q8 3 50 16l87 28l18 6l7 10q30 45 90 129q55 71 94 115q120 135 257 237l70 52q3 2 9 5l1 1l13 -12l-15 -12q-64 -51 -160 -128q-104 -90 -199 -201q-74 -87 -121 -182l19 6q415 131 725 131h51q38 0 38 -18q0 -12 -10 -31
q-108 12 -179 12q-225 0 -554 -92q-16 -5 -99 -30q-61 -112 -61 -250q0 -229 173 -324q83 -46 191 -46q237 0 485 188q103 78 245 232l12 13z" />
    <glyph glyph-name="Igrave" unicode="&#xcc;" horiz-adv-x="604" 
d="M876 1321l-17 -1q-2 2 -2 3v1h-1l-13 22q-37 63 -115 115q27 10 47 10q64 0 101 -150zM836 1232q0 -64 -180 -210q-72 -59 -174 -118q-37 -49 -107 -160q-91 -145 -151 -277q-38 -83 -57 -131q-70 -177 -70 -272q0 -121 95 -121q116 0 347 206q108 96 196 204l14 -15
l-17 -19q-179 -200 -318 -306q-192 -146 -295 -146q-56 0 -89 41q-30 38 -30 96q0 96 71 262q128 300 350 602l11 15q-135 -42 -209 -42q-12 0 -12 8q0 10 16 29q24 -2 42 -2q100 0 184 36l39 49q66 83 150 167q123 125 172 125q22 0 22 -21z" />
    <glyph glyph-name="Iacute" unicode="&#xcd;" horiz-adv-x="604" 
d="M966 1461q-75 -52 -115 -115l-14 -22v-1l-1 -1l-2 -2l-16 1q35 150 100 150q19 0 48 -10zM836 1232q0 -64 -180 -210q-72 -59 -174 -118q-37 -49 -107 -160q-91 -145 -151 -277q-38 -83 -57 -131q-70 -177 -70 -272q0 -121 95 -121q116 0 347 206q108 96 196 204l14 -15
l-17 -19q-179 -200 -318 -306q-192 -146 -295 -146q-56 0 -89 41q-30 38 -30 96q0 96 71 262q128 300 350 602l11 15q-135 -42 -209 -42q-12 0 -12 8q0 10 16 29q24 -2 42 -2q100 0 184 36l39 49q66 83 150 167q123 125 172 125q22 0 22 -21z" />
    <glyph glyph-name="Icircumflex" unicode="&#xce;" horiz-adv-x="604" 
d="M1020 1334l-13 -13q-85 6 -158 76q-75 -43 -126 -85l-24 17l26 19q36 26 85 55q24 14 77 40l1 -1q1 -1 2 -1q1 -3 2 -3l15 -17q42 -48 113 -87zM836 1232q0 -64 -180 -210q-72 -59 -174 -118q-37 -49 -107 -160q-91 -145 -151 -277q-38 -83 -57 -131q-70 -177 -70 -272
q0 -121 95 -121q116 0 347 206q108 96 196 204l14 -15l-17 -19q-179 -200 -318 -306q-192 -146 -295 -146q-56 0 -89 41q-30 38 -30 96q0 96 71 262q128 300 350 602l11 15q-135 -42 -209 -42q-12 0 -12 8q0 10 16 29q24 -2 42 -2q100 0 184 36l39 49q66 83 150 167
q123 125 172 125q22 0 22 -21z" />
    <glyph glyph-name="Idieresis" unicode="&#xcf;" horiz-adv-x="604" 
d="M948 1434q-1 -2 -4 -11q-21 -59 -27 -100l-18 -5q-8 -4 -18 -4q-16 0 -16 24q0 38 23 67t60 29zM831 1434l-4 -11q-12 -36 -27 -100l-18 -5q-8 -4 -19 -4q-16 0 -16 24q0 37 23.5 66.5t60.5 29.5zM836 1232q0 -64 -180 -210q-72 -59 -174 -118q-37 -49 -107 -160
q-91 -145 -151 -277q-38 -83 -57 -131q-70 -177 -70 -272q0 -121 95 -121q116 0 347 206q108 96 196 204l14 -15l-17 -19q-179 -200 -318 -306q-192 -146 -295 -146q-56 0 -89 41q-30 38 -30 96q0 96 71 262q128 300 350 602l11 15q-135 -42 -209 -42q-12 0 -12 8
q0 10 16 29q24 -2 42 -2q100 0 184 36l39 49q66 83 150 167q123 125 172 125q22 0 22 -21z" />
    <glyph glyph-name="Eth" unicode="&#xd0;" horiz-adv-x="1376" 
d="M1483 993q0 -288 -188 -595q-59 -96 -130 -181q-135 -159 -290 -259q-189 -121 -364 -121q-166 0 -277 114q-66 68 -66 127q0 41 73 106q3 -102 47 -163q57 -80 164 -113q51 -16 109 -16q305 0 589.5 340.5t284.5 701.5q0 131 -61 209q-67 86 -194 86q-209 0 -462 -208
q-183 -150 -309 -294l-7 -19l-28 -73q-13 -33 -27 -67q158 16 275 15l-2 -42q-168 4 -288 -6q-99 -217 -245 -425q-53 -76 -76.5 -105.5t-34.5 -29.5q-12 0 -12 15q0 16 35 100q73 175 160 320q38 64 70 113q-31 -5 -63 -11q-58 -9 -152 -28l25 40q77 17 214 34q34 49 63 84
l20 24l27 35q9 10 30 36q62 202 62 350q0 44 -6 87q23 18 31 18q14 0 14 -33q0 -75 -17 -169q-10 -53 -48 -199l-5 -19l15 16q31 33 82 83q40 39 81 76q370 332 637 332q244 0 244 -286z" />
    <glyph glyph-name="Ntilde" unicode="&#xd1;" horiz-adv-x="1214" 
d="M1507 1401q-71 -82 -118 -82q-22 0 -50 13l-52 24q-17 8 -36 8q-28 0 -69 -41l-15 12q65 75 111 75q29 0 56 -13l33 -16q33 -16 57 -16q28 0 69 47zM1380 1068q0 -115 -161 -391l-137 -235q-83 -143 -114 -263q-15 -59 -15 -105q0 -129 104 -191q-9 -11 -16 -18
q-26 -35 -41 -35q-33 0 -65.5 61.5t-32.5 122.5q0 112 89 299q40 84 145 260q100 167 142.5 263t42.5 163q0 114 -96 114q-156 0 -457 -291q-64 -61 -185 -188l-59 -69q-10 -15 -21 -37q-13 -25 -37 -67l-21 -37q-80 -140 -165 -266q-122 -180 -159 -180q-12 0 -12 14
q0 49 95 193q58 89 123 172q61 79 166 200l26 30q65 138 65 244q0 76 -46.5 129t-121.5 53q-149 0 -268 -174q-54 -79 -70 -164q-16 -5 -21 -5q-9 0 -9 9q0 32 45 108q37 63 68 101q140 169 295 169q79 0 123 -57q41 -52 41 -133q0 -50 -11 -96q-3 -12 -43 -121l-7 -19
l15 17q131 148 285 282q135 117 244 180t182 63q95 0 95 -105z" />
    <glyph glyph-name="Ograve" unicode="&#xd2;" horiz-adv-x="1274" 
d="M1157 1319l-17 -1q-2 2 -2 3v1h-1l-13 22q-37 63 -115 115q27 10 47 10q64 0 101 -150zM1357 982q0 -325 -279 -677q-156 -197 -325 -301q-174 -107 -336 -107q-107 0 -203 56q-143 84 -143 307q0 170 93 337q49 88 114 166q121 146 258 225l5 -19q-185 -114 -303 -292
q-115 -174 -115 -347q0 -99 45 -186q48 -92 131 -137q72 -39 173 -39q352 0 654 431q189 269 189 513q0 189 -118 270q-57 39 -131 39q-141 0 -268 -98q-112 -86 -186 -223q-79 -146 -88 -310q-18 -9 -24 -9q-11 0 -11 15q0 45 33 143q28 84 56 138q127 247 332 349
q96 48 197 48q114 0 182 -80t68 -212z" />
    <glyph glyph-name="Oacute" unicode="&#xd3;" horiz-adv-x="1274" 
d="M1226 1466q-75 -52 -115 -115l-14 -22v-1l-1 -1l-2 -2l-16 1q35 150 100 150q19 0 48 -10zM1357 982q0 -325 -279 -677q-156 -197 -325 -301q-174 -107 -336 -107q-107 0 -203 56q-143 84 -143 307q0 170 93 337q49 88 114 166q121 146 258 225l5 -19
q-185 -114 -303 -292q-115 -174 -115 -347q0 -99 45 -186q48 -92 131 -137q72 -39 173 -39q352 0 654 431q189 269 189 513q0 189 -118 270q-57 39 -131 39q-141 0 -268 -98q-112 -86 -186 -223q-79 -146 -88 -310q-18 -9 -24 -9q-11 0 -11 15q0 45 33 143q28 84 56 138
q127 247 332 349q96 48 197 48q114 0 182 -80t68 -212z" />
    <glyph glyph-name="Ocircumflex" unicode="&#xd4;" horiz-adv-x="1274" 
d="M1294 1341l-13 -13q-85 6 -158 76q-75 -43 -126 -85l-24 17l26 19q36 26 85 55q24 14 77 40h1l2.5 -2.5t1.5 -2.5l15 -17q42 -48 113 -87zM1357 982q0 -325 -279 -677q-156 -197 -325 -301q-174 -107 -336 -107q-107 0 -203 56q-143 84 -143 307q0 170 93 337
q49 88 114 166q121 146 258 225l5 -19q-185 -114 -303 -292q-115 -174 -115 -347q0 -99 45 -186q48 -92 131 -137q72 -39 173 -39q352 0 654 431q189 269 189 513q0 189 -118 270q-57 39 -131 39q-141 0 -268 -98q-112 -86 -186 -223q-79 -146 -88 -310q-18 -9 -24 -9
q-11 0 -11 15q0 45 33 143q28 84 56 138q127 247 332 349q96 48 197 48q114 0 182 -80t68 -212z" />
    <glyph glyph-name="Otilde" unicode="&#xd5;" horiz-adv-x="1274" 
d="M1312 1403q-71 -82 -118 -82q-22 0 -50 13l-52 24q-17 8 -36 8q-28 0 -69 -41l-15 12q65 75 111 75q29 0 56 -13l33 -16q33 -16 57 -16q28 0 69 47zM1357 982q0 -325 -279 -677q-156 -197 -325 -301q-174 -107 -336 -107q-107 0 -203 56q-143 84 -143 307q0 170 93 337
q49 88 114 166q121 146 258 225l5 -19q-185 -114 -303 -292q-115 -174 -115 -347q0 -99 45 -186q48 -92 131 -137q72 -39 173 -39q352 0 654 431q189 269 189 513q0 189 -118 270q-57 39 -131 39q-141 0 -268 -98q-112 -86 -186 -223q-79 -146 -88 -310q-18 -9 -24 -9
q-11 0 -11 15q0 45 33 143q28 84 56 138q127 247 332 349q96 48 197 48q114 0 182 -80t68 -212z" />
    <glyph glyph-name="Odieresis" unicode="&#xd6;" horiz-adv-x="1274" 
d="M1223 1436q-1 -2 -4 -11q-21 -59 -27 -100l-18 -5q-8 -4 -18 -4q-16 0 -16 24q0 38 23 67t60 29zM1106 1436l-4 -11q-24 -65 -27 -100l-18 -5q-8 -4 -19 -4q-16 0 -16 24q0 37 23.5 66.5t60.5 29.5zM1357 982q0 -325 -279 -677q-156 -197 -325 -301q-174 -107 -336 -107
q-107 0 -203 56q-143 84 -143 307q0 170 93 337q49 88 114 166q121 146 258 225l5 -19q-185 -114 -303 -292q-115 -174 -115 -347q0 -99 45 -186q48 -92 131 -137q72 -39 173 -39q352 0 654 431q189 269 189 513q0 189 -118 270q-57 39 -131 39q-141 0 -268 -98
q-112 -86 -186 -223q-79 -146 -88 -310q-18 -9 -24 -9q-11 0 -11 15q0 45 33 143q28 84 56 138q127 247 332 349q96 48 197 48q114 0 182 -80t68 -212z" />
    <glyph glyph-name="multiply" unicode="&#xd7;" horiz-adv-x="768" 
d="M668 580l-226 -226l221 -222l-27 -27l-221 221l-223 -222l-26 26l223 222l-225 225l27 27l225 -224l226 226z" />
    <glyph glyph-name="Oslash" unicode="&#xd8;" horiz-adv-x="1274" 
d="M1357 982q0 -325 -279 -677q-156 -197 -325 -301q-174 -107 -336 -107q-45 0 -89 10l-41 -91l-47 25l14 31q11 25 23 51q-90 34 -137 94q-69 88 -69 243q0 170 93 337q49 88 114 166q121 146 258 225l5 -19q-185 -114 -303 -292q-115 -174 -115 -347q0 -104 49 -194
q53 -95 143 -137q36 73 83 157q76 137 206 360q82 130 187 273q57 78 245 304l37 45q19 22 50 58l13 15q-33 10 -70 10q-141 0 -268 -98q-112 -86 -186 -223q-79 -146 -88 -310q-18 -9 -24 -9q-11 0 -11 15q0 45 33 143q28 84 56 138q127 247 332 349q96 48 197 48
q41 0 76 -10q31 33 43 43q16 13 33 13q18 0 40 -12q-34 -36 -63 -68q29 -18 53 -46q68 -80 68 -212zM1315 912q0 198 -127 276l-33 -36q-132 -147 -189 -215q-135 -163 -254 -339q-97 -144 -245 -410q-40 -73 -79 -153q-13 -25 -26 -53q50 -14 110 -14q352 0 654 431
q189 269 189 513z" />
    <glyph glyph-name="Ugrave" unicode="&#xd9;" horiz-adv-x="1226" 
d="M1153 1321l-17 -1q-2 2 -2 3v1h-1l-13 22q-37 63 -115 115q27 10 47 10q64 0 101 -150zM1363 335q-192 -232 -325 -320q-59 -39 -99 -39q-99 0 -99 159q0 105 54 244l7 18l-17 -17q-100 -100 -184 -173q-167 -145 -253 -199q-101 -63 -179 -63q-92 0 -92 102q0 69 54 182
q38 79 132.5 207t173.5 220l237 278q118 138 118 226q0 55 -46 85q-39 26 -97 26q-166 0 -407 -192q-87 -68 -141 -133l-35 -42l-2 -2l-2 -2l-3 -3l-4 -4l-47 -12q122 147 244 235q272 195 461 195q55 0 93 -26q44 -29 44 -82q0 -92 -126 -240l-271 -319
q-116 -136 -204 -281q-101 -166 -101 -259q0 -37 22.5 -65.5t59.5 -28.5q99 0 303 166q137 112 268 250l18 19q102 227 219 394q102 146 136 146q13 0 13 -15q0 -45 -63 -157q-41 -74 -105 -161q-26 -35 -130 -157l-42 -49q-61 -153 -61 -270q0 -51 18 -92q23 -53 68 -53
q84 0 234 158l79 83q18 21 53 62l12 14z" />
    <glyph glyph-name="Uacute" unicode="&#xda;" horiz-adv-x="1226" 
d="M1264 1457q-75 -52 -115 -115l-14 -22v-1l-1 -1l-2 -2l-16 1q35 150 100 150q19 0 48 -10zM1363 335q-192 -232 -325 -320q-59 -39 -99 -39q-99 0 -99 159q0 105 54 244l7 18l-17 -17q-100 -100 -184 -173q-167 -145 -253 -199q-101 -63 -179 -63q-92 0 -92 102
q0 69 54 182q38 79 132.5 207t173.5 220l237 278q118 138 118 226q0 55 -46 85q-39 26 -97 26q-166 0 -407 -192q-87 -68 -141 -133l-35 -42l-2 -2l-2 -2l-3 -3l-4 -4l-47 -12q122 147 244 235q272 195 461 195q55 0 93 -26q44 -29 44 -82q0 -92 -126 -240l-271 -319
q-116 -136 -204 -281q-101 -166 -101 -259q0 -37 22.5 -65.5t59.5 -28.5q99 0 303 166q137 112 268 250l18 19q102 227 219 394q102 146 136 146q13 0 13 -15q0 -45 -63 -157q-41 -74 -105 -161q-26 -35 -130 -157l-42 -49q-61 -153 -61 -270q0 -51 18 -92q23 -53 68 -53
q84 0 234 158l79 83q18 21 53 62l12 14z" />
    <glyph glyph-name="Ucircumflex" unicode="&#xdb;" horiz-adv-x="1226" 
d="M1366 1337l-13 -13q-85 6 -158 76q-75 -43 -126 -85l-24 17l26 19q36 26 85 55q24 14 77 40h1l2.5 -2.5t1.5 -2.5l15 -17q42 -48 113 -87zM1363 335q-192 -232 -325 -320q-59 -39 -99 -39q-99 0 -99 159q0 105 54 244l7 18l-17 -17q-100 -100 -184 -173
q-167 -145 -253 -199q-101 -63 -179 -63q-92 0 -92 102q0 69 54 182q38 79 132.5 207t173.5 220l237 278q118 138 118 226q0 55 -46 85q-39 26 -97 26q-166 0 -407 -192q-87 -68 -141 -133l-35 -42l-2 -2l-2 -2l-3 -3l-4 -4l-47 -12q122 147 244 235q272 195 461 195
q55 0 93 -26q44 -29 44 -82q0 -92 -126 -240l-271 -319q-116 -136 -204 -281q-101 -166 -101 -259q0 -37 22.5 -65.5t59.5 -28.5q99 0 303 166q137 112 268 250l18 19q102 227 219 394q102 146 136 146q13 0 13 -15q0 -45 -63 -157q-41 -74 -105 -161q-26 -35 -130 -157
l-42 -49q-61 -153 -61 -270q0 -51 18 -92q23 -53 68 -53q84 0 234 158l79 83q18 21 53 62l12 14z" />
    <glyph glyph-name="Udieresis" unicode="&#xdc;" horiz-adv-x="1226" 
d="M1274 1442q-1 -2 -4 -11q-21 -59 -27 -100l-18 -5q-8 -4 -18 -4q-16 0 -16 24q0 38 23 67t60 29zM1157 1442l-4 -11q-24 -65 -27 -100l-18 -5q-8 -4 -19 -4q-16 0 -16 24q0 37 23.5 66.5t60.5 29.5zM1363 335q-192 -232 -325 -320q-59 -39 -99 -39q-99 0 -99 159
q0 105 54 244l7 18l-17 -17q-100 -100 -184 -173q-167 -145 -253 -199q-101 -63 -179 -63q-92 0 -92 102q0 69 54 182q38 79 132.5 207t173.5 220l237 278q118 138 118 226q0 55 -46 85q-39 26 -97 26q-166 0 -407 -192q-87 -68 -141 -133l-35 -42l-2 -2l-2 -2l-3 -3l-4 -4
l-47 -12q122 147 244 235q272 195 461 195q55 0 93 -26q44 -29 44 -82q0 -92 -126 -240l-271 -319q-116 -136 -204 -281q-101 -166 -101 -259q0 -37 22.5 -65.5t59.5 -28.5q99 0 303 166q137 112 268 250l18 19q102 227 219 394q102 146 136 146q13 0 13 -15q0 -45 -63 -157
q-41 -74 -105 -161q-26 -35 -130 -157l-42 -49q-61 -153 -61 -270q0 -51 18 -92q23 -53 68 -53q84 0 234 158l79 83q18 21 53 62l12 14z" />
    <glyph glyph-name="Yacute" unicode="&#xdd;" horiz-adv-x="953" 
d="M1099 1464q-75 -52 -115 -115l-14 -22v-1l-1 -1l-2 -2l-16 1q35 150 100 150q19 0 48 -10zM1190 1061q0 -42 -152 -212q-77 -86 -146 -154q-192 -343 -192 -621q0 -83 35 -182q-17 -27 -54 -87l-10 -16q-23 141 -23 214q0 195 76 389q53 135 109 237l11 20l-14 -12
q-111 -95 -209 -165q-150 -107 -241 -107q-46 0 -74.5 31t-28.5 77q0 80 68 187q48 75 187 245q88 107 109 136q41 56 58 87q35 65 35 118q0 45 -31.5 69.5t-92.5 24.5q-99 0 -217 -71q-101 -60 -179 -146q-90 -99 -127 -198l-39 -8q56 123 161 229q228 230 452 230
q131 0 131 -93q0 -81 -138 -255l-179 -226q-134 -168 -134 -275q0 -100 91 -100q96 0 272 136q109 84 172 144q2 3 9 13q2 3 3.5 6t3.5 5l43 68q84 133 180 232q43 44 62 44q13 0 13 -14z" />
    <glyph glyph-name="Thorn" unicode="&#xde;" horiz-adv-x="1101" 
d="M1323 1047q0 -159 -127.5 -337t-316.5 -246q-92 -33 -182 -33q-136 0 -257 70l-7 -18q-33 -84 -95 -204q-46 -89 -92 -158q-113 -170 -184 -170q-51 0 -51 69q0 103 141 347q90 155 154 241l12 16q-54 93 -54 188q0 35 35 67v-18q0 -105 55 -191l12 16q99 132 136 175
l43 50q1 1 1.5 2t2.5 3t9 11q13 33 36 133q15 123 -16 237q-41 154 -187 115q-76 -20 -158 -88q-40 -33 -73 -72l-1 20q-3 43 11 61q84 103 220 140q170 45 217 -131q16 -61 16 -151q0 -148 -37 -234q305 311 532 311q93 0 149 -60t56 -161zM1261 1004q0 92 -54 151t-145 59
q-139 0 -315 -135q-82 -63 -169 -157q-8 -30 -8 -25l-29 -104q-8 -29 -26 -86l-56 -157q128 -91 270 -91q137 0 263 82q119 76 194 201.5t75 261.5zM546 882q-57 -63 -130 -159q-32 -42 -52 -70q28 -49 80 -90l12 35q22 62 53 151q19 58 37 133zM423 511q-52 35 -94 96
q-124 -177 -200 -321q-78 -148 -78 -213q0 -56 45 -56q58 0 144 128q45 68 87 152q40 80 88 195z" />
    <glyph glyph-name="germandbls" unicode="&#xdf;" horiz-adv-x="676" 
d="M807 333q0 -10 -70 -80q-104 -104 -189 -168q-41 -31 -68 -46q-44 -24 -87 -35q-21 -5 -111 -17q-52 -8 -61 -8q-27 0 -60 13q-41 17 -41 40q0 22 23 22q13 0 48 -14q48 -19 94 -26q127 47 127 165q0 72 -64 175q-42 68 -42 94q0 32 82 90q162 114 239 267q37 73 37 126
q0 65 -52 65q-72 0 -193 -180q-92 -138 -172 -290q-63 -120 -117 -273q-74 -208 -74 -357v-19l-6 -9q-28 -42 -43 -42q-19 0 -19 38q0 107 76 321q78 219 181 399q147 257 267 384q77 82 135 82q59 0 59 -70q0 -89 -74 -211q-76 -126 -168 -197l-58 -45q-52 -40 -52 -66
q0 -17 47 -87q76 -113 76 -183q0 -98 -116 -172q81 8 187 90q117 90 209 193l26 29q9 10 16 10q8 0 8 -8z" />
    <glyph glyph-name="agrave" unicode="&#xe0;" horiz-adv-x="691" 
d="M517 568l-17 -1q-2 2 -2 3v1h-1l-13 22q-37 63 -115 115q27 10 47 10q64 0 101 -150zM821 336q0 -8 -55 -67q-84 -90 -131 -134q-80 -75 -146 -115q-55 -33 -90 -33q-81 0 -81 100q0 28 11 89l-14 -15q-161 -172 -272 -172q-38 0 -61.5 25.5t-23.5 65.5q0 93 104 211
q111 125 266 186q85 33 149 33q134 0 134 -87q0 -82 -118 -130l-4 12q75 44 75 101q0 76 -112 76q-82 0 -179 -54q-89 -49 -149 -117q-99 -113 -99 -190q0 -34 22.5 -54.5t53.5 -20.5q75 0 173 102q73 76 126 167q16 8 26 8q11 0 24 -15q-73 -121 -73 -208q0 -28 15 -46.5
t39 -18.5q56 0 175 105q98 87 150 147l24 28q26 30 33 30q8 0 8 -9z" />
    <glyph glyph-name="aacute" unicode="&#xe1;" horiz-adv-x="691" 
d="M613 708q-75 -52 -115 -115l-14 -22v-1l-1 -1l-2 -2l-16 1q35 150 100 150q19 0 48 -10zM821 336q0 -8 -55 -67q-84 -90 -131 -134q-80 -75 -146 -115q-55 -33 -90 -33q-81 0 -81 100q0 28 11 89l-14 -15q-161 -172 -272 -172q-38 0 -61.5 25.5t-23.5 65.5q0 93 104 211
q111 125 266 186q85 33 149 33q134 0 134 -87q0 -82 -118 -130l-4 12q75 44 75 101q0 76 -112 76q-82 0 -179 -54q-89 -49 -149 -117q-99 -113 -99 -190q0 -34 22.5 -54.5t53.5 -20.5q75 0 173 102q73 76 126 167q16 8 26 8q11 0 24 -15q-73 -121 -73 -208q0 -28 15 -46.5
t39 -18.5q56 0 175 105q98 87 150 147l24 28q26 30 33 30q8 0 8 -9z" />
    <glyph glyph-name="acircumflex" unicode="&#xe2;" horiz-adv-x="691" 
d="M635 609l-13 -13q-85 6 -158 76q-75 -43 -126 -85l-24 17l26 19q36 26 85 55q24 14 77 40h1l2.5 -2.5t1.5 -2.5l15 -17q42 -48 113 -87zM821 336q0 -8 -55 -67q-84 -90 -131 -134q-80 -75 -146 -115q-55 -33 -90 -33q-81 0 -81 100q0 28 11 89l-14 -15
q-161 -172 -272 -172q-38 0 -61.5 25.5t-23.5 65.5q0 93 104 211q111 125 266 186q85 33 149 33q134 0 134 -87q0 -82 -118 -130l-4 12q75 44 75 101q0 76 -112 76q-82 0 -179 -54q-89 -49 -149 -117q-99 -113 -99 -190q0 -34 22.5 -54.5t53.5 -20.5q75 0 173 102
q73 76 126 167q16 8 26 8q11 0 24 -15q-73 -121 -73 -208q0 -28 15 -46.5t39 -18.5q56 0 175 105q98 87 150 147l24 28q26 30 33 30q8 0 8 -9z" />
    <glyph glyph-name="atilde" unicode="&#xe3;" horiz-adv-x="691" 
d="M654 686q-71 -82 -118 -82q-22 0 -50 13l-52 24q-17 8 -36 8q-28 0 -69 -41l-15 12q65 75 111 75q29 0 56 -13l33 -16q33 -16 57 -16q28 0 69 47zM821 336q0 -8 -55 -67q-84 -90 -131 -134q-80 -75 -146 -115q-55 -33 -90 -33q-81 0 -81 100q0 28 11 89l-14 -15
q-161 -172 -272 -172q-38 0 -61.5 25.5t-23.5 65.5q0 93 104 211q111 125 266 186q85 33 149 33q134 0 134 -87q0 -82 -118 -130l-4 12q75 44 75 101q0 76 -112 76q-82 0 -179 -54q-89 -49 -149 -117q-99 -113 -99 -190q0 -34 22.5 -54.5t53.5 -20.5q75 0 173 102
q73 76 126 167q16 8 26 8q11 0 24 -15q-73 -121 -73 -208q0 -28 15 -46.5t39 -18.5q56 0 175 105q98 87 150 147l24 28q26 30 33 30q8 0 8 -9z" />
    <glyph glyph-name="adieresis" unicode="&#xe4;" horiz-adv-x="691" 
d="M583 710q-1 -2 -4 -11q-21 -59 -27 -100l-18 -5q-8 -4 -18 -4q-16 0 -16 24q0 38 23 67t60 29zM466 710l-4 -11q-24 -65 -27 -100l-18 -5q-8 -4 -19 -4q-16 0 -16 24q0 37 23.5 66.5t60.5 29.5zM821 336q0 -8 -55 -67q-84 -90 -131 -134q-80 -75 -146 -115
q-55 -33 -90 -33q-81 0 -81 100q0 28 11 89l-14 -15q-161 -172 -272 -172q-38 0 -61.5 25.5t-23.5 65.5q0 93 104 211q111 125 266 186q85 33 149 33q134 0 134 -87q0 -82 -118 -130l-4 12q75 44 75 101q0 76 -112 76q-82 0 -179 -54q-89 -49 -149 -117q-99 -113 -99 -190
q0 -34 22.5 -54.5t53.5 -20.5q75 0 173 102q73 76 126 167q16 8 26 8q11 0 24 -15q-73 -121 -73 -208q0 -28 15 -46.5t39 -18.5q56 0 175 105q98 87 150 147l24 28q26 30 33 30q8 0 8 -9z" />
    <glyph glyph-name="aring" unicode="&#xe5;" horiz-adv-x="691" 
d="M563 672q0 -36 -23 -64q-24 -31 -59 -31q-44 0 -44 45q0 33 35 66q31 30 58 30q33 0 33 -46zM821 336q0 -8 -55 -67q-84 -90 -131 -134q-80 -75 -146 -115q-55 -33 -90 -33q-81 0 -81 100q0 28 11 89l-14 -15q-161 -172 -272 -172q-38 0 -61.5 25.5t-23.5 65.5
q0 93 104 211q111 125 266 186q85 33 149 33q134 0 134 -87q0 -82 -118 -130l-4 12q75 44 75 101q0 76 -112 76q-82 0 -179 -54q-89 -49 -149 -117q-99 -113 -99 -190q0 -34 22.5 -54.5t53.5 -20.5q75 0 173 102q73 76 126 167q16 8 26 8q11 0 24 -15q-73 -121 -73 -208
q0 -28 15 -46.5t39 -18.5q56 0 175 105q98 87 150 147l24 28q26 30 33 30q8 0 8 -9zM522 642q0 19 -12 52l-7 -6q-34 -29 -34 -52q0 -34 27 -34q26 0 26 40z" />
    <glyph glyph-name="ae" unicode="&#xe6;" horiz-adv-x="865" 
d="M1001 345q0 -5 -12 -19q-307 -358 -474 -358q-110 0 -125 119q-188 -94 -292 -94q-86 0 -86 71q0 122 180 202q79 35 157 35q50 0 95 -21l12 19q50 79 50 107q0 55 -69 55q-93 0 -207 -91l-5 -4l-18 10q145 112 252 112q94 0 94 -70v-11l4 4q83 65 154 65q62 0 62 -52
q0 -63 -102 -151q-86 -74 -223 -153q5 -44 35 -71q27 -23 70 -23q111 0 278 162q88 85 132 137l12 14q12 14 17 15q9 0 9 -9zM721 406q0 42 -47 40q-103 -5 -184 -164q-35 -69 -43 -139q90 50 164 110q110 90 110 153zM429 252q-41 29 -90 29q-84 0 -178 -64
q-85 -58 -85 -117q0 -63 83 -63q88 0 230 73q0 49 37 135z" />
    <glyph glyph-name="ccedilla" unicode="&#xe7;" horiz-adv-x="480" 
d="M610 339q-1 -4 -5 -10l-6 -8q-22 -29 -87 -97q-57 -60 -113 -109q-152 -134 -253 -134q-10 0 -28 2q-46 -36 -46 -54q0 -5 3 -12l16 -26q8 -13 8 -22q0 -76 -138 -118l-14 12q107 41 107 89q0 8 -20 36q-10 11 -10 22q0 17 71 79q-73 34 -73 130q0 166 173 308
q111 91 202 91q83 0 83 -65q0 -68 -86 -123q-42 -27 -73 -27q-14 0 -14 7q0 9 31 34q3 0 8 -1t8 -1q35 0 66 28.5t31 63.5q0 56 -73 56q-39 0 -75 -15.5t-75 -46.5q-154 -123 -154 -268q0 -48 32 -87t79 -39q83 0 228 122q76 64 176 181q8 9 13 10q8 0 8 -8z" />
    <glyph glyph-name="egrave" unicode="&#xe8;" horiz-adv-x="486" 
d="M381 568l-17 -1q-2 2 -2 3v1h-1l-13 22q-37 63 -115 115q27 10 47 10q64 0 101 -150zM622 343q0 -6 -35 -45q-150 -168 -254 -247q-118 -89 -199 -89q-57 0 -93 38.5t-36 95.5q0 81 59 174q52 81 124 139q81 65 144 65q65 0 65 -55q0 -103 -149 -175q-66 -32 -127 -32
q-10 0 -42 3q-13 -45 -13 -78q0 -50 30.5 -83t80.5 -33q94 0 231 122q74 66 153 155l24 27q4 5 13.5 15.5t15.5 10.5q8 0 8 -8zM353 400q0 41 -45 41q-66 0 -153 -96q-36 -40 -67 -109q15 -4 38 -4q113 0 192 91q35 40 35 77z" />
    <glyph glyph-name="eacute" unicode="&#xe9;" horiz-adv-x="486" 
d="M490 708q-75 -52 -115 -115l-14 -22v-1l-1 -1l-2 -2l-16 1q35 150 100 150q19 0 48 -10zM622 343q0 -6 -35 -45q-150 -168 -254 -247q-118 -89 -199 -89q-57 0 -93 38.5t-36 95.5q0 81 59 174q52 81 124 139q81 65 144 65q65 0 65 -55q0 -103 -149 -175q-66 -32 -127 -32
q-10 0 -42 3q-13 -45 -13 -78q0 -50 30.5 -83t80.5 -33q94 0 231 122q74 66 153 155l24 27q4 5 13.5 15.5t15.5 10.5q8 0 8 -8zM353 400q0 41 -45 41q-66 0 -153 -96q-36 -40 -67 -109q15 -4 38 -4q113 0 192 91q35 40 35 77z" />
    <glyph glyph-name="ecircumflex" unicode="&#xea;" horiz-adv-x="486" 
d="M513 609l-13 -13q-85 6 -158 76q-75 -43 -126 -85l-24 17l26 19q36 26 85 55q24 14 77 40h1l2.5 -2.5t1.5 -2.5l15 -17q42 -48 113 -87zM622 343q0 -6 -35 -45q-150 -168 -254 -247q-118 -89 -199 -89q-57 0 -93 38.5t-36 95.5q0 81 59 174q52 81 124 139q81 65 144 65
q65 0 65 -55q0 -103 -149 -175q-66 -32 -127 -32q-10 0 -42 3q-13 -45 -13 -78q0 -50 30.5 -83t80.5 -33q94 0 231 122q74 66 153 155l24 27q4 5 13.5 15.5t15.5 10.5q8 0 8 -8zM353 400q0 41 -45 41q-66 0 -153 -96q-36 -40 -67 -109q15 -4 38 -4q113 0 192 91q35 40 35 77
z" />
    <glyph glyph-name="edieresis" unicode="&#xeb;" horiz-adv-x="486" 
d="M460 710q-1 -2 -4 -11q-21 -59 -27 -100l-18 -5q-8 -4 -18 -4q-16 0 -16 24q0 38 23 67t60 29zM343 710l-4 -11q-24 -65 -27 -100l-18 -5q-8 -4 -19 -4q-16 0 -16 24q0 37 23.5 66.5t60.5 29.5zM622 343q0 -6 -35 -45q-150 -168 -254 -247q-118 -89 -199 -89
q-57 0 -93 38.5t-36 95.5q0 81 59 174q52 81 124 139q81 65 144 65q65 0 65 -55q0 -103 -149 -175q-66 -32 -127 -32q-10 0 -42 3q-13 -45 -13 -78q0 -50 30.5 -83t80.5 -33q94 0 231 122q74 66 153 155l24 27q4 5 13.5 15.5t15.5 10.5q8 0 8 -8zM353 400q0 41 -45 41
q-66 0 -153 -96q-36 -40 -67 -109q15 -4 38 -4q113 0 192 91q35 40 35 77z" />
    <glyph glyph-name="igrave" unicode="&#xec;" horiz-adv-x="402" 
d="M258 568l-17 -1q-2 2 -2 3v1h-1l-13 22q-37 63 -115 115q27 10 47 10q64 0 101 -150zM532 334q-8 -13 -52 -59q-172 -179 -294 -247q-61 -34 -101 -34q-73 0 -73 79q0 89 83 234q29 50 56 89q43 13 69 14l-10 -15q-66 -98 -101 -180q-30 -69 -30 -121q0 -53 43 -53
q77 0 229 135q78 69 140 138q26 29 32 29q9 0 9 -9z" />
    <glyph glyph-name="iacute" unicode="&#xed;" horiz-adv-x="402" 
d="M381 708q-75 -52 -115 -115l-14 -22v-1l-1 -1l-2 -2l-16 1q35 150 100 150q19 0 48 -10zM532 334q-8 -13 -52 -59q-172 -179 -294 -247q-61 -34 -101 -34q-73 0 -73 79q0 89 83 234q29 50 56 89q43 13 69 14l-10 -15q-66 -98 -101 -180q-30 -69 -30 -121q0 -53 43 -53
q77 0 229 135q78 69 140 138q26 29 32 29q9 0 9 -9z" />
    <glyph glyph-name="icircumflex" unicode="&#xee;" horiz-adv-x="402" 
d="M431 609l-13 -13q-85 6 -158 76q-75 -43 -126 -85l-24 17l26 19q36 26 85 55q24 14 77 40h1l2.5 -2.5t1.5 -2.5l15 -17q42 -48 113 -87zM532 334q-8 -13 -52 -59q-172 -179 -294 -247q-61 -34 -101 -34q-73 0 -73 79q0 89 83 234q29 50 56 89q43 13 69 14l-10 -15
q-66 -98 -101 -180q-30 -69 -30 -121q0 -53 43 -53q77 0 229 135q78 69 140 138q26 29 32 29q9 0 9 -9z" />
    <glyph glyph-name="idieresis" unicode="&#xef;" horiz-adv-x="402" 
d="M364 710q-1 -2 -4 -11q-21 -59 -27 -100l-18 -5q-8 -4 -18 -4q-16 0 -16 24q0 38 23 67t60 29zM247 710l-4 -11q-24 -65 -27 -100l-18 -5q-8 -4 -19 -4q-16 0 -16 24q0 37 23.5 66.5t60.5 29.5zM532 334q-8 -13 -52 -59q-172 -179 -294 -247q-61 -34 -101 -34
q-73 0 -73 79q0 89 83 234q29 50 56 89q43 13 69 14l-10 -15q-66 -98 -101 -180q-30 -69 -30 -121q0 -53 43 -53q77 0 229 135q78 69 140 138q26 29 32 29q9 0 9 -9z" />
    <glyph glyph-name="eth" unicode="&#xf0;" horiz-adv-x="498" 
d="M638 343q0 -10 -26 -33q-68 -59 -157 -59q-28 0 -72 10q2 -23 2 -47q0 -132 -123 -217q-55 -38 -109 -38q-63 0 -102 46t-39 110q0 166 163 279q71 49 142 49q-40 101 -108 181q-72 -2 -135 -7l12 19q23 2 105 8q-56 59 -114 80q-20 7 -39 7q-43 0 -86 -34q-23 43 -17 58
q7 21 46 25q37 4 85 -13q79 -29 155 -121q95 5 140 5l1 -28q-67 2 -124 1q60 -79 99 -182q51 -4 51 -22q0 -8 -11.5 -20t-19.5 -12q-1 0 -2 1q18 -58 25 -107q52 -13 75 -13q95 0 161 73q9 10 14 10q8 0 8 -9zM332 400q-23 11 -42 11q-91 0 -157 -81q-63 -76 -63 -169
q0 -58 32 -98q35 -43 91 -43q69 0 120.5 58.5t51.5 148.5q0 69 -33 173z" />
    <glyph glyph-name="ntilde" unicode="&#xf1;" horiz-adv-x="809" 
d="M641 686q-71 -82 -118 -82q-22 0 -50 13l-52 24q-17 8 -36 8q-28 0 -69 -41l-15 12q65 75 111 75q29 0 56 -13l33 -16q33 -16 57 -16q28 0 69 47zM945 339q0 -5 -31 -39l-62 -67q-200 -216 -315 -216q-72 0 -72 84q0 29 4 50q9 47 25 115q5 21 5 34q0 29 -25 29
q-29 0 -109 -50q-205 -128 -304 -232q-35 -37 -45 -37q-16 0 -16 31q0 58 60 186q51 107 98 175q25 13 73 24q-74 -120 -122 -221q-32 -68 -32 -80q0 -10 9 -10q6 0 42 27q155 117 254 174q49 28 86 43.5t58 15.5q37 0 37 -42q0 -20 -14 -86q-21 -98 -21 -130q0 -60 50 -60
q73 0 250 179q50 51 90 96q14 16 19 16q8 0 8 -9z" />
    <glyph glyph-name="ograve" unicode="&#xf2;" horiz-adv-x="498" 
d="M340 568l-17 -1q-2 2 -2 3v1h-1l-13 22q-37 63 -115 115q27 10 47 10q64 0 101 -150zM640 343q0 -10 -26 -33q-68 -59 -157 -59q-29 0 -75 11q3 -36 3 -48q0 -132 -123 -217q-55 -38 -109 -38q-63 0 -102 46t-39 110q0 166 163 279q71 49 142 49t71 -23q0 -8 -11.5 -20
t-19.5 -12q-4 2 -10 4q-32 19 -57 19q-91 0 -157 -81q-63 -76 -63 -169q0 -58 32 -98q35 -43 91 -43q73 0 124 62q48 59 48 134q0 26 -7 53q-1 1 -3 2l-4 2q-6 3 -9 3q-49 19 -49 42q0 16 20 16q32 0 59 -49q44 -16 85 -16q95 0 161 73q9 10 14 10q8 0 8 -9z" />
    <glyph glyph-name="oacute" unicode="&#xf3;" horiz-adv-x="498" 
d="M449 708q-75 -52 -115 -115l-14 -22v-1l-1 -1l-2 -2l-16 1q35 150 100 150q19 0 48 -10zM640 343q0 -10 -26 -33q-68 -59 -157 -59q-29 0 -75 11q3 -36 3 -48q0 -132 -123 -217q-55 -38 -109 -38q-63 0 -102 46t-39 110q0 166 163 279q71 49 142 49t71 -23
q0 -8 -11.5 -20t-19.5 -12q-4 2 -10 4q-32 19 -57 19q-91 0 -157 -81q-63 -76 -63 -169q0 -58 32 -98q35 -43 91 -43q73 0 124 62q48 59 48 134q0 26 -7 53q-1 1 -3 2l-4 2q-6 3 -9 3q-49 19 -49 42q0 16 20 16q32 0 59 -49q44 -16 85 -16q95 0 161 73q9 10 14 10q8 0 8 -9z
" />
    <glyph glyph-name="ocircumflex" unicode="&#xf4;" horiz-adv-x="498" 
d="M513 609l-13 -13q-85 6 -158 76q-75 -43 -126 -85l-24 17l26 19q36 26 85 55q24 14 77 40h1l2.5 -2.5t1.5 -2.5l15 -17q42 -48 113 -87zM640 343q0 -10 -26 -33q-68 -59 -157 -59q-29 0 -75 11q3 -36 3 -48q0 -132 -123 -217q-55 -38 -109 -38q-63 0 -102 46t-39 110
q0 166 163 279q71 49 142 49t71 -23q0 -8 -11.5 -20t-19.5 -12q-4 2 -10 4q-32 19 -57 19q-91 0 -157 -81q-63 -76 -63 -169q0 -58 32 -98q35 -43 91 -43q73 0 124 62q48 59 48 134q0 26 -7 53q-1 1 -3 2l-4 2q-6 3 -9 3q-49 19 -49 42q0 16 20 16q32 0 59 -49
q44 -16 85 -16q95 0 161 73q9 10 14 10q8 0 8 -9z" />
    <glyph glyph-name="otilde" unicode="&#xf5;" horiz-adv-x="498" 
d="M545 686q-71 -82 -118 -82q-22 0 -50 13l-52 24q-17 8 -36 8q-28 0 -69 -41l-15 12q65 75 111 75q29 0 56 -13l33 -16q33 -16 57 -16q28 0 69 47zM640 343q0 -10 -26 -33q-68 -59 -157 -59q-29 0 -75 11q3 -36 3 -48q0 -132 -123 -217q-55 -38 -109 -38q-63 0 -102 46
t-39 110q0 166 163 279q71 49 142 49t71 -23q0 -8 -11.5 -20t-19.5 -12q-4 2 -10 4q-32 19 -57 19q-91 0 -157 -81q-63 -76 -63 -169q0 -58 32 -98q35 -43 91 -43q73 0 124 62q48 59 48 134q0 26 -7 53q-1 1 -3 2l-4 2q-6 3 -9 3q-49 19 -49 42q0 16 20 16q32 0 59 -49
q44 -16 85 -16q95 0 161 73q9 10 14 10q8 0 8 -9z" />
    <glyph glyph-name="odieresis" unicode="&#xf6;" horiz-adv-x="498" 
d="M433 710q-1 -2 -4 -11q-21 -59 -27 -100l-18 -5q-8 -4 -18 -4q-16 0 -16 24q0 38 23 67t60 29zM316 710l-4 -11q-24 -65 -27 -100l-18 -5q-8 -4 -19 -4q-16 0 -16 24q0 37 23.5 66.5t60.5 29.5zM640 343q0 -10 -26 -33q-68 -59 -157 -59q-29 0 -75 11q3 -36 3 -48
q0 -132 -123 -217q-55 -38 -109 -38q-63 0 -102 46t-39 110q0 166 163 279q71 49 142 49t71 -23q0 -8 -11.5 -20t-19.5 -12q-4 2 -10 4q-32 19 -57 19q-91 0 -157 -81q-63 -76 -63 -169q0 -58 32 -98q35 -43 91 -43q73 0 124 62q48 59 48 134q0 26 -7 53q-1 1 -3 2l-4 2
q-6 3 -9 3q-49 19 -49 42q0 16 20 16q32 0 59 -49q44 -16 85 -16q95 0 161 73q9 10 14 10q8 0 8 -9z" />
    <glyph glyph-name="divide" unicode="&#xf7;" horiz-adv-x="751" 
d="M471 647q0 -43 -43 -43q-44 0 -44 43q0 45 44 45q43 0 43 -45zM762 334h-667v37h667v-37zM471 57q0 -43 -43 -43q-44 0 -44 43q0 45 44 45q43 0 43 -45z" />
    <glyph glyph-name="oslash" unicode="&#xf8;" horiz-adv-x="459" 
d="M507 534q-27 -27 -68 -74q-53 -61 -99 -117l-9 -11q52 -25 52 -100q0 -98 -69 -183q-73 -90 -169 -90q-21 0 -51 11q-54 -108 -74 -158l-32 11q31 70 82 161q-57 53 -57 130q0 155 145 267q78 60 160 60q27 0 54 -7l12 14q4 5 11 13l7 8l37 42q14 16 24 25q8 6 20 6
q8 0 24 -8zM343 397q-33 12 -59 12q-113 0 -186 -128q-32 -56 -32 -115q0 -63 44 -110l14 23q72 119 145 220q-13 -1 -38 -13q9 53 69 55zM360 213q0 69 -56 84q-55 -71 -89 -121q-23 -38 -75 -122l-10 -16q31 -19 63 -19q72 0 121 62q46 59 46 132z" />
    <glyph glyph-name="ugrave" unicode="&#xf9;" horiz-adv-x="750" 
d="M435 568l-17 -1q-2 2 -2 3v1h-1l-13 22q-37 63 -115 115q27 10 47 10q64 0 101 -150zM887 337q0 -9 -68 -78q-63 -65 -198 -182q-104 -76 -164 -76q-66 0 -66 85q0 67 42 158q-3 -2 -8 -7l-3 -3q-2 -2 -4 -3l-61 -61q-166 -166 -279 -166q-66 0 -66 78q0 135 155 341
q33 13 71 16q-39 -49 -82 -123q-86 -148 -86 -224q0 -53 44 -53q59 0 161 87q134 113 228 232l43 -8q-97 -185 -97 -261q0 -53 39 -53q90 0 334 256q51 53 56 53q9 0 9 -8z" />
    <glyph glyph-name="uacute" unicode="&#xfa;" horiz-adv-x="750" 
d="M544 708q-75 -52 -115 -115l-14 -22v-1l-1 -1l-2 -2l-16 1q35 150 100 150q19 0 48 -10zM887 337q0 -9 -68 -78q-63 -65 -198 -182q-104 -76 -164 -76q-66 0 -66 85q0 67 42 158q-3 -2 -8 -7l-3 -3q-2 -2 -4 -3l-61 -61q-166 -166 -279 -166q-66 0 -66 78q0 135 155 341
q33 13 71 16q-39 -49 -82 -123q-86 -148 -86 -224q0 -53 44 -53q59 0 161 87q134 113 228 232l43 -8q-97 -185 -97 -261q0 -53 39 -53q90 0 334 256q51 53 56 53q9 0 9 -8z" />
    <glyph glyph-name="ucircumflex" unicode="&#xfb;" horiz-adv-x="750" 
d="M581 609l-13 -13q-85 6 -158 76q-75 -43 -126 -85l-24 17l26 19q36 26 85 55q24 14 77 40h1l2.5 -2.5t1.5 -2.5l15 -17q42 -48 113 -87zM887 337q0 -9 -68 -78q-63 -65 -198 -182q-104 -76 -164 -76q-66 0 -66 85q0 67 42 158q-3 -2 -8 -7l-3 -3q-2 -2 -4 -3l-61 -61
q-166 -166 -279 -166q-66 0 -66 78q0 135 155 341q33 13 71 16q-39 -49 -82 -123q-86 -148 -86 -224q0 -53 44 -53q59 0 161 87q134 113 228 232l43 -8q-97 -185 -97 -261q0 -53 39 -53q90 0 334 256q51 53 56 53q9 0 9 -8z" />
    <glyph glyph-name="udieresis" unicode="&#xfc;" horiz-adv-x="750" 
d="M501 710q-1 -2 -4 -11q-21 -59 -27 -100l-18 -5q-8 -4 -18 -4q-16 0 -16 24q0 38 23 67t60 29zM384 710l-4 -11q-24 -65 -27 -100l-18 -5q-8 -4 -19 -4q-16 0 -16 24q0 37 23.5 66.5t60.5 29.5zM887 337q0 -9 -68 -78q-63 -65 -198 -182q-104 -76 -164 -76q-66 0 -66 85
q0 67 42 158q-3 -2 -8 -7l-3 -3q-2 -2 -4 -3l-61 -61q-166 -166 -279 -166q-66 0 -66 78q0 135 155 341q33 13 71 16q-39 -49 -82 -123q-86 -148 -86 -224q0 -53 44 -53q59 0 161 87q134 113 228 232l43 -8q-97 -185 -97 -261q0 -53 39 -53q90 0 334 256q51 53 56 53
q9 0 9 -8z" />
    <glyph glyph-name="yacute" unicode="&#xfd;" horiz-adv-x="579" 
d="M445 708q-75 -52 -115 -115l-14 -22v-1l-1 -1l-2 -2l-16 1q35 150 100 150q19 0 48 -10zM716 340q0 -5 -7 -13l-19 -21l-50 -54q-79 -85 -180 -169q-43 -36 -143 -106l-4 -8t-6 -9l-29 -50q-37 -63 -95 -139q-114 -148 -247 -251q-100 -77 -176 -77q-69 0 -69 69
q0 75 99 162q47 41 119 87q6 4 140 80q112 64 159 92q16 9 68 41q13 21 40 87l23 57q16 40 30 91q-125 -182 -237 -182q-44 0 -71.5 31t-27.5 75q0 116 130 267q27 11 72 12q-147 -187 -147 -283q0 -69 64 -69q69 0 140 82q53 62 90 144q43 97 43 186v13l44 28q3 -21 3 -49
q0 -75 -30 -178q-38 -130 -73 -204l-20 -42q-1 -1 -1 -2t-1 -2t-1.5 -3.5t-2.5 -6.5q0 1 -4 -7q177 109 353 320q8 10 14 10q10 0 10 -9zM260 -58l-18 -11l-71 -41l-86 -51q-113 -67 -158 -97q-101 -68 -138 -119q-32 -44 -32 -81q0 -51 52 -51q114 0 317 245
q87 105 134 206z" />
    <glyph glyph-name="thorn" unicode="&#xfe;" horiz-adv-x="598" 
d="M735 342q-2 -6 -12 -18l-21 -24q-28 -32 -80 -71q-58 -44 -99 -68q-52 -31 -144 -64q-116 -114 -198 -114q-75 0 -75 69q0 64 35 64h5q1 -1 3 -1l23 -6q38 -10 87 -10q65 0 105 14q90 104 90 189q0 73 -71 73q-105 0 -261 -172q-122 -135 -206 -385q-72 -215 -84 -359
l-57 -15l3 19q43 274 206 615q154 323 348 568l5 6q18 25 42 56q11 9 35 9h1l24 -1l-12 -15q-26 -32 -78 -101q-92 -127 -220 -315q-45 -74 -73 -129l7 7q0 1 5 6l47 55q50 58 133 125q93 75 167 75q78 0 78 -85q0 -92 -88 -213q97 32 192 107q80 63 115 106q10 12 13 12
q10 0 10 -9zM334 84q-52 -4 -86 -4q-45 0 -90 9q-6 -16 -6 -27q0 -42 52 -42q65 0 130 64z" />
    <glyph glyph-name="ydieresis" unicode="&#xff;" horiz-adv-x="579" 
d="M476 710q-1 -2 -4 -11q-21 -59 -27 -100l-18 -5q-8 -4 -18 -4q-16 0 -16 24q0 38 23 67t60 29zM359 710l-4 -11q-24 -65 -27 -100l-18 -5q-8 -4 -19 -4q-16 0 -16 24q0 37 23.5 66.5t60.5 29.5zM716 340q0 -5 -7 -13l-19 -21l-50 -54q-79 -85 -180 -169
q-43 -36 -143 -106l-4 -8t-6 -9l-29 -50q-37 -63 -95 -139q-114 -148 -247 -251q-100 -77 -176 -77q-69 0 -69 69q0 75 99 162q47 41 119 87q6 4 140 80q112 64 159 92q16 9 68 41q13 21 40 87l23 57q16 40 30 91q-125 -182 -237 -182q-44 0 -71.5 31t-27.5 75
q0 116 130 267q27 11 72 12q-147 -187 -147 -283q0 -69 64 -69q69 0 140 82q53 62 90 144q43 97 43 186v13l44 28q3 -21 3 -49q0 -75 -30 -178q-38 -130 -73 -204l-20 -42q-1 -1 -1 -2t-1 -2t-1.5 -3.5t-2.5 -6.5q0 1 -4 -7q177 109 353 320q8 10 14 10q10 0 10 -9zM260 -58
l-18 -11l-71 -41l-86 -51q-113 -67 -158 -97q-101 -68 -138 -119q-32 -44 -32 -81q0 -51 52 -51q114 0 317 245q87 105 134 206z" />
    <glyph glyph-name="dotlessi" unicode="&#x131;" horiz-adv-x="402" 
d="M532 334q-8 -13 -52 -59q-172 -179 -294 -247q-61 -34 -101 -34q-73 0 -73 79q0 89 83 234q29 50 56 89q43 13 69 14l-10 -15q-66 -98 -101 -180q-30 -69 -30 -121q0 -53 43 -53q77 0 229 135q78 69 140 138q26 29 32 29q9 0 9 -9z" />
    <glyph glyph-name="Lslash" unicode="&#x141;" horiz-adv-x="1376" 
d="M1513 -41q-97 -147 -279 -147q-190 0 -365 156l-37 33l-6 4q-47 42 -150 151q-203 -207 -377 -207q-100 0 -166 74q-62 71 -62 172q0 157 128 229q59 33 137 33q130 0 267 -118q7 -6 94 -93l19 -19q130 142 242 319q-68 -7 -139 -20q-58 -9 -152 -28l25 40q104 23 287 42
q68 113 125 234q-28 -6 -55 -6q-41 0 -92 20q-62 25 -62 60q0 11 32 48q50 -98 156 -98q10 0 34 3l35 76q78 170 140 247q70 87 124 87q50 0 50 -58q0 -96 -101.5 -212t-236.5 -160q-69 -146 -125 -238q156 15 272 14l-2 -42q-169 4 -291 -6q-24 -38 -59 -90
q-71 -104 -141 -185l-41 -47q-5 -6 -12 -15q107 -121 237 -232q166 -142 294 -142q145 0 238 130zM1431 1159q0 43 -40 43q-28 0 -61 -34q-83 -86 -180 -300l-10 -22q152 50 248 196q43 65 43 117zM662 173q-220 249 -369 249q-83 0 -140 -62.5t-57 -146.5q0 -98 70 -163.5
t167 -65.5q153 0 329 189z" />
    <glyph glyph-name="lslash" unicode="&#x142;" horiz-adv-x="554" 
d="M691 338q0 -5 -37 -46q-123 -136 -188 -194q-138 -120 -233 -120q-145 0 -145 241q0 140 49 298l-8 -1q-96 -11 -152 -28q12 15 25 30q60 16 144 26q12 38 27 76q112 285 222 417q51 61 92 61q44 0 44 -58q0 -111 -174 -390q-28 -45 -62 -93q67 3 186 6l-2 -32h-23
q-62 0 -183 -5l-11 -15q-41 -56 -50 -67l-57 -73q-7 -38 -7 -91q0 -253 120 -253q102 0 283 185q76 78 110 119q14 17 21 17q9 0 9 -10zM502 1024q0 38 -30 38q-79 0 -208 -309q-10 -25 -31 -84l-13 -36q-13 -38 -27 -84q36 4 77 6q33 47 60 89q46 71 71 118q23 43 47 95
q54 118 54 167zM249 524q-32 -1 -64 -4q-14 -51 -24 -109q36 40 84 108z" />
    <glyph glyph-name="OE" unicode="&#x152;" horiz-adv-x="2179" 
d="M2432 1115q0 -44 -56 -67q-43 -17 -94 -17h-16l2 17h20q103 0 103 54q0 81 -255 81q-357 0 -615 -106q-56 -23 -105 -57q-21 -15 -21 -27q0 -11 13 -11q3 0 4 1h6q8 2 11 3q-20 -47 -45 -47q-18 0 -27 23q-4 -155 -71 -315q53 75 118 148q120 135 257 237l70 52q3 2 9 5
l1 1l13 -12l-15 -12q-64 -51 -160 -128q-104 -90 -199 -201q-74 -87 -121 -182l19 6q415 131 725 131h51q38 0 38 -18q0 -12 -10 -31q-108 12 -179 12q-225 0 -554 -92q-16 -5 -99 -30q-61 -112 -61 -250q0 -229 173 -324q83 -46 191 -46q237 0 485 188q103 78 245 232
l12 13l15 -16q-290 -327 -559 -437q-137 -56 -263 -56q-166 0 -269 104t-103 270q0 92 33 189q-33 -47 -71 -95q-156 -197 -325 -301q-174 -107 -336 -107q-107 0 -203 56q-143 84 -143 307q0 170 93 337q49 88 114 166q121 146 258 225l5 -19q-185 -114 -303 -292
q-115 -174 -115 -347q0 -99 45 -186q48 -92 131 -137q72 -39 173 -39q352 0 654 431q24 33 65 101l9 18l-170 -54l5 19l13 5l10 3l155 50l2 2q100 192 100 369q0 189 -118 270q-57 39 -131 39q-141 0 -268 -98q-112 -86 -186 -223q-79 -146 -88 -310q-18 -9 -24 -9
q-11 0 -11 15q0 45 33 143q28 84 56 138q127 247 332 349q96 48 197 48q114 0 182 -80t68 -210q15 49 149 107q165 71 403 99q111 13 230 13q293 0 293 -88z" />
    <glyph glyph-name="oe" unicode="&#x153;" horiz-adv-x="825" 
d="M962 343q0 -5 -27 -37q-180 -217 -336 -301q-76 -41 -128 -41q-109 0 -119 136q-106 -136 -208 -136q-62 0 -97 41t-35 104q0 79 47 161q44 77 113.5 126t137.5 49q114 0 114 -123q0 -19 -1 -26q139 183 252 183q62 0 62 -55q0 -91 -125 -167q-64 -39 -139 -39
q-22 0 -53 4q-13 -45 -13 -80q0 -51 30 -85t79 -34q113 0 280 161q87 84 145 159q6 8 12 9q9 0 9 -9zM694 405q0 40 -45 40q-64 0 -134 -73q-57 -60 -88 -132q23 -4 41 -4q114 0 193 91q33 38 33 78zM388 292q0 122 -102 122q-113 0 -185 -135q-32 -60 -32 -120
q0 -56 30 -94q32 -42 87 -42q103 0 172 141q30 61 30 128z" />
    <glyph glyph-name="Scaron" unicode="&#x160;" horiz-adv-x="1339" 
d="M1307 1433l-26 -19q-36 -26 -85 -55q-24 -14 -77 -40l-1 0.5t-2.5 2t-1.5 2.5l-15 17q-42 48 -113 87l13 13q85 -6 158 -76q75 43 126 85zM1481 1026q0 -47 -33.5 -74.5t-81.5 -27.5q-43 0 -76 19q-12 7 -12 13q0 3 15 18l5 -4q31 -25 79 -25q66 0 66 63q0 113 -185 181
q-82 30 -169 30q-156 0 -253.5 -64.5t-97.5 -169.5q0 -119 172 -260l168 -138q168 -138 168 -289q0 -122 -89 -226q-78 -89 -201 -143q-134 -58 -287 -58q-240 0 -410 125q-164 121 -164 312q0 177 128 258q60 38 132 38q37 0 82 -14q59 -18 59 -47q-1 -5 -5 -20
q-73 61 -147 61q-93 0 -155 -73q-59 -69 -59 -164q0 -213 230 -345q178 -102 355 -102q155 0 271 67q25 14 27 15q6 3 11 8q31 21 98 85q77 90 77 186q0 73 -48 141q-46 65 -161 155l-73 57q-120 94 -178 174q-54 75 -54 156q0 182 204 261q98 38 222 38q151 0 263 -63
q107 -60 107 -154z" />
    <glyph glyph-name="scaron" unicode="&#x161;" horiz-adv-x="517" 
d="M388 701l-26 -19q-36 -26 -85 -55q-24 -14 -77 -40l-1 0.5t-2.5 2t-1.5 2.5l-15 17q-42 48 -113 87l13 13q85 -6 158 -76q75 43 126 85zM653 344q0 -5 -24 -33q-49 -54 -152 -158q-111 -102 -213 -136q-52 -17 -108 -20q-7 0 -20 -4q-49 -10 -74 -10q-103 0 -103 45
q0 23 26 23q12 0 43 -10q65 -21 101 -26q57 15 92 69q33 50 33 112q0 40 -11 73q-12 37 -49 91l-15 22q-2 -2 -7 -7.5t-7 -7.5l-10 -12l-27 -32q-10 -12 -18 -12t-8 8q0 7 40 50q7 9 22 25l6 6q-11 30 -11 49q0 25 15 49q18 28 41 28q25 0 25 -30q0 -34 -30 -71l-9 -11
q-3 -3 -3 -6q1 -5 4 -8l5 -7q35 -37 91 -116q18 -36 18 -84q0 -95 -111 -173q120 21 269 157q76 69 153 161q12 14 17 14q9 0 9 -8z" />
    <glyph glyph-name="Ydieresis" unicode="&#x178;" horiz-adv-x="953" 
d="M1111 1440q-1 -2 -4 -11q-21 -59 -27 -100l-18 -5q-8 -4 -18 -4q-16 0 -16 24q0 38 23 67t60 29zM994 1440l-4 -11q-24 -65 -27 -100l-18 -5q-8 -4 -19 -4q-16 0 -16 24q0 37 23.5 66.5t60.5 29.5zM1190 1061q0 -42 -152 -212q-77 -86 -146 -154q-192 -343 -192 -621
q0 -83 35 -182q-17 -27 -54 -87l-10 -16q-23 141 -23 214q0 195 76 389q53 135 109 237l11 20l-14 -12q-111 -95 -209 -165q-150 -107 -241 -107q-46 0 -74.5 31t-28.5 77q0 80 68 187q48 75 187 245q88 107 109 136q41 56 58 87q35 65 35 118q0 45 -31.5 69.5t-92.5 24.5
q-99 0 -217 -71q-101 -60 -179 -146q-90 -99 -127 -198l-39 -8q56 123 161 229q228 230 452 230q131 0 131 -93q0 -81 -138 -255l-179 -226q-134 -168 -134 -275q0 -100 91 -100q96 0 272 136q109 84 172 144q2 3 9 13q2 3 3.5 6t3.5 5l43 68q84 133 180 232q43 44 62 44
q13 0 13 -14z" />
    <glyph glyph-name="Zcaron" unicode="&#x17d;" horiz-adv-x="1225" 
d="M1222 1429l-26 -19q-36 -26 -85 -55q-24 -14 -77 -40l-1 0.5t-2.5 2t-1.5 2.5l-15 17q-42 48 -113 87l13 13q85 -6 158 -76q75 43 126 85zM1451 1142q0 -76 -198 -94q-16 -15 -61 -65q-87 -97 -147 -171q-40 -48 -108 -140l-13 -20q83 -24 141 -24q100 0 107 87l13 3
q1 -5 1 -17q0 -56 -56 -92q-49 -31 -108 -31q-50 0 -134 22l-144 -187q163 -48 247.5 -137.5t84.5 -206.5q0 -152 -138 -272l-13 15q105 94 105 202q0 153 -150 260q-76 54 -178 89q-3 -3 -7 -8t-7 -8q-13 -13 -42 -47q-6 -6 -28 -32q-184 -213 -330 -296q-83 -47 -161 -47
q-60 0 -101 34q-44 37 -44 95q0 137 149 250q170 129 445 129q76 0 142 -13q6 8 12 14q3 4 10 13q18 22 53 65l49 66q9 11 23 29q-96 32 -149 32q-90 0 -122 -79l-12 3q44 119 165 119q60 0 154 -23q14 18 46 61q59 79 163 203q41 48 112 125q-53 3 -95 9q-81 12 -155 31
l-111 28q-59 15 -118 15q-172 0 -254 -121q-40 -59 -41 -128q-15 -18 -22 -18t-7 10q0 34 31 102q44 97 127 160q90 67 191 67q67 0 159 -38l102 -42q126 -52 206 -52h11q8 5 12 9l20 16q93 74 137 74q36 0 36 -28zM1418 1130q0 14 -19 14q-35 -1 -119 -73q138 10 138 59z
M677 370q-88 24 -179 24q-270 0 -418 -159q-68 -73 -68 -154q0 -53 40 -87t94 -34q87 0 174 59q148 101 342 333z" />
    <glyph glyph-name="zcaron" unicode="&#x17e;" horiz-adv-x="634" 
d="M538 701l-26 -19q-36 -26 -85 -55q-24 -14 -77 -40l-1 0.5t-2.5 2t-1.5 2.5l-15 17q-42 48 -113 87l13 13q85 -6 158 -76q75 43 126 85zM777 348q-1 -5 -6 -12l-15 -15q-170 -170 -303 -246q-164 -94 -296 -94q-86 0 -86 55q0 64 135 179q74 63 162 124l52 36q8 6 23 15
q-63 10 -120 10q-117 0 -170 -57q-10 -11 -16 -11q-9 0 -9 10q0 7 19 26l20 20q73 73 195 73q81 0 169 -27l-4 -26q-148 -73 -271.5 -173.5t-123.5 -152.5q0 -43 80 -43q124 0 267 80q69 38 138 94q76 61 127 120l13 15q6 7 11 8q9 0 9 -8z" />
    <glyph glyph-name="florin" unicode="&#x192;" horiz-adv-x="464" 
d="M565 822q0 -36 -40 -99q-14 -22 -20 -22q-5 0 -5 5q1 3 5 10q33 53 33 85q0 23 -17 23q-35 0 -92 -102q-38 -69 -67 -147q-15 -41 -62 -192q21 1 57 -2l44 -2q26 -2 14 -2l-7 -20q-62 7 -114 8l-36 -113q-95 -299 -204 -417q-79 -86 -151 -86q-57 0 -57 48q0 40 39 78
q6 6 11 6q6 0 6 -6l-1 -1q0 -1 -1 -3q-13 -19 -13 -37q0 -44 45 -44q40 0 95 57q43 44 70 92q76 134 162 411l5 16q-9 0 -13 1h-36q-4 -1 -13 -1l8 18h58l5 16l31 92q124 367 228 367q33 0 33 -37z" />
    <glyph glyph-name="circumflex" unicode="&#x2c6;" 
d="M411 609l-13 -13q-86 6 -158 76q-76 -43 -126 -85l-24 17l26 19q36 26 85 55q24 14 77 40h1q1 -1 2 -2.5t2 -2.5l15 -17q42 -48 113 -87z" />
    <glyph glyph-name="caron" unicode="&#x2c7;" 
d="M411 701l-26 -19q-37 -26 -85 -55q-25 -14 -77 -40l-1 1q-2 0 -3 1.5t-1 2.5l-15 17q-43 48 -113 87l13 13q85 -6 158 -76q75 43 126 85z" />
    <glyph glyph-name="breve" unicode="&#x2d8;" 
d="M411 701l-26 -30q-65 -74 -125 -74q-66 0 -170 99l13 13q26 -2 74 -38.5t84 -37.5q35 -1 71 31q27 27 55 54z" />
    <glyph glyph-name="dotaccent" unicode="&#x2d9;" 
d="M330 715q-7 -4 -9 -7l-32 -24q-44 -33 -97 -86l-4 -4q-17 6 -17 16q0 18 43 63q48 51 85 51q15 0 31 -9z" />
    <glyph glyph-name="ring" unicode="&#x2da;" 
d="M313 672q0 -36 -23 -64q-24 -31 -59 -31q-44 0 -44 45q0 33 35 66q31 30 58 30q33 0 33 -46zM272 642q0 19 -12 52l-7 -6q-34 -29 -34 -52q0 -34 27 -34q26 0 26 40z" />
    <glyph glyph-name="ogonek" unicode="&#x2db;" 
d="M352 -198l-14 -40q-37 -18 -82 -19q-108 -3 -108 82q0 22 9 47q30 86 155 145l40 1q-130 -82 -151 -140q-6 -17 -6 -33q0 -64 75 -62q33 1 82 19z" />
    <glyph glyph-name="tilde" unicode="&#x2dc;" 
d="M420 686q-71 -82 -118 -82q-22 0 -50 13l-52 24q-17 8 -36 8q-28 0 -69 -41l-15 12q65 75 111 75q29 0 56 -13l33 -16q33 -16 57 -16q28 0 69 47z" />
    <glyph glyph-name="hungarumlaut" unicode="&#x2dd;" 
d="M393 708q-75 -52 -115 -115l-14 -22v-1l-1 -1l-2 -2l-16 1q34 150 100 150q18 0 48 -10zM256 708q-75 -52 -115 -115l-14 -22v-1l-1 -1l-2 -2l-16 1q34 150 100 150q18 0 48 -10z" />
    <glyph glyph-name="Delta" unicode="&#x394;" horiz-adv-x="871" 
d="M41 -5l373 881h41l375 -881h-789zM435 819l-332 -783h664z" />
    <glyph glyph-name="Delta" unicode="&#x2206;" horiz-adv-x="871" 
d="M41 -5l373 881h41l375 -881h-789zM435 819l-332 -783h664z" />
    <glyph glyph-name="Omega" unicode="&#x3a9;" horiz-adv-x="871" 
d="M550 -5v37q75 44 114 75q184 148 184 360q0 166 -103.5 278t-256.5 112q-155 0 -258.5 -111.5t-103.5 -278.5q0 -155 101 -278q47 -58 162 -135q5 -4 13 -9l23 -13v-37h-342v40h267q-267 158 -267 432q0 183 116 306.5t288 123.5q171 0 287 -123.5t116 -306.5
q0 -275 -266 -432h267v-40h-341z" />
    <glyph glyph-name="Omega" unicode="&#x2126;" horiz-adv-x="871" 
d="M550 -5v37q75 44 114 75q184 148 184 360q0 166 -103.5 278t-256.5 112q-155 0 -258.5 -111.5t-103.5 -278.5q0 -155 101 -278q47 -58 162 -135q5 -4 13 -9l23 -13v-37h-342v40h267q-267 158 -267 432q0 183 116 306.5t288 123.5q171 0 287 -123.5t116 -306.5
q0 -275 -266 -432h267v-40h-341z" />
    <glyph glyph-name="pi" unicode="&#x3c0;" horiz-adv-x="665" 
d="M603 658v-663h-44v663h-349v-663h-42v663h-96v40h624v-40h-93z" />
    <glyph glyph-name="endash" unicode="&#x2013;" horiz-adv-x="681" 
d="M574 249q-56 -69 -159 -69q-19 0 -23 1l-83 6q-3 0 -9 1h-15q-50 0 -107 -18q34 71 117 71h23l103 -8q5 -1 28 -1q51 0 125 17z" />
    <glyph glyph-name="emdash" unicode="&#x2014;" horiz-adv-x="2065" 
d="M1958 249q-54 -68 -169 -68h-12l-238 4l-583 6q-68 1 -252 2q-21 0 -54 1h-35h-78q-149 0 -255 -6q-58 -3 -104 -18q27 55 83 66q32 6 204 6h57l610 -1q11 0 61 -1q58 -1 104 -2q59 0 248 -2q67 -1 200 -3q34 -1 47 -1q96 0 166 17z" />
    <glyph glyph-name="quoteleft" unicode="&#x2018;" horiz-adv-x="199" 
d="M342 1256q-129 -76 -129 -127q0 -13 12 -13q2 0 11 2q5 0 7 1h7q31 0 31 -28q0 -30 -32.5 -53.5t-63.5 -23.5q-43 0 -43 43q0 113 189 213z" />
    <glyph glyph-name="quoteright" unicode="&#x2019;" horiz-adv-x="199" 
d="M342 1227q0 -111 -188 -213l-12 14q129 81 129 127q0 13 -11 13h-5q-3 -1 -7 -1l-14 -2q-31 0 -31 28q0 39 53 65q24 12 43 12q43 0 43 -43z" />
    <glyph glyph-name="quotesinglbase" unicode="&#x201a;" horiz-adv-x="336" 
d="M229 92q0 -109 -188 -213l-11 14q129 79 129 127q0 12 -13 12q-7 0 -10 -1h-9q-2 -1 -6 -1q-31 0 -31 28q0 39 53 65q24 12 43 12q43 0 43 -43z" />
    <glyph glyph-name="quotedblleft" unicode="&#x201c;" horiz-adv-x="375" 
d="M517 1256q-129 -75 -129 -127q0 -13 12 -13q2 0 11 2q5 0 8 1h7q30 0 30 -28q0 -29 -32.5 -53t-62.5 -24q-44 0 -44 43q0 113 189 213zM342 1256q-129 -76 -129 -127q0 -13 12 -13q2 0 11 2q5 0 7 1h7q31 0 31 -28q0 -30 -32.5 -53.5t-63.5 -23.5q-43 0 -43 43
q0 111 189 213z" />
    <glyph glyph-name="quotedblright" unicode="&#x201d;" horiz-adv-x="375" 
d="M517 1227q0 -69 -90 -146q-45 -38 -98 -67l-11 14q129 81 129 127q0 13 -12 13h-5q-2 -1 -6 -1q-13 -2 -15 -2q-30 0 -30 28q0 29 33 53t63 24q42 0 42 -43zM342 1227q0 -111 -188 -213l-12 14q129 81 129 127q0 13 -11 13h-5q-3 -1 -7 -1l-14 -2q-31 0 -31 28
q0 39 53 65q24 12 43 12q43 0 43 -43z" />
    <glyph glyph-name="quotedblbase" unicode="&#x201e;" horiz-adv-x="511" 
d="M404 92q0 -109 -188 -213l-11 14q129 79 129 127q0 12 -13 12q-7 0 -10 -1h-9q-2 -1 -6 -1q-30 0 -30 28q0 29 33 53t63 24q42 0 42 -43zM229 92q0 -109 -188 -213l-11 14q129 79 129 127q0 12 -13 12q-7 0 -10 -1h-9q-2 -1 -6 -1q-31 0 -31 28q0 39 53 65q24 12 43 12
q43 0 43 -43z" />
    <glyph glyph-name="dagger" unicode="&#x2020;" horiz-adv-x="579" 
d="M673 608q0 -55 -64 -55q-23 0 -80 20q-46 16 -103 20q-8 -23 -17 -95q-12 -98 -19 -124q-13 -44 -63 -137q-95 -178 -167 -414q-6 -16 -27 -16q-11 0 -11 9q0 5 25 55q85 175 126 386q16 88 31 127t64 124q33 59 41 85q-45 -2 -95 -15q-80 -22 -101 -22q-51 0 -51 32
q0 49 63 49q23 0 94 -19q43 -13 93 -13q26 79 68 277q31 147 87 147q34 0 34 -43q0 -26 -12 -52.5t-89 -171.5q-45 -85 -71 -157q58 2 160 29q17 5 40 5q44 0 44 -31z" />
    <glyph glyph-name="daggerdbl" unicode="&#x2021;" horiz-adv-x="676" 
d="M704 606q0 -51 -67 -51q-23 0 -82 20q-41 14 -104 19q-15 -42 -34 -123q-15 -64 -25 -88q-15 -23 -47 -91q-10 -20 -20 -46q52 3 95 14q79 22 100 22q57 0 57 -29q0 -48 -68 -48q-22 0 -94 18q-41 11 -95 11q-12 -40 -34 -129q-10 -53 -32 -158q-29 -140 -83 -140
q-40 0 -40 43q0 33 15 66q13 30 87 163q55 101 72 155q-62 -1 -161 -26q-19 -5 -42 -5q-46 0 -46 30q0 50 69 50q23 0 80 -18q45 -15 103 -19q7 26 14 74q10 71 22 100.5t62 113.5q16 25 28 60q-49 -4 -92 -16q-77 -20 -105 -20q-52 0 -52 31q0 46 66 46q24 0 94 -18
q41 -11 93 -11q12 37 70 281q34 144 86 144q33 0 33 -40q0 -28 -12 -55t-89 -170q-56 -104 -71 -162q58 2 162 26q19 5 40 5q47 0 47 -29z" />
    <glyph glyph-name="bullet" unicode="&#x2022;" horiz-adv-x="498" 
d="M451 605q0 -87 -77 -133q-35 -21 -77 -21q-63 0 -109 45.5t-46 108.5q0 64 46 109.5t109 45.5t108.5 -46t45.5 -109z" />
    <glyph glyph-name="ellipsis" unicode="&#x2026;" horiz-adv-x="1780" 
d="M1514 103q0 -47 -50 -96q-35 -34 -62 -34q-14 0 -23.5 10.5t-9.5 24.5q0 54 61 103q30 24 53 24q31 0 31 -32zM921 103q0 -45 -51 -96q-34 -34 -62 -34q-13 0 -22.5 10.5t-9.5 24.5q0 55 60 103q30 24 54 24q31 0 31 -32zM328 103q0 -46 -51 -96q-34 -34 -62 -34
q-13 0 -22.5 10.5t-9.5 24.5q0 55 60 103q30 24 53 24q32 0 32 -32z" />
    <glyph glyph-name="perthousand" unicode="&#x2030;" horiz-adv-x="1225" 
d="M1172 296q0 -76 -46 -156q-42 -74 -107 -123q-68 -52 -128 -52q-45 0 -73.5 33t-28.5 79q0 123 106 215q49 42 105 60q34 52 83 52q89 0 89 -108zM888 825q0 -38 -86 -100q-60 -44 -119 -73q-217 -217 -393 -494q-80 -127 -113 -211q-8 -5 -16 -9q-19 -12 -31 -12
q-11 0 -11 13q0 37 157 260q41 59 109 145q99 127 167 198l72 76q6 7 18 20q-45 -13 -88 -13q-14 0 -36 2q-33 -84 -100 -151q-79 -78 -158 -78q-40 0 -68 33t-28 77q0 60 39 129q89 156 210 156h12q23 14 37 14q72 0 72 -98q0 -29 -10 -62q16 -2 27 -2q70 0 122 24l16 15
l20 20q131 131 169 131q10 0 10 -10zM761 308q0 -76 -46 -156q-42 -74 -107 -123q-68 -52 -128 -52q-46 0 -75 34q-27 31 -27 78q0 90 62 170t149 104q35 53 83 53q89 0 89 -108zM505 681q0 52 -28 82q-12 13 -27 13q-22 0 -22 -32q0 -67 74 -91q3 20 3 28zM1137 271
q0 90 -63 90q-54 0 -54 -50q0 -17 25 -30l-1 -12q-53 0 -53 51q-66 -12 -110 -69.5t-44 -125.5q0 -45 27.5 -79t71.5 -34q96 0 170 142q31 60 31 117zM497 633q-90 30 -90 108q1 7 5 28q-5 1 -13 1q-93 0 -161 -124q-30 -54 -30 -106q0 -38 24.5 -65.5t61.5 -27.5
q63 0 126 63q56 56 77 123zM726 283q0 89 -64 89q-20 0 -36.5 -15t-16.5 -35q0 -16 25 -29l-2 -12q-52 0 -52 51q-67 -13 -110.5 -69.5t-43.5 -125.5q0 -45 27.5 -79t71.5 -34q98 0 170 141q31 60 31 118z" />
    <glyph glyph-name="guilsinglleft" unicode="&#x2039;" horiz-adv-x="451" 
d="M427 357q-150 -69 -150 -116q0 -4 2 -11l22 -46q15 -31 15 -91q0 -26 -6 -52l-20 -1q-7 69 -53 141q-23 36 -23 45q0 56 201 143z" />
    <glyph glyph-name="guilsinglright" unicode="&#x203a;" horiz-adv-x="425" 
d="M353 219q0 -31 -44 -71q-60 -53 -152 -106l-15 15q162 98 162 150q0 44 -93 132q32 21 41 21q18 0 48 -34q53 -61 53 -107z" />
    <glyph glyph-name="fraction" unicode="&#x2044;" horiz-adv-x="419" 
d="M633 825q0 -25 -61 -81q-49 -45 -145 -92q-160 -160 -307.5 -367t-198.5 -338q-6 -3 -15 -9q-20 -12 -32 -12q-11 0 -11 13q0 34 158 260q53 76 128 169q53 66 85 104q27 32 77 86q90 97 170 173q109 104 142 104q10 0 10 -10z" />
    <glyph glyph-name="Euro" unicode="&#x20ac;" horiz-adv-x="810" 
d="M865 670q0 -58 -30 -114q-69 -127 -180 -127q-32 0 -57 21.5t-25 52.5q0 62 67 107q32 22 70 31l9 -16q-110 -40 -110 -107q0 -57 61 -57q85 0 140 98q24 42 24 86q0 71 -49 110q-45 35 -118 35q-90 0 -195 -59q-219 -123 -273 -351h71q268 2 287 1l34 -1l-15 -26h-160
q-102 1 -161 1h-61q-6 -32 -8 -64h70q267 0 293 -1l-14 -26h-291h-58q1 -144 99 -222q68 -54 150 -54q163 0 259 169q27 47 40 110l21 -1q-31 -141 -131 -231.5t-230 -90.5q-116 0 -188 79t-72 197q0 22 2 44q-35 0 -57 -1l-19 -1l12 27l19 1q19 1 49 1q4 31 13 63
q-34 -1 -76 -3h-12l9 28h86q44 137 143 244q116 125 257 174q67 24 128 24q109 0 155 -72q22 -34 22 -79z" />
    <glyph glyph-name="trademark" unicode="&#x2122;" horiz-adv-x="1171" 
d="M1121 505h-39v525l-270 -525h-22l-270 525v-525h-38v584h52l267 -526l270 526h50v-584zM432 1052h-172v-547h-40v547h-170l2 37h380v-37z" />
    <glyph glyph-name="partialdiff" unicode="&#x2202;" horiz-adv-x="653" 
d="M593 106q-81 -128 -229 -128q-114 0 -195 88t-81 211q0 125 81.5 212t199.5 87q131 0 203 -101q-44 144 -128 232q-60 63 -139 99q-54 25 -138 38l6 43q95 -15 158 -44q153 -71 236 -236q74 -148 74 -311q0 -115 -48 -190zM372 537q-101 0 -171.5 -76t-70.5 -186
q0 -105 69.5 -181t166.5 -76q100 0 165.5 75.5t65.5 191.5q0 111 -62.5 181.5t-162.5 70.5z" />
    <glyph glyph-name="product" unicode="&#x220f;" horiz-adv-x="875" 
d="M635 -331v40h111v1235h-512v-1235h108v-40h-250v40h98v1235h-98v40h796v-40h-98v-1235h98v-40h-253z" />
    <glyph glyph-name="summation" unicode="&#x2211;" horiz-adv-x="871" 
d="M66 -331v42l329 645l-329 588v40h722v-283h-41l-1 243h-629l327 -589l-331 -646h645l1 240h41v-280h-734z" />
    <glyph glyph-name="radical" unicode="&#x221a;" horiz-adv-x="871" 
d="M454 81l6 18l30 96l39 128l246 762h310v-40h-277l-337 -1050h-34l-135 422h-98v40h130z" />
    <glyph glyph-name="infinity" unicode="&#x221e;" horiz-adv-x="1025" 
d="M1038 371q0 -98 -60.5 -159.5t-156.5 -61.5q-141 0 -265 193q-126 -193 -264 -193q-97 0 -157 62.5t-60 164.5q0 97 61 158t157 61q138 0 263 -193q70 107 129.5 150t137.5 43q95 0 155 -62.5t60 -162.5zM1000 372q0 83 -50 136t-129 53q-104 0 -190 -110
q-18 -23 -54 -77q119 -189 246 -189q77 0 127 52.5t50 134.5zM536 372q-119 189 -247 189q-78 0 -127 -52t-49 -135t49.5 -136t127.5 -53q107 0 191 109q19 26 55 78z" />
    <glyph glyph-name="integral" unicode="&#x222b;" horiz-adv-x="653" 
d="M492 929q-30 15 -52 15q-43 0 -54.5 -28t-11.5 -116v-949q0 -95 -12 -126q-23 -56 -101 -56q-30 0 -65 17l17 37q30 -14 52 -14q43 0 54 27.5t11 110.5l2 1003q3 134 109 134q29 0 68 -17z" />
    <glyph glyph-name="approxequal" unicode="&#x2248;" horiz-adv-x="768" 
d="M780 522q-84 -146 -195 -146q-56 0 -210 80q-84 43 -134 43q-89 0 -161 -126l-31 20q83 146 194 146q58 0 181 -65q111 -58 163 -58q89 0 162 124zM780 313q-83 -146 -195 -146q-56 0 -210 79q-85 43 -134 43q-89 0 -161 -126l-31 20q83 145 194 145q58 0 181 -64
q111 -58 163 -58q89 0 162 126z" />
    <glyph glyph-name="notequal" unicode="&#x2260;" horiz-adv-x="768" 
d="M762 249h-363l-92 -196h-38l92 196h-264v37h281l81 172h-364v37h381l83 180h38l-84 -180h247v-37h-264l-80 -172h346v-37z" />
    <glyph glyph-name="lessequal" unicode="&#x2264;" horiz-adv-x="768" 
d="M763 46l-667 287v39l667 288v-40l-622 -267l622 -267v-40zM763 -37h-667v37h667v-37z" />
    <glyph glyph-name="greaterequal" unicode="&#x2265;" horiz-adv-x="768" 
d="M762 332l-667 -287v40l622 267l-622 267v40l667 -288v-39zM762 -38h-667v37h667v-37z" />
    <glyph glyph-name="lozenge" unicode="&#x25ca;" horiz-adv-x="871" 
d="M473 -42l-344 478l344 477l346 -477zM473 841l-295 -405l295 -407l296 407z" />
    <glyph glyph-name="fi" unicode="&#xf001;" horiz-adv-x="923" 
d="M912 646q-6 -4 -9 -7l-32 -24q-44 -33 -97 -86l-4 -4q-17 6 -17 16q0 18 43 63q49 51 85 51q15 0 31 -9zM1054 334q0 -5 -31 -37l-53 -55q-239 -248 -364 -248q-72 0 -72 79q0 73 57 187l-5 -4q-105 -84 -174 -100q-47 -11 -86 -11q-35 0 -76 9l-1 -19q-12 -220 -72 -360
q-72 -166 -154 -166q-76 0 -76 149q0 113 58 309q39 131 106 297q91 226 218 432q178 290 250 290q26 0 26 -32q0 -102 -210 -386q-105 -143 -179 -221l-47 -50q-11 -13 -34 -38q-85 -219 -120 -405q-17 -90 -17 -151q0 -122 59 -122q77 0 131 190q42 147 42 253q0 35 -2 38
h-2h-2l-20 11q-71 39 -71 94q0 38 33 38q57 0 80 -114q48 -14 91 -14q200 0 332 211l4 8q41 13 69 14l-10 -15q-131 -196 -131 -301q0 -53 43 -53q121 0 368 273q26 29 33 29q9 0 9 -9zM570 1023q0 17 -15 17q-50 0 -212 -265q-82 -134 -136 -251q-35 -75 -47 -106
q46 43 117 132q293 366 293 473zM223 200q-10 36 -25 58t-29 22q-12 0 -12 -14q0 -31 66 -66z" />
    <glyph glyph-name="fi" unicode="&#xfb01;" horiz-adv-x="923" 
d="M912 646q-6 -4 -9 -7l-32 -24q-44 -33 -97 -86l-4 -4q-17 6 -17 16q0 18 43 63q49 51 85 51q15 0 31 -9zM1054 334q0 -5 -31 -37l-53 -55q-239 -248 -364 -248q-72 0 -72 79q0 73 57 187l-5 -4q-105 -84 -174 -100q-47 -11 -86 -11q-35 0 -76 9l-1 -19q-12 -220 -72 -360
q-72 -166 -154 -166q-76 0 -76 149q0 113 58 309q39 131 106 297q91 226 218 432q178 290 250 290q26 0 26 -32q0 -102 -210 -386q-105 -143 -179 -221l-47 -50q-11 -13 -34 -38q-85 -219 -120 -405q-17 -90 -17 -151q0 -122 59 -122q77 0 131 190q42 147 42 253q0 35 -2 38
h-2h-2l-20 11q-71 39 -71 94q0 38 33 38q57 0 80 -114q48 -14 91 -14q200 0 332 211l4 8q41 13 69 14l-10 -15q-131 -196 -131 -301q0 -53 43 -53q121 0 368 273q26 29 33 29q9 0 9 -9zM570 1023q0 17 -15 17q-50 0 -212 -265q-82 -134 -136 -251q-35 -75 -47 -106
q46 43 117 132q293 366 293 473zM223 200q-10 36 -25 58t-29 22q-12 0 -12 -14q0 -31 66 -66z" />
    <glyph glyph-name="fl" unicode="&#xf002;" horiz-adv-x="1106" 
d="M1236 338q0 -6 -36 -46q-280 -314 -422 -314q-144 0 -144 240q0 51 4 87l-4 -4q-108 -108 -204 -140q-48 -16 -104 -16q-35 0 -76 9l-1 -19q-12 -220 -72 -360q-72 -166 -154 -166q-76 0 -76 149q0 113 58 309q39 131 106 297q91 226 218 432q178 290 250 290
q26 0 26 -32q0 -102 -210 -386q-105 -143 -179 -221l-47 -50q-11 -13 -34 -38q-85 -219 -120 -405q-17 -90 -17 -151q0 -122 59 -122q77 0 131 190q42 147 42 253q0 35 -2 38h-2h-2l-20 11q-71 39 -71 94q0 38 33 38q57 0 80 -114q48 -14 92 -14q167 0 283 139l10 12
q5 3 11 11q9 62 33 148q36 127 101 270q34 75 71 140q113 201 186 201q43 0 43 -58t-41 -151q-36 -81 -133 -239q-45 -74 -94 -139q-16 -23 -50 -67l-41 -51q-4 -4 -16 -22q-8 -37 -8 -88q0 -256 120 -256q117 0 314 216l52 57q44 48 49 48q8 0 8 -10zM1048 1024
q0 38 -30 38q-45 0 -122 -134q-50 -87 -86 -175q-78 -190 -103 -342q35 39 84 108q138 195 203 338q54 118 54 167zM570 1023q0 17 -15 17q-50 0 -212 -265q-82 -134 -136 -251q-35 -75 -47 -106q46 43 117 132q293 366 293 473zM223 200q-10 36 -25 58t-29 22
q-12 0 -12 -14q0 -31 66 -66z" />
    <glyph glyph-name="fl" unicode="&#xfb02;" horiz-adv-x="1106" 
d="M1236 338q0 -6 -36 -46q-280 -314 -422 -314q-144 0 -144 240q0 51 4 87l-4 -4q-108 -108 -204 -140q-48 -16 -104 -16q-35 0 -76 9l-1 -19q-12 -220 -72 -360q-72 -166 -154 -166q-76 0 -76 149q0 113 58 309q39 131 106 297q91 226 218 432q178 290 250 290
q26 0 26 -32q0 -102 -210 -386q-105 -143 -179 -221l-47 -50q-11 -13 -34 -38q-85 -219 -120 -405q-17 -90 -17 -151q0 -122 59 -122q77 0 131 190q42 147 42 253q0 35 -2 38h-2h-2l-20 11q-71 39 -71 94q0 38 33 38q57 0 80 -114q48 -14 92 -14q167 0 283 139l10 12
q5 3 11 11q9 62 33 148q36 127 101 270q34 75 71 140q113 201 186 201q43 0 43 -58t-41 -151q-36 -81 -133 -239q-45 -74 -94 -139q-16 -23 -50 -67l-41 -51q-4 -4 -16 -22q-8 -37 -8 -88q0 -256 120 -256q117 0 314 216l52 57q44 48 49 48q8 0 8 -10zM1048 1024
q0 38 -30 38q-45 0 -122 -134q-50 -87 -86 -175q-78 -190 -103 -342q35 39 84 108q138 195 203 338q54 118 54 167zM570 1023q0 17 -15 17q-50 0 -212 -265q-82 -134 -136 -251q-35 -75 -47 -106q46 43 117 132q293 366 293 473zM223 200q-10 36 -25 58t-29 22
q-12 0 -12 -14q0 -31 66 -66z" />
    </font>
</defs>
</svg>
