<?xml version="1.0" encoding="utf-8"?>
<!-- Generator: Adobe Illustrator 19.0.0, SVG Export Plug-In . SVG Version: 6.00 Build 0)  -->
<svg version="1.1" id="Capa_1" xmlns="http://www.w3.org/2000/svg" xmlns:xlink="http://www.w3.org/1999/xlink" x="0px" y="0px"
	 viewBox="0 0 500 100" style="enable-background:new 0 0 500 100;" xml:space="preserve">
<style type="text/css">
	.st0{fill:#D5B376;}
</style>
<g id="XMLID_2_">
	<path id="XMLID_10_" class="st0" d="M245.9,51.7c0-12.6-10.2-22.8-22.8-22.8c-18.9,0-30,4.4-39.8,8.3c-8.5,3.4-16.6,6.6-28.8,6.6
		c-13.2,0-21.4-7.4-21.4-19.2c0-9.3,7.5-16.8,16.8-16.8c7.3,0,13.2,5.9,13.2,13.2c0,5.7-4.6,10.3-10.3,10.3c-4.4,0-7.9-3.6-7.9-7.9
		c0-0.8-0.6-1.4-1.4-1.4c-0.8,0-1.4,0.6-1.4,1.4c0,5.9,4.8,10.7,10.7,10.7c7.2,0,13-5.8,13-13c0-8.8-7.1-15.9-15.9-15.9
		c-10.8,0-19.6,8.8-19.6,19.6c0,4.2,1,8,2.7,11.1c-0.8-0.6-1.7-1.2-2.5-1.9c-7.4-5.5-15-11.2-25.1-11.2c-13.9,0-18.9,8.1-18.9,15.6
		c0,7.8,4.6,12.9,11.7,12.9c6.9,0,10.6-5.1,10.6-9.9c0-4.3-3.1-8.8-9-8.8c-0.8,0-1.4,0.6-1.4,1.4c0,0.8,0.6,1.4,1.4,1.4
		c4,0,6.2,3.1,6.2,6c0,2.8-2.1,7.2-7.9,7.2c-5.5,0-8.9-3.9-8.9-10.1c0-12,12.4-12.9,16.2-12.9c9.1,0,16.4,5.4,23.4,10.6
		c6.9,5.1,14,10.4,22.7,10.4c0,0,0,0,0,0c0.9,0.1,1.9,0.1,2.9,0.1c9.9,0,17.1-2,24-4.5c-3.7,4.2-4.1,8.2-4.1,9.9
		c0,6.1,3.7,10.2,9.2,10.2c5.5,0,8.4-4.1,8.4-7.9c0-3.4-2.5-7-7.2-7c-0.8,0-1.4,0.6-1.4,1.4c0,0.8,0.6,1.4,1.4,1.4
		c2.9,0,4.4,2.2,4.4,4.3c0,2-1.5,5.2-5.7,5.2c-4,0-6.5-2.8-6.5-7.4c0-2.2,1-9.7,13.5-14.5c0.1,0,0.1-0.1,0.1-0.1
		c8.3-3,17.8-5.6,32.3-5.6c11.1,0,20,9,20,20c0,8.7-7.1,15.8-15.8,15.8c-6.8,0-12.3-5.5-12.3-12.3c0-5.3,4.3-9.6,9.6-9.6
		c4.1,0,7.4,3.3,7.4,7.4c0,0.8,0.6,1.4,1.4,1.4c0.8,0,1.4-0.6,1.4-1.4c0-5.6-4.6-10.1-10.1-10.1c-6.8,0-12.3,5.5-12.3,12.3
		c0,8.3,6.8,15.1,15.1,15.1C237.6,70.2,245.9,61.9,245.9,51.7z"/>
	<path id="XMLID_9_" class="st0" d="M393,22.6c-10,0-17.7,5.7-25.1,11.2c-0.9,0.6-1.7,1.3-2.5,1.9c1.8-3.2,2.7-6.9,2.7-11.1
		c0-10.8-8.8-19.6-19.6-19.6c-8.8,0-15.9,7.1-15.9,15.9c0,7.2,5.8,13,13,13c5.9,0,10.7-4.8,10.7-10.7c0-0.8-0.6-1.4-1.4-1.4
		c-0.8,0-1.4,0.6-1.4,1.4c0,4.4-3.6,7.9-7.9,7.9c-5.7,0-10.3-4.6-10.3-10.3c0-7.3,5.9-13.2,13.2-13.2c9.3,0,16.8,7.5,16.8,16.8
		c0,11.8-8.2,19.2-21.4,19.2c-12.2,0-20.2-3.2-28.8-6.6c-9.8-3.9-20.9-8.3-39.8-8.3c-12.6,0-22.8,10.2-22.8,22.8
		c0,10.2,8.3,18.5,18.5,18.5c8.3,0,15.1-6.8,15.1-15.1c0-6.8-5.5-12.3-12.3-12.3c-5.6,0-10.1,4.6-10.1,10.1c0,0.8,0.6,1.4,1.4,1.4
		c0.8,0,1.4-0.6,1.4-1.4c0-4.1,3.3-7.4,7.4-7.4c5.3,0,9.6,4.3,9.6,9.6c0,6.8-5.5,12.3-12.3,12.3c-8.7,0-15.8-7.1-15.8-15.8
		c0-11.1,9-20,20-20c14.5,0,24,2.6,32.3,5.6c0,0,0.1,0.1,0.1,0.1c12.5,4.8,13.5,12.3,13.5,14.5c0,4.6-2.5,7.4-6.5,7.4
		c-4.2,0-5.7-3.2-5.7-5.2c0-2.1,1.6-4.3,4.4-4.3c0.8,0,1.4-0.6,1.4-1.4c0-0.8-0.6-1.4-1.4-1.4c-4.7,0-7.2,3.6-7.2,7
		c0,3.8,3,7.9,8.4,7.9c5.5,0,9.2-4.1,9.2-10.2c0-1.6-0.4-5.7-4.1-9.9c6.9,2.5,14.1,4.5,24,4.5c1,0,1.9,0,2.9-0.1c0,0,0,0,0,0
		c8.7,0,15.8-5.3,22.7-10.4c7-5.2,14.3-10.6,23.4-10.6c3.8,0,16.2,0.9,16.2,12.9c0,6.2-3.4,10.1-8.9,10.1c-5.7,0-7.9-4.4-7.9-7.2
		c0-2.9,2.2-6,6.2-6c0.8,0,1.4-0.6,1.4-1.4c0-0.8-0.6-1.4-1.4-1.4c-5.8,0-9,4.5-9,8.8c0,4.8,3.7,9.9,10.6,9.9
		c7.1,0,11.7-5.1,11.7-12.9C411.9,30.7,407,22.6,393,22.6z"/>
	<path id="XMLID_8_" class="st0" d="M246.6,61.7c-3.1,9.5-14.3,15.9-23.2,14.1c3.6,2.4,11.8,5.3,17.9-0.2c-0.3,2.2-3.1,6.4-3.1,6.4
		S247.8,78.8,246.6,61.7z"/>
	<path id="XMLID_7_" class="st0" d="M251.7,61.6c-0.9,17.2,8.8,20.2,8.8,20.2s-2.9-4.2-3.2-6.4c6.2,5.4,14.4,2.3,17.9-0.1
		C266.3,77.3,255,71.1,251.7,61.6z"/>
	<path id="XMLID_6_" class="st0" d="M252.2,78.4c-1.9-4.6-3.1-12-3.1-12s-1.1,7.4-2.9,12.1c-2.1,5.4-7.9,6.5-7.9,6.6
		c0.3,0,5.4,0.8,7.9-1.2c0.6,6.9,3.1,12.1,3.1,12.1s2.4-5.3,2.9-12.2c2.6,2,7.7,1.2,8,1.1C260.2,84.8,254.4,83.7,252.2,78.4z"/>
	<path id="XMLID_5_" class="st0" d="M175.1,19.8c15.7,0.1,32.3,0.1,49.7,0.1c31.3,0,64.9-0.1,98.5-0.6c0.8,0,1.4-0.6,1.4-1.4
		c0-0.8-0.7-1.4-1.4-1.4c-52.2,0.7-104.2,0.6-148.2,0.5c0,0,0,0,0,0c-0.8,0-1.4,0.6-1.4,1.4C173.7,19.2,174.4,19.8,175.1,19.8z"/>
	<path id="XMLID_4_" class="st0" d="M124.8,19.8c0.8,0,1.4-0.6,1.4-1.4c0-0.8-0.6-1.4-1.4-1.4C90.5,17,55.5,16.8,20.9,16.6
		c0,0,0,0,0,0c-0.8,0-1.4,0.6-1.4,1.4c0,0.8,0.6,1.4,1.4,1.4C55.5,19.6,90.5,19.7,124.8,19.8L124.8,19.8z"/>
	<path id="XMLID_3_" class="st0" d="M477.7,16.6c-22,0.4-56.7,0.9-104.2,0c0,0,0,0,0,0c-0.7,0-1.4,0.6-1.4,1.3
		c0,0.8,0.6,1.4,1.3,1.4c19.9,0.4,37.5,0.5,53,0.5c21.4,0,38.5-0.3,51.3-0.5c0.8,0,1.4-0.6,1.3-1.4
		C479.1,17.2,478.5,16.5,477.7,16.6z"/>
</g>
</svg>
