<?xml version="1.0" encoding="utf-8"?>
<!-- Generator: Adobe Illustrator 19.0.0, SVG Export Plug-In . SVG Version: 6.00 Build 0)  -->
<svg version="1.1" id="Capa_1" xmlns="http://www.w3.org/2000/svg" xmlns:xlink="http://www.w3.org/1999/xlink" x="0px" y="0px"
	 viewBox="0 0 450 81.5" style="enable-background:new 0 0 450 81.5;" xml:space="preserve">
<style type="text/css">
	.st0{fill:#D5B376;}
</style>
<g>
	<path class="st0" d="M440.8,16.8H283.7H169.4H10.1c-0.9,0-1.7,0.8-1.7,1.7c0,0.9,0.8,1.7,1.7,1.7h134.9
		c-11.7,3.9-19.5,10.4-26.7,16.4c-8,6.7-14.8,12.5-25.4,12.5c-7,0-12.8-5.7-12.8-12.8c0-4.1,2.5-7.6,6.1-9.1c0,0.5,0.1,1.1,0.3,1.6
		c1.3,2.7,4.4,2.9,6.8,1.2c2.8-2.1,3.6-5.6,3.3-7.5c-0.1-0.4-0.5-0.4-0.7-0.1c-1.3,2.1-3.7,0.8-5.9,0.7c0,0,0,0,0,0
		c-0.1,0-0.1,0-0.2,0c-0.2,0-0.3,0-0.5,0c-7,0.3-12.6,6.1-12.6,13.2c0,8.9,7.2,16.1,16.1,16.1c11.8,0,19.4-6.4,27.6-13.3
		c7.8-6.6,16.5-13.8,30.5-17.2c-8.3,5.5-13.4,14.8-13.4,26.3c0,0,0,0.1,0,0.1c-0.7,8.3-4.1,15.3-9.5,19.4
		c-4.1,3.2-11.3,3.9-15.7-0.5c-1.6-1.6-2.4-3.6-2.4-5.9c0-2.2,0.9-4.3,2.4-5.9c1.7-1.7,4.2-2.1,6.3-1.5c-0.1,0.2-0.2,0.4-0.3,0.6
		c-0.8,2.3,0.8,4.3,3.3,4.7c2.9,0.4,5.5-1.2,6.4-2.5c0.2-0.2-0.1-0.6-0.4-0.5c-2.1,0.5-2.7-1.9-4-3.2c0,0,0,0,0,0
		c0,0-0.1-0.1-0.1-0.1c-0.1-0.1-0.2-0.1-0.2-0.2c-1.8-1.6-4.1-2.5-6.5-2.5c-2.6,0-5,1-6.8,2.8c-2.2,2.2-3.4,5.1-3.4,8.2
		c0,3.1,1.2,6,3.4,8.2c2.9,2.9,6.6,4.1,10.2,4.1c3.6,0,7.2-1.2,9.9-3.3c4.2-3.2,7.3-7.8,9.1-13.3c3.7,9.9,13.1,16.9,24.3,16.9
		c11.6,0,21.1-9.4,21.1-21.1c0-9.5-7.7-17.2-17.2-17.2c-7.8,0-14.1,6.3-14.1,14.1c0,6.1,4.7,11,10.7,11.5c0.3,0.1,0.5,0.1,0.8,0.1
		c0,0,0.1,0,0.1,0c0,0,0.1,0,0.1,0c2.6-0.2,5.1-2.9,7.2-0.7c0.3,0.3,0.8,0.1,0.7-0.3c-0.1-2-1.7-5.6-5.1-7.1
		c-2.9-1.3-6.1-0.4-6.9,2.7c-0.1,0.3-0.1,0.6-0.1,0.9c-2.5-1.4-4.2-4.1-4.2-7.1c0-5.9,4.8-10.7,10.7-10.7c7.6,0,13.8,6.2,13.8,13.8
		c0,9.7-7.9,17.7-17.7,17.7c-12.4,0-22.5-10.1-22.5-22.4c0.1-1,0.1-2,0.1-3.1c0,0,0,0,0-0.1c1.3-15.1,12.4-25.1,28.4-25.1h27.8
		c11.3,0,19.3,7.4,27,15.1c-7.2,7.2-14.1,13.9-23,13.9c-5.8,0-10.5-4.7-10.5-10.5c0-4.5,3.6-8.1,8.1-8.1c3.4,0,6.1,2.8,6.1,6.1
		c0,0.9,0.8,1.7,1.7,1.7c0.9,0,1.7-0.8,1.7-1.7c0-5.2-4.3-9.5-9.5-9.5c-6.3,0-11.5,5.1-11.5,11.5c0,7.7,6.2,13.9,13.9,13.9
		c10.3,0,18-7.4,25.4-14.8c7.4,7.4,15.1,14.8,25.4,14.8c7.7,0,13.9-6.2,13.9-13.9c0-6.3-5.1-11.5-11.5-11.5c-5.2,0-9.5,4.3-9.5,9.5
		c0,0.9,0.8,1.7,1.7,1.7c0.9,0,1.7-0.8,1.7-1.7c0-3.4,2.8-6.1,6.1-6.1c4.5,0,8.1,3.6,8.1,8.1c0,5.8-4.7,10.5-10.5,10.5
		c-9,0-15.9-6.6-23-13.9c7.6-7.7,15.7-15.1,27-15.1h27.8c16,0,27.1,10,28.4,25.1c0,0,0,0,0,0.1c0,1.1,0.1,2.1,0.1,3.1
		c0,12.4-10.1,22.4-22.5,22.4c-9.7,0-17.7-7.9-17.7-17.7c0-7.6,6.2-13.8,13.8-13.8c5.9,0,10.7,4.8,10.7,10.7c0,3.1-1.7,5.7-4.2,7.1
		c0-0.3,0-0.6-0.1-0.9c-0.7-3.1-4-4.1-6.9-2.7c-3.4,1.5-5,5.1-5.1,7.1c0,0.4,0.5,0.5,0.7,0.3c2.1-2.2,4.6,0.5,7.2,0.7
		c0,0,0.1,0,0.1,0c0,0,0.1,0,0.1,0c0.3,0,0.5,0,0.8-0.1c6-0.5,10.7-5.4,10.7-11.5c0-7.8-6.3-14.1-14.1-14.1
		c-9.5,0-17.2,7.7-17.2,17.2c0,11.6,9.4,21.1,21.1,21.1c11.1,0,20.6-7.1,24.3-16.9c1.8,5.5,4.9,10.1,9.1,13.3
		c2.7,2.1,6.3,3.3,9.9,3.3c3.6,0,7.3-1.2,10.2-4.1c4.5-4.5,4.5-11.9,0-16.5c-3.7-3.7-9.5-3.7-13.3-0.3c-0.1,0.1-0.2,0.1-0.3,0.2
		c0,0-0.1,0.1-0.1,0.1c0,0,0,0,0,0c-1.3,1.3-1.9,3.7-4,3.2c-0.3-0.1-0.5,0.2-0.4,0.5c0.9,1.3,3.5,2.9,6.4,2.5
		c2.5-0.4,4.2-2.4,3.3-4.7c-0.1-0.2-0.2-0.4-0.3-0.6c2.2-0.7,4.6-0.2,6.4,1.5c3.2,3.2,3.2,8.5,0,11.7c-4.4,4.4-11.6,3.7-15.7,0.5
		c-5.5-4.2-8.9-11.2-9.5-19.4c0,0,0-0.1,0-0.1c0-11.5-5.1-20.9-13.4-26.3c14,3.3,22.6,10.6,30.5,17.2c8.1,6.8,15.8,13.3,27.6,13.3
		c8.9,0,16.1-7.2,16.1-16.1c0-7.1-5.6-12.9-12.6-13.2c-0.2,0-0.3,0-0.5,0c-0.1,0-0.1,0-0.2,0c0,0,0,0,0,0c-2.2,0.1-4.6,1.4-5.9-0.7
		c-0.2-0.3-0.7-0.3-0.7,0.1c-0.3,1.9,0.5,5.4,3.3,7.5c2.4,1.8,5.5,1.5,6.8-1.2c0.2-0.5,0.3-1,0.3-1.6c3.6,1.5,6.1,5,6.1,9.1
		c0,7-5.7,12.8-12.8,12.8c-10.6,0-17.4-5.8-25.4-12.5c-7.2-6-15-12.6-26.7-16.4h132.6c0.9,0,1.7-0.8,1.7-1.7
		C442.5,17.6,441.8,16.8,440.8,16.8z M226.6,32.9c-4.8-4.9-9.8-9.6-15.8-12.7h31.6C236.4,23.3,231.4,28,226.6,32.9z"/>
	<path class="st0" d="M222.6,69.5c0,9.4,7.9,9.5,7.9,0c0-6.3-4-16.9-4-22.7C226.6,52.5,222.6,63.2,222.6,69.5z"/>
	<path class="st0" d="M207.6,65.6c0,1.7,1.2,2.7,3.1,2.7c3.8,0,13-5.9,13-18.3C223.7,58,207.6,60.2,207.6,65.6z"/>
	<path class="st0" d="M221,50.1c0,4.7-16,4.3-16,7.2c0,1.1,0.7,1.5,2.5,1.5C210.6,58.8,221,54.8,221,50.1z"/>
	<path class="st0" d="M229.4,50c0,12.5,9.3,18.3,13,18.3c1.9,0,3.1-1,3.1-2.7C245.6,60.2,229.4,58,229.4,50z"/>
	<path class="st0" d="M232.1,50.1c0,4.7,10.4,8.7,13.5,8.7c1.8,0,2.5-0.4,2.5-1.5C248.1,54.4,232.1,54.8,232.1,50.1z"/>
</g>
</svg>
