<?xml version="1.0" encoding="utf-8"?>
<!-- Generator: Adobe Illustrator 19.0.0, SVG Export Plug-In . SVG Version: 6.00 Build 0)  -->
<svg version="1.1" id="Capa_1" xmlns="http://www.w3.org/2000/svg" xmlns:xlink="http://www.w3.org/1999/xlink" x="0px" y="0px"
	 viewBox="0 0 500 100" style="enable-background:new 0 0 500 100;" xml:space="preserve">
<style type="text/css">
	.st0{fill:#D5B376;}
</style>
<g id="XMLID_2_">
	<g id="XMLID_25_">
		<g id="XMLID_31_">
			<path id="XMLID_32_" class="st0" d="M238,68c-6.7,0-12.1-6.3-17.9-12.9c-6.8-7.9-13.9-16-23.9-16c-9.8,0-15.9,5.4-15.9,14.2
				c0,6.2,5,11.2,11.2,11.2c4.8,0,8.8-3.9,8.8-8.8c0-3.8-3.1-6.8-6.8-6.8c-1,0-1.7-0.8-1.7-1.7c0-1,0.8-1.7,1.7-1.7
				c5.7,0,10.3,4.6,10.3,10.3c0,6.7-5.5,12.2-12.2,12.2c-8.1,0-14.7-6.6-14.7-14.7c0-10.7,7.6-17.7,19.4-17.7
				c11.6,0,19.5,9.1,26.5,17.2c5.2,6,10.1,11.7,15.3,11.7c4.9,0,8-2.5,8-6.5c0-2.3-1.5-4-3.6-4c-1.3,0-2.6,1.1-2.6,2.2
				c0,1-0.8,1.7-1.7,1.7c-1,0-1.7-0.8-1.7-1.7c0-3,2.8-5.7,6-5.7c4,0,7.1,3.2,7.1,7.4C249.5,63,245.9,68,238,68z"/>
		</g>
		<g id="XMLID_29_">
			<path id="XMLID_30_" class="st0" d="M211.1,59.3H90.6c-1,0-1.7-0.8-1.7-1.7s0.8-1.7,1.7-1.7h120.5c1,0,1.7,0.8,1.7,1.7
				S212.1,59.3,211.1,59.3z"/>
		</g>
		<path id="XMLID_28_" class="st0" d="M86.2,38.2c-7,0-11.7,5.4-15.9,10.3c-3,3.5-5.9,6.8-8.7,6.8c-2.7,0-4.4-1.3-4.4-3.4
			c0-0.9,0.5-2,1.7-2c0.6,0,1.1,0.5,1.1,0.9c0,0.8,0.6,1.4,1.4,1.4c0.8,0,1.4-0.6,1.4-1.4c0-2-1.8-3.7-3.9-3.7c-2.6,0-4.5,2-4.5,4.7
			c0,3.7,2.9,6.2,7.1,6.2c4.1,0,7.4-3.7,10.8-7.7c4-4.6,8.1-9.3,13.8-9.3c5.6,0,9,3,9,8c0,3.4-2.8,6.2-6.2,6.2
			c-2.6,0-4.8-2.2-4.8-4.8c0-1,0.4-2,1.2-2.6c0.4,0.9,1.3,1.5,2.4,1.5c1.5,0,2.7-1.2,2.7-2.7c0-1.2-0.9-2.2-2-2.5
			C88.2,44,88,44,87.8,44c0,0,0,0-0.1,0c0,0,0,0,0,0c0,0-0.1,0-0.1,0c-3.5,0.1-6.2,2.9-6.2,6.4c0,4.2,3.4,7.6,7.6,7.6c5,0,9-4,9-9
			C98,42.4,93.4,38.2,86.2,38.2z"/>
		<path id="XMLID_27_" class="st0" d="M86.2,77c-7,0-11.7-5.4-15.9-10.3c-3-3.5-5.9-6.8-8.7-6.8c-2.7,0-4.4,1.3-4.4,3.4
			c0,0.9,0.5,2,1.7,2c0.6,0,1.1-0.5,1.1-0.9c0-0.8,0.6-1.4,1.4-1.4c0.8,0,1.4,0.6,1.4,1.4c0,2-1.8,3.7-3.9,3.7c-2.6,0-4.5-2-4.5-4.7
			c0-3.7,2.9-6.2,7.1-6.2c4.1,0,7.4,3.7,10.8,7.7c4,4.6,8.1,9.3,13.8,9.3c5.6,0,9-3,9-8c0-3.4-2.8-6.2-6.2-6.2
			c-2.6,0-4.8,2.2-4.8,4.8c0,1,0.4,2,1.2,2.6c0.4-0.9,1.3-1.5,2.4-1.5c1.5,0,2.7,1.2,2.7,2.7c0,1.2-0.9,2.2-2,2.5
			c-0.2,0.1-0.4,0.1-0.6,0.1c0,0,0,0-0.1,0c0,0,0,0,0,0c0,0-0.1,0-0.1,0c-3.5-0.1-6.2-2.9-6.2-6.4c0-4.2,3.4-7.6,7.6-7.6
			c5,0,9,4,9,9C98,72.7,93.4,77,86.2,77z"/>
		<path id="XMLID_26_" class="st0" d="M46.4,60.6c-5.9,0-14.1-3-16.9-3c2.8,0,11.1-3,16.9-3C55.2,54.5,55.1,60.6,46.4,60.6z"/>
	</g>
	<g id="XMLID_17_">
		<g id="XMLID_23_">
			<path id="XMLID_24_" class="st0" d="M260.9,68c6.7,0,12.1-6.3,17.9-12.9c6.8-7.9,13.9-16,23.9-16c9.8,0,15.9,5.4,15.9,14.2
				c0,6.2-5,11.2-11.2,11.2c-4.8,0-8.8-3.9-8.8-8.8c0-3.8,3.1-6.8,6.8-6.8c1,0,1.7-0.8,1.7-1.7c0-1-0.8-1.7-1.7-1.7
				c-5.7,0-10.3,4.6-10.3,10.3c0,6.7,5.5,12.2,12.2,12.2c8.1,0,14.7-6.6,14.7-14.7c0-10.7-7.6-17.7-19.4-17.7
				c-11.6,0-19.5,9.1-26.5,17.2c-5.2,6-10.1,11.7-15.3,11.7c-4.9,0-8-2.5-8-6.5c0-2.3,1.5-4,3.6-4c1.3,0,2.6,1.1,2.6,2.2
				c0,1,0.8,1.7,1.7,1.7c1,0,1.7-0.8,1.7-1.7c0-3-2.8-5.7-6-5.7c-4,0-7.1,3.2-7.1,7.4C249.5,63,253,68,260.9,68z"/>
		</g>
		<g id="XMLID_21_">
			<path id="XMLID_22_" class="st0" d="M287.8,59.3h120.5c1,0,1.7-0.8,1.7-1.7s-0.8-1.7-1.7-1.7H287.8c-1,0-1.7,0.8-1.7,1.7
				S286.8,59.3,287.8,59.3z"/>
		</g>
		<path id="XMLID_20_" class="st0" d="M412.7,38.2c7,0,11.7,5.4,15.9,10.3c3,3.5,5.9,6.8,8.7,6.8c2.7,0,4.4-1.3,4.4-3.4
			c0-0.9-0.5-2-1.7-2c-0.6,0-1.1,0.5-1.1,0.9c0,0.8-0.6,1.4-1.4,1.4s-1.4-0.6-1.4-1.4c0-2,1.8-3.7,3.9-3.7c2.6,0,4.5,2,4.5,4.7
			c0,3.7-2.9,6.2-7.1,6.2c-4.1,0-7.4-3.7-10.8-7.7c-4-4.6-8.1-9.3-13.8-9.3c-5.6,0-9,3-9,8c0,3.4,2.8,6.2,6.2,6.2
			c2.6,0,4.8-2.2,4.8-4.8c0-1-0.4-2-1.2-2.6c-0.4,0.9-1.3,1.5-2.4,1.5c-1.5,0-2.7-1.2-2.7-2.7c0-1.2,0.9-2.2,2-2.5
			c0.2-0.1,0.4-0.1,0.6-0.1c0,0,0,0,0.1,0c0,0,0,0,0,0c0,0,0.1,0,0.1,0c3.5,0.1,6.2,2.9,6.2,6.4c0,4.2-3.4,7.6-7.6,7.6c-5,0-9-4-9-9
			C400.9,42.4,405.5,38.2,412.7,38.2z"/>
		<path id="XMLID_19_" class="st0" d="M412.7,77c7,0,11.7-5.4,15.9-10.3c3-3.5,5.9-6.8,8.7-6.8c2.7,0,4.4,1.3,4.4,3.4
			c0,0.9-0.5,2-1.7,2c-0.6,0-1.1-0.5-1.1-0.9c0-0.8-0.6-1.4-1.4-1.4s-1.4,0.6-1.4,1.4c0,2,1.8,3.7,3.9,3.7c2.6,0,4.5-2,4.5-4.7
			c0-3.7-2.9-6.2-7.1-6.2c-4.1,0-7.4,3.7-10.8,7.7c-4,4.6-8.1,9.3-13.8,9.3c-5.6,0-9-3-9-8c0-3.4,2.8-6.2,6.2-6.2
			c2.6,0,4.8,2.2,4.8,4.8c0,1-0.4,2-1.2,2.6c-0.4-0.9-1.3-1.5-2.4-1.5c-1.5,0-2.7,1.2-2.7,2.7c0,1.2,0.9,2.2,2,2.5
			c0.2,0.1,0.4,0.1,0.6,0.1c0,0,0,0,0.1,0c0,0,0,0,0,0c0,0,0.1,0,0.1,0c3.5-0.1,6.2-2.9,6.2-6.4c0-4.2-3.4-7.6-7.6-7.6c-5,0-9,4-9,9
			C400.9,72.7,405.5,77,412.7,77z"/>
		<path id="XMLID_18_" class="st0" d="M452.5,60.6c5.9,0,14.1-3,16.9-3c-2.8,0-11.1-3-16.9-3C443.7,54.5,443.8,60.6,452.5,60.6z"/>
	</g>
	<path id="XMLID_16_" class="st0" d="M246.7,41.4c0-5.9,3-14.1,3-16.9c0,2.8,3,11.1,3,16.9C252.7,50.3,246.7,50.2,246.7,41.4z"/>
	<g id="XMLID_3_">
		<g id="XMLID_14_">
			<path id="XMLID_15_" class="st0" d="M273.8,40.7c0.7-1.2,2.4-1.5,3.7-0.7c1.3,0.8,1.6,2.5,0.8,3.7c-0.8,1.1-2.4,1.4-3.6,0.6
				C273.5,43.6,273.1,41.9,273.8,40.7z"/>
		</g>
		<g id="XMLID_12_">
			<path id="XMLID_13_" class="st0" d="M265.2,36.5c0.5-1.3,2.1-2,3.5-1.3c1.4,0.7,2,2.2,1.3,3.5c-0.6,1.3-2.2,1.8-3.5,1.2
				C265.3,39.2,264.7,37.8,265.2,36.5z"/>
		</g>
		<g id="XMLID_10_">
			<path id="XMLID_11_" class="st0" d="M256.1,33.4c0.3-1.4,1.8-2.2,3.3-1.8c1.5,0.5,2.3,2,1.8,3.3c-0.5,1.3-1.9,2-3.3,1.6
				C256.6,36.2,255.7,34.8,256.1,33.4z"/>
		</g>
		<g id="XMLID_8_">
			<path id="XMLID_9_" class="st0" d="M238.2,35c-0.5-1.3,0.3-2.8,1.8-3.3c1.5-0.4,3,0.4,3.3,1.8c0.3,1.4-0.5,2.8-1.8,3.2
				C240.1,37,238.7,36.3,238.2,35z"/>
		</g>
		<g id="XMLID_6_">
			<path id="XMLID_7_" class="st0" d="M229.3,38.7c-0.7-1.3-0.1-2.8,1.3-3.5c1.4-0.7,3,0,3.5,1.3c0.5,1.3-0.1,2.8-1.4,3.4
				C231.5,40.5,230,40,229.3,38.7z"/>
		</g>
		<g id="XMLID_4_">
			<path id="XMLID_5_" class="st0" d="M221.1,43.7c-0.8-1.1-0.5-2.9,0.8-3.7c1.3-0.8,2.9-0.5,3.7,0.7c0.7,1.2,0.3,2.8-0.8,3.6
				C223.5,45.1,222,44.8,221.1,43.7z"/>
		</g>
	</g>
</g>
</svg>
